<svg width="31" height="31" viewBox="0 0 31 31" fill="none" xmlns="http://www.w3.org/2000/svg">
<path d="M26.792 15.4857H23.042V4.23568C23.0429 4.01542 22.9855 3.79884 22.8758 3.60786C22.766 3.41689 22.6078 3.25831 22.417 3.14818C22.227 3.03847 22.0114 2.98071 21.792 2.98071C21.5726 2.98071 21.357 3.03847 21.167 3.14818L17.417 5.29818L13.667 3.14818C13.477 3.03847 13.2614 2.98071 13.042 2.98071C12.8226 2.98071 12.607 3.03847 12.417 3.14818L8.667 5.29818L4.917 3.14818C4.72698 3.03847 4.51142 2.98071 4.292 2.98071C4.07258 2.98071 3.85703 3.03847 3.667 3.14818C3.47625 3.25831 3.31798 3.41689 3.20822 3.60786C3.09847 3.79884 3.04113 4.01542 3.042 4.23568V24.2357C3.042 25.2302 3.43709 26.1841 4.14035 26.8873C4.84361 27.5906 5.79744 27.9857 6.792 27.9857H24.292C25.2866 27.9857 26.2404 27.5906 26.9437 26.8873C27.6469 26.1841 28.042 25.2302 28.042 24.2357V16.7357C28.042 16.4042 27.9103 16.0862 27.6759 15.8518C27.4415 15.6174 27.1235 15.4857 26.792 15.4857ZM6.792 25.4857C6.46048 25.4857 6.14254 25.354 5.90812 25.1196C5.6737 24.8851 5.542 24.5672 5.542 24.2357V6.39818L8.042 7.82318C8.23492 7.92395 8.44935 7.97657 8.667 7.97657C8.88465 7.97657 9.09908 7.92395 9.292 7.82318L13.042 5.67318L16.792 7.82318C16.9849 7.92395 17.1993 7.97657 17.417 7.97657C17.6347 7.97657 17.8491 7.92395 18.042 7.82318L20.542 6.39818V24.2357C20.5454 24.6621 20.6215 25.0848 20.767 25.4857H6.792ZM25.542 24.2357C25.542 24.5672 25.4103 24.8851 25.1759 25.1196C24.9415 25.354 24.6235 25.4857 24.292 25.4857C23.9605 25.4857 23.6425 25.354 23.4081 25.1196C23.1737 24.8851 23.042 24.5672 23.042 24.2357V17.9857H25.542V24.2357Z" fill="black"/>
<path d="M15.0225 16.845C14.7802 16.9398 14.4852 17.0504 14.1376 17.1768H17.124C17.2399 17.1768 17.3347 17.2137 17.4084 17.2874C17.4822 17.3612 17.519 17.456 17.519 17.5718V18.1881C17.519 18.2934 17.4822 18.3882 17.4084 18.4725C17.3347 18.5462 17.2399 18.5831 17.124 18.5831H11.2776C11.1722 18.7517 11.1196 18.9518 11.1196 19.1836C11.1196 19.5523 11.2565 19.8367 11.5304 20.0368C11.8043 20.237 12.1783 20.337 12.6523 20.337C13.6636 20.337 14.3219 20.021 14.6274 19.389C14.7222 19.2836 14.8065 19.2099 14.8802 19.1678C14.954 19.1256 15.0541 19.1046 15.1805 19.1046H17.1872C17.282 19.1046 17.361 19.1414 17.4242 19.2152C17.4874 19.2784 17.519 19.3521 17.519 19.4364C17.5085 20.0052 17.3189 20.5319 16.9502 21.0165C16.592 21.4905 16.0548 21.875 15.3385 22.17C14.6222 22.4649 13.7636 22.6124 12.7629 22.6124C11.9623 22.6124 11.246 22.4755 10.6139 22.2016C9.99243 21.9277 9.5026 21.5432 9.14444 21.0481C8.78628 20.553 8.6072 19.9841 8.6072 19.3416C8.6072 19.0572 8.6388 18.8043 8.70201 18.5831H8.49659C8.39125 18.5831 8.29644 18.5462 8.21217 18.4725C8.13843 18.3882 8.10156 18.2934 8.10156 18.1881V17.5718C8.10156 17.456 8.13843 17.3612 8.21217 17.2874C8.29644 17.2137 8.39125 17.1768 8.49659 17.1768H9.83969C10.0504 17.0504 10.261 16.9398 10.4717 16.845H8.49659C8.39125 16.845 8.29644 16.8081 8.21217 16.7344C8.13843 16.6501 8.10156 16.5553 8.10156 16.45V15.8337C8.10156 15.7178 8.13843 15.623 8.21217 15.5493C8.29644 15.4756 8.39125 15.4387 8.49659 15.4387H13.869C14.0586 15.3018 14.1955 15.1595 14.2798 15.0121C14.3641 14.8646 14.4062 14.696 14.4062 14.5064C14.4062 14.1799 14.3009 13.9271 14.0902 13.748C13.8795 13.5689 13.5846 13.4794 13.2053 13.4794C12.7418 13.4794 12.3626 13.5636 12.0676 13.7322C11.7727 13.8902 11.5725 14.1061 11.4672 14.38C11.3619 14.5591 11.188 14.6486 10.9458 14.6486H8.84422C8.74941 14.6486 8.6704 14.617 8.6072 14.5538C8.54399 14.4801 8.51239 14.4011 8.51239 14.3168C8.51239 13.8533 8.69674 13.3845 9.06543 12.9105C9.44466 12.4259 9.99243 12.0257 10.7087 11.7096C11.4251 11.3936 12.2573 11.2356 13.2053 11.2356C13.9638 11.2356 14.6222 11.3725 15.1805 11.6464C15.7493 11.9203 16.1812 12.2943 16.4762 12.7683C16.7711 13.2423 16.9186 13.7796 16.9186 14.38C16.9186 14.8014 16.8501 15.1543 16.7132 15.4387H17.124C17.2399 15.4387 17.3347 15.4756 17.4084 15.5493C17.4822 15.623 17.519 15.7178 17.519 15.8337V16.45C17.519 16.5553 17.4822 16.6501 17.4084 16.7344C17.3347 16.8081 17.2399 16.845 17.124 16.845H15.0225Z" fill="black"/>
</svg>
