<svg width="26" height="31" viewBox="0 0 26 31" fill="none" xmlns="http://www.w3.org/2000/svg">
<circle cx="12.7959" cy="13.0955" r="12.6143" fill="#FFBFBD"/>
<path d="M14.7956 22.479C14.3068 22.479 13.8878 22.3161 13.5386 21.9902C13.2127 21.6643 13.0032 21.1987 12.9101 20.5935L11.0945 9.73459C11.0712 9.59492 11.0596 9.4087 11.0596 9.17593C11.0596 8.12844 11.4087 7.31373 12.1071 6.7318C12.8287 6.12658 13.7248 5.82397 14.7956 5.82397C15.8896 5.82397 16.7858 6.12658 17.4842 6.7318C18.1825 7.33701 18.5316 8.16336 18.5316 9.21085C18.5316 9.44362 18.52 9.62984 18.4967 9.76951L16.6462 20.5935C16.5763 21.1987 16.3668 21.6643 16.0177 21.9902C15.6918 22.3161 15.2844 22.479 14.7956 22.479ZM14.7956 30.824C13.818 30.824 13.0032 30.4981 12.3515 29.8463C11.723 29.1946 11.4087 28.3915 11.4087 27.4371C11.4087 26.4827 11.723 25.6797 12.3515 25.0279C13.0032 24.3761 13.818 24.0502 14.7956 24.0502C15.75 24.0502 16.5414 24.3761 17.1699 25.0279C17.8217 25.6797 18.1476 26.4827 18.1476 27.4371C18.1476 28.3915 17.8217 29.1946 17.1699 29.8463C16.5414 30.4981 15.75 30.824 14.7956 30.824Z" fill="#333085"/>
</svg>
