<svg width="26" height="26" viewBox="0 0 26 26" fill="none" xmlns="http://www.w3.org/2000/svg">
<path d="M21.4932 12.819H12.7432V4.06897C12.7432 3.31897 12.2432 2.81897 11.4932 2.81897C5.24316 2.81897 0.243164 7.81897 0.243164 14.069C0.243164 20.319 5.24316 25.319 11.4932 25.319C17.7432 25.319 22.7432 20.319 22.7432 14.069C22.7432 13.319 22.2432 12.819 21.4932 12.819ZM12.7432 22.694C7.99316 23.444 3.49316 20.069 2.86816 15.319C2.11816 10.569 5.49316 6.06897 10.2432 5.44397V14.069C10.2432 14.819 10.7432 15.319 11.4932 15.319H20.1182C19.6182 19.194 16.6182 22.194 12.7432 22.694ZM16.4932 0.31897C15.7432 0.31897 15.2432 0.81897 15.2432 1.56897V9.06897C15.2432 9.81897 15.7432 10.319 16.4932 10.319H23.9932C24.7432 10.319 25.2432 9.81897 25.2432 9.06897C25.2432 4.19397 21.3682 0.31897 16.4932 0.31897ZM17.7432 7.81897V2.94397C20.2432 3.44397 22.1182 5.31897 22.6182 7.81897H17.7432Z" fill="black"/>
</svg>
