<svg width="31" height="31" viewBox="0 0 31 31" fill="none" xmlns="http://www.w3.org/2000/svg">
<path d="M26.4854 20.1106H8.98535C8.65383 20.1106 8.33589 19.9789 8.10147 19.7445C7.86705 19.5101 7.73535 19.1921 7.73535 18.8606C7.73535 18.5291 7.86705 18.2111 8.10147 17.9767C8.33589 17.7423 8.65383 17.6106 8.98535 17.6106H22.0354C22.8712 17.6106 23.683 17.3315 24.3421 16.8174C25.0011 16.3033 25.4695 15.5838 25.6729 14.7731L27.7354 6.6606C27.7822 6.47611 27.7862 6.28336 27.7472 6.09706C27.7082 5.91076 27.6272 5.73583 27.5104 5.5856C27.3888 5.43151 27.2326 5.30822 27.0546 5.2257C26.8765 5.14317 26.6815 5.10374 26.4854 5.1106H8.68535C8.42746 4.38116 7.95026 3.74934 7.31918 3.30177C6.6881 2.85419 5.93403 2.61277 5.16035 2.6106H3.98535C3.65383 2.6106 3.33589 2.74229 3.10147 2.97671C2.86705 3.21113 2.73535 3.52908 2.73535 3.8606C2.73535 4.19212 2.86705 4.51006 3.10147 4.74448C3.33589 4.9789 3.65383 5.1106 3.98535 5.1106H5.16035C5.44589 5.10228 5.72567 5.19201 5.95311 5.36486C6.18054 5.53771 6.34191 5.78325 6.41035 6.0606L6.48535 6.6606L8.64785 15.1106C7.65329 15.1554 6.71724 15.5934 6.04563 16.3283C5.37401 17.0632 5.02185 18.0348 5.0666 19.0293C5.11136 20.0239 5.54937 20.96 6.28428 21.6316C7.01918 22.3032 7.99079 22.6554 8.98535 22.6106H9.21035C9.00477 23.177 8.93871 23.7846 9.01776 24.382C9.09682 24.9793 9.31866 25.5489 9.6645 26.0423C10.0103 26.5357 10.47 26.9386 11.0045 27.2167C11.5391 27.4948 12.1328 27.64 12.7354 27.64C13.3379 27.64 13.9316 27.4948 14.4662 27.2167C15.0007 26.9386 15.4604 26.5357 15.8062 26.0423C16.152 25.5489 16.3739 24.9793 16.4529 24.382C16.532 23.7846 16.4659 23.177 16.2604 22.6106H19.2104C19.0048 23.177 18.9387 23.7846 19.0178 24.382C19.0968 24.9793 19.3187 25.5489 19.6645 26.0423C20.0103 26.5357 20.47 26.9386 21.0045 27.2167C21.5391 27.4948 22.1328 27.64 22.7354 27.64C23.3379 27.64 23.9316 27.4948 24.4662 27.2167C25.0007 26.9386 25.4604 26.5357 25.8062 26.0423C26.152 25.5489 26.3739 24.9793 26.4529 24.382C26.532 23.7846 26.4659 23.177 26.2604 22.6106H26.4854C26.8169 22.6106 27.1348 22.4789 27.3692 22.2445C27.6037 22.0101 27.7354 21.6921 27.7354 21.3606C27.7354 21.0291 27.6037 20.7111 27.3692 20.4767C27.1348 20.2423 26.8169 20.1106 26.4854 20.1106ZM24.8854 7.6106L23.2479 14.1606C23.1794 14.4379 23.018 14.6835 22.7906 14.8563C22.5632 15.0292 22.2834 15.1189 21.9979 15.1106H11.2104L9.33535 7.6106H24.8854ZM12.7354 25.1106C12.4881 25.1106 12.2464 25.0373 12.0409 24.8999C11.8353 24.7626 11.6751 24.5674 11.5805 24.339C11.4859 24.1105 11.4611 23.8592 11.5094 23.6167C11.5576 23.3743 11.6767 23.1515 11.8515 22.9767C12.0263 22.8019 12.249 22.6828 12.4915 22.6346C12.734 22.5864 12.9853 22.6111 13.2137 22.7057C13.4421 22.8004 13.6373 22.9606 13.7747 23.1661C13.912 23.3717 13.9854 23.6134 13.9854 23.8606C13.9854 24.1921 13.8537 24.5101 13.6192 24.7445C13.3848 24.9789 13.0669 25.1106 12.7354 25.1106ZM22.7354 25.1106C22.4881 25.1106 22.2465 25.0373 22.0409 24.8999C21.8353 24.7626 21.6751 24.5674 21.5805 24.339C21.4859 24.1105 21.4611 23.8592 21.5094 23.6167C21.5576 23.3743 21.6767 23.1515 21.8515 22.9767C22.0263 22.8019 22.249 22.6828 22.4915 22.6346C22.734 22.5864 22.9853 22.6111 23.2137 22.7057C23.4421 22.8004 23.6373 22.9606 23.7747 23.1661C23.912 23.3717 23.9854 23.6134 23.9854 23.8606C23.9854 24.1921 23.8537 24.5101 23.6192 24.7445C23.3848 24.9789 23.0669 25.1106 22.7354 25.1106Z" fill="black"/>
</svg>
