<svg width="31" height="31" viewBox="0 0 31 31" fill="none" xmlns="http://www.w3.org/2000/svg">
<path d="M23.8135 5.23438H21.3135V3.98438C21.3135 3.65285 21.1818 3.33491 20.9474 3.10049C20.7129 2.86607 20.395 2.73438 20.0635 2.73438C19.732 2.73438 19.414 2.86607 19.1796 3.10049C18.9452 3.33491 18.8135 3.65285 18.8135 3.98438V5.23438H11.3135V3.98438C11.3135 3.65285 11.1818 3.33491 10.9474 3.10049C10.7129 2.86607 10.395 2.73438 10.0635 2.73438C9.73196 2.73438 9.41401 2.86607 9.17959 3.10049C8.94517 3.33491 8.81348 3.65285 8.81348 3.98438V5.23438H6.31348C5.31891 5.23438 4.36509 5.62946 3.66183 6.33272C2.95856 7.03599 2.56348 7.98981 2.56348 8.98438V23.9844C2.56348 24.9789 2.95856 25.9328 3.66183 26.636C4.36509 27.3393 5.31891 27.7344 6.31348 27.7344H23.8135C24.808 27.7344 25.7619 27.3393 26.4651 26.636C27.1684 25.9328 27.5635 24.9789 27.5635 23.9844V8.98438C27.5635 7.98981 27.1684 7.03599 26.4651 6.33272C25.7619 5.62946 24.808 5.23438 23.8135 5.23438ZM25.0635 23.9844C25.0635 24.3159 24.9318 24.6338 24.6974 24.8683C24.4629 25.1027 24.145 25.2344 23.8135 25.2344H6.31348C5.98196 25.2344 5.66401 25.1027 5.42959 24.8683C5.19517 24.6338 5.06348 24.3159 5.06348 23.9844V15.2344H25.0635V23.9844ZM25.0635 12.7344H5.06348V8.98438C5.06348 8.65285 5.19517 8.33491 5.42959 8.10049C5.66401 7.86607 5.98196 7.73438 6.31348 7.73438H8.81348V8.98438C8.81348 9.3159 8.94517 9.63384 9.17959 9.86826C9.41401 10.1027 9.73196 10.2344 10.0635 10.2344C10.395 10.2344 10.7129 10.1027 10.9474 9.86826C11.1818 9.63384 11.3135 9.3159 11.3135 8.98438V7.73438H18.8135V8.98438C18.8135 9.3159 18.9452 9.63384 19.1796 9.86826C19.414 10.1027 19.732 10.2344 20.0635 10.2344C20.395 10.2344 20.7129 10.1027 20.9474 9.86826C21.1818 9.63384 21.3135 9.3159 21.3135 8.98438V7.73438H23.8135C24.145 7.73438 24.4629 7.86607 24.6974 8.10049C24.9318 8.33491 25.0635 8.65285 25.0635 8.98438V12.7344Z" fill="black"/>
</svg>
