<svg width="30" height="31" viewBox="0 0 30 31" fill="none" xmlns="http://www.w3.org/2000/svg">
<path d="M15.8875 20.7863L15.7 20.6363C15.6303 20.589 15.5547 20.5512 15.475 20.5238L15.25 20.4238C15.0473 20.3814 14.8372 20.3901 14.6387 20.449C14.4401 20.5079 14.2593 20.6152 14.1125 20.7613C14.0021 20.8828 13.9133 21.0223 13.85 21.1738C13.7554 21.4016 13.7303 21.6522 13.7778 21.8942C13.8254 22.1362 13.9434 22.3587 14.1171 22.5338C14.2908 22.7088 14.5125 22.8286 14.7541 22.878C14.9957 22.9274 15.2465 22.9042 15.475 22.8113C15.6244 22.7389 15.7631 22.6463 15.8875 22.5363C16.0609 22.3605 16.1784 22.1373 16.2252 21.8948C16.2719 21.6524 16.2457 21.4015 16.15 21.1738C16.0877 21.0293 15.9986 20.8978 15.8875 20.7863ZM20 2.92383H10C9.00544 2.92383 8.05161 3.31892 7.34835 4.02218C6.64509 4.72544 6.25 5.67927 6.25 6.67383V24.1738C6.25 25.1684 6.64509 26.1222 7.34835 26.8255C8.05161 27.5287 9.00544 27.9238 10 27.9238H20C20.9946 27.9238 21.9484 27.5287 22.6517 26.8255C23.3549 26.1222 23.75 25.1684 23.75 24.1738V6.67383C23.75 5.67927 23.3549 4.72544 22.6517 4.02218C21.9484 3.31892 20.9946 2.92383 20 2.92383ZM21.25 24.1738C21.25 24.5053 21.1183 24.8233 20.8839 25.0577C20.6495 25.2921 20.3315 25.4238 20 25.4238H10C9.66848 25.4238 9.35054 25.2921 9.11612 25.0577C8.8817 24.8233 8.75 24.5053 8.75 24.1738V6.67383C8.75 6.34231 8.8817 6.02437 9.11612 5.78994C9.35054 5.55552 9.66848 5.42383 10 5.42383H20C20.3315 5.42383 20.6495 5.55552 20.8839 5.78994C21.1183 6.02437 21.25 6.34231 21.25 6.67383V24.1738Z" fill="black"/>
</svg>
