<svg width="31" height="31" viewBox="0 0 31 31" fill="none" xmlns="http://www.w3.org/2000/svg">
<path d="M18.8875 7.82309C19.1745 7.98606 19.5143 8.02889 19.8328 7.94225C20.1513 7.8556 20.4226 7.64651 20.5875 7.36059C20.7239 7.11979 20.9364 6.93109 21.1917 6.82407C21.447 6.71706 21.7305 6.69778 21.9979 6.76928C22.2653 6.84077 22.5014 6.99898 22.6692 7.21911C22.8369 7.43924 22.9269 7.70882 22.925 7.98559C22.925 8.31712 22.7933 8.63506 22.5589 8.86948C22.3244 9.1039 22.0065 9.23559 21.675 9.23559C21.3435 9.23559 21.0255 9.36729 20.7911 9.60171C20.5567 9.83613 20.425 10.1541 20.425 10.4856C20.425 10.8171 20.5567 11.1351 20.7911 11.3695C21.0255 11.6039 21.3435 11.7356 21.675 11.7356C22.3331 11.7352 22.9796 11.5615 23.5494 11.2321C24.1192 10.9027 24.5923 10.4292 24.9211 9.85903C25.2499 9.28889 25.4228 8.64225 25.4226 7.98409C25.4223 7.32593 25.2488 6.67943 24.9196 6.10955C24.5903 5.53968 24.1169 5.06649 23.5468 4.73755C22.9767 4.40861 22.3301 4.23549 21.672 4.2356C21.0138 4.2357 20.3673 4.40902 19.7973 4.73815C19.2274 5.06728 18.7541 5.54061 18.425 6.11059C18.3423 6.25326 18.2887 6.41087 18.2672 6.57434C18.2458 6.73782 18.2568 6.90392 18.2998 7.0631C18.3428 7.22227 18.4169 7.37137 18.5177 7.50181C18.6186 7.63224 18.7442 7.74143 18.8875 7.82309ZM24.2625 16.7356C23.9344 16.693 23.6027 16.7823 23.3403 16.9838C23.0779 17.1853 22.906 17.4826 22.8625 17.8106C22.6002 19.9295 21.5721 21.8795 19.972 23.2931C18.3719 24.7067 16.3101 25.4865 14.175 25.4856H7.18748L7.99998 24.6731C8.23279 24.4389 8.36347 24.1221 8.36347 23.7918C8.36347 23.4616 8.23279 23.1448 7.99998 22.9106C6.78117 21.687 5.95171 20.1301 5.6161 18.4359C5.28048 16.7418 5.45371 14.9862 6.11398 13.3904C6.77424 11.7945 7.892 10.4297 9.32647 9.46796C10.7609 8.50617 12.4479 7.99039 14.175 7.98559C14.5065 7.98559 14.8244 7.8539 15.0589 7.61948C15.2933 7.38506 15.425 7.06712 15.425 6.73559C15.425 6.40407 15.2933 6.08613 15.0589 5.85171C14.8244 5.61729 14.5065 5.48559 14.175 5.48559C12.0615 5.49441 9.99328 6.09839 8.20722 7.22834C6.42116 8.35829 4.98952 9.9685 4.07631 11.8745C3.1631 13.7805 2.80526 15.9052 3.04379 18.0052C3.28231 20.1051 4.10756 22.0955 5.42498 23.7481L3.28748 25.8481C3.11403 26.0239 2.99654 26.2471 2.94982 26.4896C2.9031 26.7321 2.92925 26.983 3.02498 27.2106C3.11875 27.4389 3.278 27.6343 3.48265 27.7722C3.6873 27.9101 3.9282 27.9844 4.17498 27.9856H14.175C16.9143 27.986 19.5596 26.9869 21.6147 25.1757C23.6699 23.3645 24.9935 20.8657 25.3375 18.1481C25.3603 17.9847 25.3506 17.8183 25.3089 17.6587C25.2671 17.499 25.1942 17.3492 25.0942 17.2179C24.9943 17.0866 24.8693 16.9764 24.7266 16.8936C24.5838 16.8108 24.4261 16.7571 24.2625 16.7356ZM22.15 13.0731C21.9224 12.9724 21.67 12.9419 21.425 12.9856L21.2 13.0606L20.975 13.1731L20.7875 13.3356C20.675 13.4508 20.5859 13.5866 20.525 13.7356C20.4511 13.8915 20.4167 14.0632 20.425 14.2356C20.4213 14.4023 20.4511 14.5681 20.5125 14.7231C20.5771 14.8731 20.6706 15.009 20.7875 15.1231C20.9043 15.2389 21.0428 15.3306 21.1951 15.3928C21.3474 15.455 21.5105 15.4865 21.675 15.4856C22.0065 15.4856 22.3244 15.3539 22.5589 15.1195C22.7933 14.8851 22.925 14.5671 22.925 14.2356C22.9292 14.0716 22.895 13.9089 22.825 13.7606C22.6907 13.4602 22.4503 13.2199 22.15 13.0856V13.0731Z" fill="black"/>
</svg>
