<svg width="31" height="31" viewBox="0 0 31 31" fill="none" xmlns="http://www.w3.org/2000/svg">
<ellipse cx="9.39282" cy="12.4344" rx="8.95605" ry="9" fill="#B9F6CA"/>
<path d="M16.3187 7.00928C14.3399 7.00928 12.7416 8.61539 12.7416 10.6039C12.7416 12.5924 16.3187 16.3401 16.3187 16.3401C16.3187 16.3401 19.8958 12.5924 19.8958 10.6039C19.8958 8.65364 18.2975 7.00928 16.3187 7.00928ZM16.3187 12.21C15.4054 12.21 14.6443 11.4452 14.6443 10.5274C14.6443 9.60966 15.4054 8.84484 16.3187 8.84484C17.232 8.84484 17.9931 9.60966 17.9931 10.5274C17.9931 11.4835 17.232 12.21 16.3187 12.21Z" fill="#39D59B"/>
<path d="M23.2826 12.7454H20.086C19.7436 12.7454 19.4391 13.0513 19.4391 13.3955C19.4391 13.7397 19.7436 14.0456 20.086 14.0456H21.9887V25.7473H10.6486V14.0456H12.5513C12.8938 14.0456 13.1982 13.7397 13.1982 13.3955C13.1982 13.0513 12.8938 12.7454 12.5513 12.7454H9.39282V27.0093H23.2826H27.8871C29.2951 27.0093 30.4368 25.862 30.4368 24.4471V16.3783H23.2826V12.7454ZM24.995 19.4376H27.5066V20.7378H24.995V19.4376ZM24.995 22.6116H27.5066V23.9118H24.995V22.6116Z" fill="#39D59B"/>
<path d="M14.9867 22.1144H13.6929V24.4854H14.9867V22.1144Z" fill="#39D59B"/>
<path d="M14.9867 17.3343H13.6929V19.7052H14.9867V17.3343Z" fill="#39D59B"/>
<path d="M18.9442 22.1144H17.6504V24.4854H18.9442V22.1144Z" fill="#39D59B"/>
<path d="M18.9442 17.3343H17.6504V19.7052H18.9442V17.3343Z" fill="#39D59B"/>
</svg>
