<svg width="130" height="60" viewBox="0 0 130 60" fill="none" xmlns="http://www.w3.org/2000/svg">
<path d="M57.7465 58.1452L57.6762 57.1476L57.7465 58.1452ZM129.314 6.75772L119.755 0.280675L118.925 11.7978L129.314 6.75772ZM1.37119 37.1854C22.4462 21.477 43.3266 26.334 55.4645 35.307C61.5797 39.8278 65.3233 45.2769 65.9189 49.5336C66.2109 51.6201 65.7447 53.3519 64.521 54.6286C63.2736 55.93 61.0979 56.9067 57.6762 57.1476L57.8167 59.1427C61.5197 58.882 64.2498 57.8018 65.9648 56.0125C67.7035 54.1986 68.2564 51.8062 67.8996 49.2565C67.1979 44.241 62.9731 38.3707 56.6534 33.6988C43.9215 24.2866 22.0661 19.266 0.175962 35.5819L1.37119 37.1854ZM57.6762 57.1476C50.9243 57.623 45.6015 54.4855 42.7826 49.628C39.9572 44.7593 39.5984 38.0676 43.0295 31.3861C49.8918 18.0226 72.119 4.5135 120.285 7.10974L120.393 5.11263C72.0013 2.50425 48.674 16.0159 41.2503 30.4725C37.5384 37.701 37.8537 45.1191 41.0528 50.6318C44.2583 56.1557 50.3103 59.6712 57.8167 59.1427L57.6762 57.1476Z" fill="#DEDAE4"/>
</svg>
