<svg width="31" height="31" viewBox="0 0 31 31" fill="none" xmlns="http://www.w3.org/2000/svg">
<circle cx="9.43677" cy="14.1892" r="9" fill="#FFE0DF"/>
<g clip-path="url(#clip0_104_559)">
<path fill-rule="evenodd" clip-rule="evenodd" d="M23.9836 14.764V10.764H9.98364C8.88364 10.764 7.98364 11.664 7.98364 12.764V23.764H9.98364C9.98364 25.424 11.3236 26.764 12.9836 26.764C14.6436 26.764 15.9836 25.424 15.9836 23.764H21.9836C21.9836 25.424 23.3236 26.764 24.9836 26.764C26.6436 26.764 27.9836 25.424 27.9836 23.764H29.9836V18.764L26.9836 14.764H23.9836ZM12.9836 24.764C12.4336 24.764 11.9836 24.314 11.9836 23.764C11.9836 23.214 12.4336 22.764 12.9836 22.764C13.5336 22.764 13.9836 23.214 13.9836 23.764C13.9836 24.314 13.5336 24.764 12.9836 24.764ZM21.9836 21.764H15.2036C14.6536 21.154 13.8736 20.764 12.9836 20.764C12.0936 20.764 11.3136 21.154 10.7636 21.764H9.98364V12.764H21.9836V21.764ZM24.9836 24.764C24.4336 24.764 23.9836 24.314 23.9836 23.764C23.9836 23.214 24.4336 22.764 24.9836 22.764C25.5336 22.764 25.9836 23.214 25.9836 23.764C25.9836 24.314 25.5336 24.764 24.9836 24.764ZM23.9836 18.764V16.264H26.4836L28.4436 18.764H23.9836Z" fill="#FE6661"/>
<rect x="13.2437" y="15.0093" width="5.73999" height="1.75" fill="#FE6661"/>
<rect x="14.6761" y="17.889" width="2.875" height="1.75" fill="#FE6661"/>
</g>
<defs>
<clipPath id="clip0_104_559">
<rect width="22" height="16" fill="white" transform="translate(7.98364 10.764)"/>
</clipPath>
</defs>
</svg>
