<svg width="25" height="25" viewBox="0 0 25 25" fill="none" xmlns="http://www.w3.org/2000/svg">
<path d="M21.2216 3.80761C23.219 5.82042 24.5188 8.34974 24.9891 11.1293C25.0578 11.5181 24.7936 11.8908 24.4079 11.9494C24.4036 11.9499 24.3994 11.9504 24.3952 11.951C24.3581 11.9557 24.3244 11.96 24.2863 11.96C23.9429 11.96 23.6417 11.7151 23.5836 11.3636C23.1661 8.88223 22.0036 6.61915 20.2176 4.81934C18.4316 3.02485 16.1859 1.84805 13.7235 1.42738C13.3325 1.35816 13.0736 0.99074 13.137 0.596698C13.2057 0.207981 13.5703 -0.0582642 13.956 0.0109594C16.7143 0.484875 19.2242 1.7948 21.2216 3.80761Z" fill="#6B9CFF"/>
<path fill-rule="evenodd" clip-rule="evenodd" d="M21.0523 23.6794C20.2491 24.558 19.224 25 18.0034 25C17.8977 25 17.7815 24.9947 17.6705 24.9893C15.8581 24.8722 14.2359 24.1853 13.0205 23.6049C9.83952 22.0553 7.05482 19.8562 4.74041 17.0712C2.83286 14.7602 1.55412 12.6036 0.698103 10.2767C0.349355 9.32884 -0.105074 7.88047 0.0217431 6.3256C0.106288 5.36179 0.492024 4.53111 1.16838 3.84952L2.96496 2.02309L2.97553 2.01244C3.50394 1.50125 4.12746 1.22968 4.77211 1.22968C5.41677 1.22968 6.02972 1.50125 6.54227 2.01244C6.88573 2.33193 7.21863 2.67272 7.53567 3.00287C7.69419 3.17326 7.86328 3.34366 8.02709 3.50873L9.46964 4.96243C10.5793 6.08065 10.5793 7.52903 9.46964 8.64725C9.39565 8.72181 9.32166 8.7977 9.24768 8.87359C9.17371 8.94946 9.09974 9.02533 9.02578 9.09987L8.9123 9.21586C8.55698 9.57922 8.19137 9.9531 7.79988 10.3139C8.1222 11.0328 8.56606 11.741 9.22657 12.5823C10.5899 14.2703 12.0113 15.5749 13.5754 16.576C13.7286 16.6719 13.9082 16.7624 14.0985 16.8582C14.143 16.8816 14.1881 16.9049 14.2336 16.9284L14.2345 16.9289C14.3238 16.975 14.4146 17.022 14.5053 17.0712L16.1751 15.3939C16.7088 14.8561 17.3323 14.5739 17.9823 14.5739C18.6375 14.5739 19.2557 14.8614 19.7683 15.3992L22.6692 18.3332C23.2029 18.8657 23.483 19.4994 23.483 20.1597C23.483 20.8146 23.2082 21.4536 22.6851 22.0021C22.4579 22.2417 22.2254 22.4707 21.9981 22.689L21.9244 22.7609C21.6185 23.059 21.3278 23.3422 21.0734 23.6528C21.0708 23.6581 21.0668 23.6621 21.0629 23.6661C21.0589 23.6701 21.0549 23.6741 21.0523 23.6794ZM18.7727 16.3835L18.7548 16.3651C18.4648 16.0608 18.198 15.9739 17.9823 15.9739C17.7661 15.9739 17.4857 16.0608 17.1689 16.38L17.1673 16.3816L15.4975 18.0589C15.0593 18.4991 14.3835 18.598 13.8376 18.3018C13.7579 18.2585 13.6886 18.2227 13.6087 18.1814C13.5635 18.1581 13.5147 18.1329 13.4589 18.1037L13.4451 18.0967C13.2722 18.0096 13.0421 17.8938 12.8329 17.763L12.8206 17.7552C11.1107 16.6607 9.58005 15.2482 8.13743 13.462L8.12538 13.4469C7.41624 12.5436 6.90391 11.7376 6.52242 10.8867C6.27617 10.3375 6.40849 9.69242 6.85105 9.28451C7.21428 8.94972 7.55441 8.60197 7.9135 8.23482L8.032 8.11371C8.10088 8.0443 8.17054 7.97291 8.24527 7.89626L8.2472 7.89428C8.31986 7.81975 8.39752 7.7401 8.47589 7.66112C8.81369 7.32071 8.90188 7.01994 8.90188 6.80484C8.90188 6.58974 8.81369 6.28898 8.47589 5.94856L7.02635 4.48783C6.86947 4.32973 6.6901 4.14898 6.51849 3.96487C6.2073 3.64093 5.8994 3.32649 5.58874 3.03751C5.57684 3.02645 5.56514 3.01518 5.55364 3.00371C5.26746 2.71829 4.9981 2.62968 4.77211 2.62968C4.54458 2.62968 4.26163 2.71994 3.95836 3.0096L2.16214 4.83567C1.71801 5.28324 1.4735 5.80667 1.41675 6.44381C1.31691 7.68132 1.6796 8.88987 2.01199 9.79323C2.80387 11.9459 3.99348 13.9667 5.81863 16.1782C8.00802 18.8122 10.6338 20.8841 13.6288 22.3439C14.8071 22.9064 16.2227 23.4905 17.7497 23.5915C17.8589 23.5967 17.9388 23.6 18.0034 23.6C18.829 23.6 19.4659 23.3239 19.989 22.7672L19.993 22.7624C20.2993 22.389 20.6444 22.0531 20.9395 21.7658L21.0281 21.6795C21.2475 21.4686 21.4629 21.2563 21.6692 21.0388L21.672 21.0358C21.9857 20.7069 22.083 20.4021 22.083 20.1597C22.083 19.9204 21.9878 19.6311 21.6804 19.3243L21.6736 19.3176L18.7727 16.3835Z" fill="#6B9CFF"/>
<path d="M13.512 6.00149C14.8964 6.23579 16.154 6.89607 17.158 7.9078C18.1619 8.91953 18.8119 10.1869 19.0497 11.582C19.1078 11.9334 19.409 12.1784 19.7524 12.1784C19.7905 12.1784 19.8242 12.1741 19.8613 12.1693L19.874 12.1677C20.265 12.1038 20.5239 11.7311 20.4605 11.337C20.1752 9.64904 19.3826 8.11015 18.1725 6.89075C16.9625 5.67135 15.4354 4.87261 13.7603 4.58507C13.3693 4.52117 13.0047 4.78209 12.936 5.17081C12.8673 5.55953 13.121 5.93759 13.512 6.00149Z" fill="#6B9CFF"/>
</svg>
