<svg width="26" height="30" viewBox="0 0 26 30" fill="none" xmlns="http://www.w3.org/2000/svg">
<path d="M24.9337 4.85777L13.4494 0.0895825C13.1617 -0.0298315 12.8383 -0.0298901 12.5506 0.0895825L1.06627 4.85777C0.628867 5.03941 0.34375 5.46644 0.34375 5.94005V11.7364C0.34375 19.7177 5.16772 26.897 12.5571 29.9131C12.841 30.0289 13.159 30.0289 13.4429 29.9131C20.8322 26.897 25.6562 19.7177 25.6562 11.7364V5.94005C25.6562 5.46644 25.3712 5.03941 24.9337 4.85777ZM23.3125 11.7364C23.3125 18.5213 19.3281 24.7672 13 27.5552C6.84098 24.8417 2.6875 18.7052 2.6875 11.7364V6.72239L13 2.44072L23.3125 6.72239V11.7364ZM11.7047 15.6865L16.7417 10.6496C17.1993 10.192 17.9413 10.1919 18.3989 10.6496C18.8566 11.1073 18.8566 11.8492 18.3989 12.3068L12.5334 18.1724C12.0756 18.6301 11.3337 18.6299 10.8761 18.1724L7.60105 14.8973C7.14338 14.4397 7.14338 13.6977 7.60105 13.2401C8.05873 12.7825 8.8007 12.7824 9.25832 13.2401L11.7047 15.6865Z" fill="#57CDB9"/>
</svg>
