<svg width="21" height="21" viewBox="0 0 21 21" fill="none" xmlns="http://www.w3.org/2000/svg">
<path d="M16.5364 2.60413H5.92811C5.34326 2.60432 4.777 2.80955 4.32784 3.18411C3.87868 3.55866 3.57504 4.07884 3.46977 4.65413L2.41144 10.4875C2.3455 10.8478 2.35956 11.2183 2.45263 11.5726C2.54571 11.9269 2.71552 12.2565 2.95005 12.5379C3.18458 12.8194 3.4781 13.0458 3.80984 13.2013C4.14158 13.3567 4.50342 13.4373 4.86977 13.4375H8.66977L8.20311 14.6291C8.009 15.1509 7.94435 15.712 8.01472 16.2642C8.08509 16.8164 8.28836 17.3434 8.60712 17.7998C8.92587 18.2562 9.35058 18.6285 9.84482 18.8847C10.3391 19.1409 10.8881 19.2734 11.4448 19.2708C11.6051 19.2705 11.7619 19.2239 11.8964 19.1367C12.0309 19.0495 12.1374 18.9253 12.2031 18.7791L14.5781 13.4375H16.5364C17.1995 13.4375 17.8354 13.1741 18.3042 12.7052C18.773 12.2364 19.0364 11.6005 19.0364 10.9375V5.10413C19.0364 4.44108 18.773 3.8052 18.3042 3.33636C17.8354 2.86752 17.1995 2.60413 16.5364 2.60413ZM13.2031 12.4291L10.9364 17.5291C10.7045 17.459 10.4894 17.342 10.3044 17.1856C10.1194 17.0291 9.96833 16.8365 9.86059 16.6194C9.75285 16.4024 9.69069 16.1656 9.67794 15.9236C9.66519 15.6816 9.70211 15.4396 9.78644 15.2125L10.2281 14.0208C10.3222 13.7689 10.354 13.498 10.3207 13.2312C10.2874 12.9644 10.1901 12.7096 10.037 12.4885C9.8839 12.2675 9.67959 12.0867 9.44152 11.9618C9.20344 11.8368 8.93866 11.7713 8.66977 11.7708H4.86977C4.74735 11.771 4.62638 11.7442 4.51548 11.6924C4.40457 11.6405 4.30646 11.5649 4.22811 11.4708C4.14783 11.378 4.08902 11.2687 4.05589 11.1505C4.02276 11.0324 4.01612 10.9084 4.03644 10.7875L5.09477 4.95413C5.13027 4.75999 5.23351 4.58476 5.38612 4.45963C5.53872 4.33449 5.73078 4.26757 5.92811 4.27079H13.2031V12.4291ZM17.3698 10.9375C17.3698 11.1585 17.282 11.3704 17.1257 11.5267C16.9694 11.683 16.7575 11.7708 16.5364 11.7708H14.8698V4.27079H16.5364C16.7575 4.27079 16.9694 4.35859 17.1257 4.51487C17.282 4.67115 17.3698 4.88311 17.3698 5.10413V10.9375Z" fill="#231D4F"/>
</svg>
