<svg width="21" height="21" viewBox="0 0 21 21" fill="none" xmlns="http://www.w3.org/2000/svg">
<path d="M16.5339 2.45093H4.86719C4.20415 2.45093 3.56826 2.71432 3.09942 3.18316C2.63058 3.652 2.36719 4.28789 2.36719 4.95093V16.6176C2.36719 17.2806 2.63058 17.9165 3.09942 18.3854C3.56826 18.8542 4.20415 19.1176 4.86719 19.1176H16.5339C17.1969 19.1176 17.8328 18.8542 18.3016 18.3854C18.7705 17.9165 19.0339 17.2806 19.0339 16.6176V4.95093C19.0339 4.28789 18.7705 3.652 18.3016 3.18316C17.8328 2.71432 17.1969 2.45093 16.5339 2.45093ZM17.3672 16.6176C17.3672 16.8386 17.2794 17.0506 17.1231 17.2069C16.9668 17.3631 16.7549 17.4509 16.5339 17.4509H4.86719C4.64617 17.4509 4.43421 17.3631 4.27793 17.2069C4.12165 17.0506 4.03385 16.8386 4.03385 16.6176V4.95093C4.03385 4.72991 4.12165 4.51795 4.27793 4.36167C4.43421 4.20539 4.64617 4.11759 4.86719 4.11759H16.5339C16.7549 4.11759 16.9668 4.20539 17.1231 4.36167C17.2794 4.51795 17.3672 4.72991 17.3672 4.95093V16.6176Z" fill="#231D4F"/>
<path d="M12.5438 10.7184C12.3419 10.7974 12.0961 10.8896 11.8064 10.995H14.2951C14.3916 10.995 14.4706 11.0257 14.5321 11.0871C14.5935 11.1486 14.6243 11.2276 14.6243 11.3242V11.8377C14.6243 11.9255 14.5935 12.0045 14.5321 12.0747C14.4706 12.1362 14.3916 12.1669 14.2951 12.1669H9.42306C9.33527 12.3073 9.29138 12.4741 9.29138 12.6672C9.29138 12.9745 9.4055 13.2115 9.63374 13.3783C9.86198 13.5451 10.1736 13.6285 10.5686 13.6285C11.4114 13.6285 11.96 13.3651 12.2146 12.8384C12.2936 12.7506 12.3638 12.6892 12.4253 12.6541C12.4867 12.619 12.5701 12.6014 12.6755 12.6014H14.3477C14.4267 12.6014 14.4926 12.6321 14.5453 12.6936C14.5979 12.7463 14.6243 12.8077 14.6243 12.8779C14.6155 13.352 14.4575 13.7909 14.1502 14.1947C13.8518 14.5897 13.4041 14.9101 12.8071 15.1559C12.2102 15.4017 11.4948 15.5246 10.6608 15.5246C9.99365 15.5246 9.39672 15.4105 8.87002 15.1823C8.35209 14.954 7.94389 14.6336 7.64543 14.221C7.34696 13.8084 7.19773 13.3344 7.19773 12.7989C7.19773 12.5619 7.22407 12.3512 7.27674 12.1669H7.10556C7.01777 12.1669 6.93877 12.1362 6.86854 12.0747C6.80709 12.0045 6.77637 11.9255 6.77637 11.8377V11.3242C6.77637 11.2276 6.80709 11.1486 6.86854 11.0871C6.93877 11.0257 7.01777 10.995 7.10556 10.995H8.2248C8.40037 10.8896 8.57594 10.7974 8.75151 10.7184H7.10556C7.01777 10.7184 6.93877 10.6877 6.86854 10.6263C6.80709 10.556 6.77637 10.477 6.77637 10.3893V9.87572C6.77637 9.77915 6.80709 9.70015 6.86854 9.6387C6.93877 9.57725 7.01777 9.54653 7.10556 9.54653H11.5825C11.7406 9.43241 11.8547 9.3139 11.9249 9.191C11.9951 9.0681 12.0302 8.92765 12.0302 8.76964C12.0302 8.49751 11.9425 8.28683 11.7669 8.13759C11.5913 7.98836 11.3455 7.91374 11.0295 7.91374C10.6433 7.91374 10.3272 7.98397 10.0814 8.12443C9.83564 8.2561 9.66885 8.43606 9.58107 8.6643C9.49328 8.81353 9.34844 8.88815 9.14654 8.88815H7.39524C7.31624 8.88815 7.2504 8.86181 7.19773 8.80914C7.14506 8.74769 7.11872 8.68185 7.11872 8.61163C7.11872 8.22538 7.27235 7.83474 7.57959 7.43971C7.89561 7.0359 8.35209 6.70233 8.94902 6.43897C9.54595 6.17562 10.2394 6.04395 11.0295 6.04395C11.6615 6.04395 12.2102 6.15806 12.6755 6.3863C13.1495 6.61454 13.5094 6.92617 13.7552 7.3212C14.001 7.71623 14.1239 8.16393 14.1239 8.6643C14.1239 9.01543 14.0668 9.30951 13.9527 9.54653H14.2951C14.3916 9.54653 14.4706 9.57725 14.5321 9.6387C14.5935 9.70015 14.6243 9.77915 14.6243 9.87572V10.3893C14.6243 10.477 14.5935 10.556 14.5321 10.6263C14.4706 10.6877 14.3916 10.7184 14.2951 10.7184H12.5438Z" fill="#231D4F"/>
</svg>
