<svg width="52" height="43" viewBox="0 0 52 43" fill="none" xmlns="http://www.w3.org/2000/svg">
<circle cx="37" cy="16" r="15" fill="#B2F0FB"/>
<circle cx="37" cy="16" r="15" stroke="#2F2C83"/>
<path fill-rule="evenodd" clip-rule="evenodd" d="M11.2146 0.93455C11.2146 0.5908 11.0259 0.2748 10.7232 0.111779C10.4206 -0.0512416 10.0529 -0.0349638 9.76586 0.154162L0.420374 6.31163C0.15795 6.48453 0 6.77775 0 7.09202V35.6108C0 35.9417 0.174933 36.2479 0.459948 36.4159L9.80543 41.9252C10.0944 42.0955 10.4524 42.098 10.7436 41.9316C11.0348 41.7652 11.2146 41.4555 11.2146 41.1201V0.93455ZM1.8691 35.0769V7.59543L9.34548 2.66946V39.4843L1.8691 35.0769ZM12.8925 6.54184C12.3764 6.54184 11.958 6.96025 11.958 7.47639C11.958 7.99253 12.3764 8.41094 12.8925 8.41094H20.5601V19.0025C20.5601 19.5186 20.9785 19.937 21.4946 19.937C22.0107 19.937 22.4292 19.5186 22.4292 19.0025V7.47639C22.4292 6.96025 22.0107 6.54184 21.4946 6.54184H12.8925ZM8.41093 19.0025C8.41093 18.4863 7.99252 18.0679 7.47639 18.0679C6.96025 18.0679 6.54184 18.4863 6.54184 19.0025V23.3637C6.54184 23.8798 6.96025 24.2983 7.47639 24.2983C7.99252 24.2983 8.41093 23.8798 8.41093 23.3637V19.0025Z" fill="#2F2C83"/>
<path fill-rule="evenodd" clip-rule="evenodd" d="M19.5014 17.7563C18.4691 17.7563 17.6323 18.5932 17.6323 19.6254V35.5128C17.6323 36.545 18.4691 37.3819 19.5014 37.3819H37.2578C38.2901 37.3819 39.1269 36.545 39.1269 35.5128V19.6254C39.1269 18.5932 38.2901 17.7563 37.2578 17.7563H19.5014ZM32.5851 19.6254H37.2578V35.5128H19.5014V34.5782H27.513C28.5453 34.5782 29.3821 33.7414 29.3821 32.7091V29.9574C29.3821 28.9251 28.5453 28.0883 27.513 28.0883H19.5014V19.6254H24.1444V23.9355C24.1444 25.3699 25.6934 26.2697 26.9394 25.5591L28.4357 24.7058L29.7546 25.4969C31.0004 26.2441 32.5851 25.3467 32.5851 23.894V19.6254ZM30.716 19.6254H26.0135V23.9355L27.5098 23.0822C28.0964 22.7477 28.8179 22.7556 29.3971 23.1029L30.716 23.894V19.6254ZM19.5014 29.9574V32.7091H27.513V29.9574H19.5014Z" fill="#2F2C83"/>
</svg>
