<svg width="23" height="23" viewBox="0 0 23 23" fill="none" xmlns="http://www.w3.org/2000/svg">
<path d="M19.7941 11.7842C19.551 11.7842 19.3178 11.8807 19.1459 12.0527C18.974 12.2246 18.8774 12.4577 18.8774 12.7008V18.2008C18.8774 18.4439 18.7809 18.6771 18.609 18.849C18.437 19.0209 18.2039 19.1175 17.9608 19.1175H5.12744C4.88433 19.1175 4.65117 19.0209 4.47926 18.849C4.30735 18.6771 4.21077 18.4439 4.21077 18.2008V5.3675C4.21077 5.12438 4.30735 4.89123 4.47926 4.71932C4.65117 4.54741 4.88433 4.45083 5.12744 4.45083H10.6274C10.8706 4.45083 11.1037 4.35425 11.2756 4.18235C11.4475 4.01044 11.5441 3.77728 11.5441 3.53416C11.5441 3.29105 11.4475 3.05789 11.2756 2.88598C11.1037 2.71407 10.8706 2.6175 10.6274 2.6175H5.12744C4.3981 2.6175 3.69862 2.90723 3.1829 3.42295C2.66717 3.93868 2.37744 4.63815 2.37744 5.3675V18.2008C2.37744 18.9302 2.66717 19.6297 3.1829 20.1454C3.69862 20.6611 4.3981 20.9508 5.12744 20.9508H17.9608C18.6901 20.9508 19.3896 20.6611 19.9053 20.1454C20.421 19.6297 20.7108 18.9302 20.7108 18.2008V12.7008C20.7108 12.4577 20.6142 12.2246 20.4423 12.0527C20.2704 11.8807 20.0372 11.7842 19.7941 11.7842ZM6.04411 12.4808V16.3675C6.04411 16.6106 6.14069 16.8438 6.31259 17.0157C6.4845 17.1876 6.71766 17.2842 6.96077 17.2842H10.8474C10.9681 17.2849 11.0877 17.2617 11.1994 17.2161C11.311 17.1705 11.4126 17.1033 11.4983 17.0183L17.8416 10.6658L20.4449 8.1175C20.5309 8.03228 20.5991 7.9309 20.6456 7.81919C20.6921 7.70749 20.7161 7.58768 20.7161 7.46666C20.7161 7.34565 20.6921 7.22584 20.6456 7.11414C20.5991 7.00243 20.5309 6.90105 20.4449 6.81583L16.5583 2.88333C16.4731 2.79741 16.3717 2.72922 16.26 2.68268C16.1483 2.63614 16.0285 2.61218 15.9074 2.61218C15.7864 2.61218 15.6666 2.63614 15.5549 2.68268C15.4432 2.72922 15.3418 2.79741 15.2566 2.88333L12.6716 5.4775L6.30994 11.83C6.22498 11.9157 6.15777 12.0172 6.11215 12.1289C6.06653 12.2406 6.04341 12.3602 6.04411 12.4808ZM15.9074 4.82666L18.5016 7.42083L17.1999 8.7225L14.6058 6.12833L15.9074 4.82666ZM7.87744 12.8567L13.3133 7.42083L15.9074 10.015L10.4716 15.4508H7.87744V12.8567Z" fill="#231D4F"/>
</svg>
