<svg width="21" height="21" viewBox="0 0 21 21" fill="none" xmlns="http://www.w3.org/2000/svg">
<path d="M17.8709 10.5576C17.6499 10.5576 17.438 10.6454 17.2817 10.8017C17.1254 10.958 17.0376 11.17 17.0376 11.391V16.391C17.0376 16.612 16.9498 16.824 16.7935 16.9802C16.6372 17.1365 16.4253 17.2243 16.2043 17.2243H4.5376C4.31658 17.2243 4.10462 17.1365 3.94834 16.9802C3.79206 16.824 3.70426 16.612 3.70426 16.391V4.72431C3.70426 4.5033 3.79206 4.29134 3.94834 4.13506C4.10462 3.97878 4.31658 3.89098 4.5376 3.89098H9.5376C9.75861 3.89098 9.97057 3.80318 10.1269 3.6469C10.2831 3.49062 10.3709 3.27866 10.3709 3.05765C10.3709 2.83663 10.2831 2.62467 10.1269 2.46839C9.97057 2.31211 9.75861 2.22431 9.5376 2.22431H4.5376C3.87456 2.22431 3.23867 2.48771 2.76983 2.95655C2.30099 3.42539 2.0376 4.06127 2.0376 4.72431V16.391C2.0376 17.054 2.30099 17.6899 2.76983 18.1587C3.23867 18.6276 3.87456 18.891 4.5376 18.891H16.2043C16.8673 18.891 17.5032 18.6276 17.972 18.1587C18.4409 17.6899 18.7043 17.054 18.7043 16.391V11.391C18.7043 11.17 18.6165 10.958 18.4602 10.8017C18.3039 10.6454 18.0919 10.5576 17.8709 10.5576ZM5.37093 11.191V14.7243C5.37093 14.9453 5.45873 15.1573 5.61501 15.3136C5.77129 15.4699 5.98325 15.5576 6.20426 15.5576H9.7376C9.84727 15.5583 9.95599 15.5373 10.0575 15.4958C10.1591 15.4543 10.2514 15.3932 10.3293 15.316L16.0959 9.54098L18.4626 7.22431C18.5407 7.14685 18.6027 7.05468 18.645 6.95313C18.6873 6.85158 18.7091 6.74266 18.7091 6.63265C18.7091 6.52264 18.6873 6.41372 18.645 6.31217C18.6027 6.21062 18.5407 6.11845 18.4626 6.04098L14.9293 2.46598C14.8518 2.38787 14.7596 2.32588 14.6581 2.28357C14.5565 2.24126 14.4476 2.21948 14.3376 2.21948C14.2276 2.21948 14.1187 2.24126 14.0171 2.28357C13.9156 2.32588 13.8234 2.38787 13.7459 2.46598L11.3959 4.82431L5.6126 10.5993C5.53536 10.6772 5.47426 10.7695 5.43279 10.8711C5.39132 10.9726 5.3703 11.0813 5.37093 11.191ZM14.3376 4.23265L16.6959 6.59098L15.5126 7.77431L13.1543 5.41598L14.3376 4.23265ZM7.0376 11.5326L11.9793 6.59098L14.3376 8.94931L9.39593 13.891H7.0376V11.5326Z" fill="#231D4F"/>
</svg>
