<svg width="54" height="46" viewBox="0 0 54 46" fill="none" xmlns="http://www.w3.org/2000/svg">
<circle cx="38.75" cy="15" r="15" fill="#FFF69D"/>
<path d="M39.9684 14.5748C39.9684 14.5706 39.9679 14.5663 39.9678 14.562C39.9673 14.545 39.9663 14.5282 39.9643 14.5117C39.9636 14.5056 39.9624 14.4995 39.9615 14.4934C39.9592 14.4781 39.9564 14.463 39.9529 14.4483C39.9515 14.4424 39.95 14.4366 39.9484 14.4307C39.944 14.4147 39.939 14.3989 39.9332 14.3834C39.9321 14.3804 39.9315 14.3774 39.9303 14.3745L38.3818 10.4105C38.2257 10.0111 37.8477 9.75293 37.4188 9.75293H34.5994C34.2921 9.75293 34.0429 10.002 34.0429 10.3094C34.0429 10.6167 34.2921 10.8658 34.5994 10.8658H37.3649L38.5972 14.0205H26.9467L26.2168 10.8658H30.5195C30.8268 10.8658 31.0759 10.6167 31.0759 10.3094C31.0759 10.002 30.8268 9.75293 30.5195 9.75293H25.5168H19.91H8.00797C7.57901 9.75293 7.20104 10.0111 7.04494 10.4107L5.49648 14.3745C5.49534 14.3775 5.49473 14.3805 5.49359 14.3834C5.4878 14.3989 5.48278 14.4146 5.47836 14.4307C5.47677 14.4366 5.47524 14.4424 5.47387 14.4483C5.47037 14.4631 5.46756 14.4782 5.46527 14.4934C5.46436 14.4995 5.46322 14.5056 5.46246 14.5117C5.46055 14.5282 5.45949 14.545 5.45903 14.562C5.45896 14.5662 5.45842 14.5705 5.45835 14.5748C5.45835 14.5755 5.45827 14.5762 5.45827 14.5769V22.7519C5.45827 23.0592 5.70738 23.3083 6.01471 23.3083C6.32205 23.3083 6.57116 23.0592 6.57116 22.7519V15.1334H18.3661V23.5914C18.3661 23.9222 18.561 24.2236 18.8626 24.3593C18.973 24.409 19.0906 24.4332 19.2074 24.4332C19.4096 24.4332 19.6095 24.3606 19.7663 24.2217L22.7134 21.6108L25.6605 24.2216C25.9079 24.441 26.2627 24.495 26.5644 24.3593C26.8659 24.2235 27.0607 23.9222 27.0607 23.5914V15.1334H38.8556V40.0917C38.8556 40.491 38.5307 40.8159 38.1314 40.8159H27.9286C27.9286 40.8096 27.9279 40.8033 27.9278 40.797C27.9272 40.747 27.9254 40.6972 27.9211 40.6477C28.8791 40.9017 29.9027 40.4093 30.2866 39.4678C30.4885 38.9726 30.4856 38.4284 30.2782 37.9355C30.2586 37.8891 30.2371 37.844 30.2144 37.7997C30.2102 37.7915 30.2062 37.7833 30.202 37.7752C30.1797 37.7329 30.1559 37.6916 30.1309 37.6513C30.126 37.6435 30.121 37.6359 30.116 37.6281C30.0896 37.5868 30.0621 37.5462 30.0328 37.5072C30.0322 37.5064 30.0316 37.5057 30.0311 37.505C30.002 37.4664 29.9713 37.4293 29.9395 37.393C29.9338 37.3864 29.928 37.3797 29.9222 37.3731C29.8908 37.3381 29.8581 37.3042 29.8243 37.2715C29.8177 37.2651 29.811 37.259 29.8043 37.2527C29.7689 37.2195 29.7327 37.1871 29.6949 37.1566C29.6936 37.1556 29.6923 37.1546 29.691 37.1536C29.6539 37.1237 29.6153 37.0954 29.576 37.0682C29.5689 37.0632 29.5619 37.0582 29.5546 37.0533C29.5153 37.0268 29.475 37.0018 29.4336 36.978C29.4301 36.976 29.427 36.9737 29.4235 36.9717C29.6587 36.7682 29.8443 36.5107 29.9652 36.2143C30.1671 35.719 30.1641 35.1748 29.9567 34.6819C29.7753 34.2506 29.4563 33.9037 29.0478 33.6884C28.9894 33.6577 28.9292 33.6296 28.8673 33.6044L20.2069 30.0731L24.2382 28.8253C25.1973 28.5284 25.7374 27.5055 25.4423 26.5452C25.3321 26.1867 25.1138 25.8844 24.8317 25.6635C24.4119 25.3346 23.8509 25.1861 23.2946 25.303C23.2919 25.3036 23.2893 25.304 23.2867 25.3047C23.2558 25.3116 20.1654 26.0065 16.9378 26.6359C16.7947 26.6638 16.6552 26.6908 16.5176 26.7172C16.4076 26.7384 16.299 26.7593 16.1926 26.7795C16.162 26.7854 16.1313 26.7911 16.1009 26.7969C15.9129 26.8326 15.7308 26.8668 15.5538 26.8997C15.4825 26.9129 15.4119 26.926 15.3424 26.9388C11.289 27.6855 10.1503 27.6989 9.83431 27.6561C9.83309 27.656 9.83203 27.6558 9.83081 27.6556C9.82601 27.6549 9.82129 27.6542 9.81688 27.6535C9.81368 27.653 9.81072 27.6525 9.80775 27.652C9.80562 27.6516 9.80333 27.6513 9.80128 27.651C9.78157 27.6474 9.76619 27.6437 9.75432 27.6401L9.66314 27.6029L9.77677 27.3243C9.8885 27.0503 9.88683 26.7492 9.77213 26.4765C9.74343 26.4083 9.7085 26.3439 9.66801 26.2839C9.54654 26.1041 9.37476 25.9641 9.16926 25.8803L6.18056 24.6616C5.90664 24.5498 5.60547 24.5516 5.33276 24.6663C5.05998 24.781 4.84832 24.9951 4.73659 25.269L1.082 34.232C0.851388 34.7976 1.12394 35.4453 1.68952 35.676L4.67829 36.8946C4.81476 36.9503 4.95594 36.9766 5.095 36.9766C5.5321 36.9766 5.9472 36.7162 6.12218 36.2871L6.14966 36.2198L6.83876 36.5007C6.83914 36.5008 6.83952 36.5011 6.83998 36.5012C7.49909 36.77 8.10638 37.1534 8.632 37.6293C8.72759 37.7158 8.82044 37.8054 8.91048 37.8978C9.00052 37.9903 9.08759 38.0858 9.17169 38.1839C9.21371 38.233 9.25503 38.2829 9.29545 38.3333C10.0613 39.2884 11.0654 40.0375 12.1989 40.4998L12.9742 40.8158H7.29542C6.89615 40.8158 6.57123 40.4909 6.57123 40.0917V38.6837C6.57123 38.3764 6.32212 38.1272 6.01479 38.1272C5.70746 38.1272 5.45835 38.3764 5.45835 38.6837V40.0917C5.45835 41.1046 6.28239 41.9287 7.29542 41.9287H15.7036L22.8717 44.8515C23.1185 44.9521 23.3737 44.9999 23.6251 44.9998C24.4151 44.9998 25.1654 44.529 25.4816 43.7535C25.6113 43.4355 25.6529 43.103 25.618 42.7834C25.9909 42.8369 26.3774 42.7879 26.7278 42.6366C27.084 42.4827 27.3791 42.2377 27.5887 41.9286H38.1315C39.1445 41.9286 39.9686 41.1046 39.9686 40.0916V14.577C39.9685 14.5762 39.9684 14.5756 39.9684 14.5748ZM20.3524 10.8658H25.0744L25.8044 14.0205H19.6224L20.3524 10.8658ZM18.4801 14.0205H6.82955L8.06185 10.8658H19.2101L18.4801 14.0205ZM25.948 22.9894H25.9479L23.2717 20.6186C23.1126 20.4776 22.913 20.4072 22.7135 20.4072C22.514 20.4072 22.3144 20.4776 22.1552 20.6186L19.4791 22.9894V15.1334H25.948V22.9894ZM5.09363 35.8621L2.11444 34.6474L5.76515 25.6942L8.74433 26.909L5.09363 35.8621ZM27.3243 39.2202L26.6857 38.9597C26.6854 38.9596 26.6851 38.9595 26.6848 38.9594C26.6845 38.9593 26.6843 38.9591 26.6841 38.9591C26.684 38.9591 26.6839 38.959 26.6838 38.959L20.0329 36.2471C19.7484 36.1311 19.4236 36.2676 19.3075 36.5523C19.1915 36.8369 19.3281 37.1616 19.6127 37.2777L26.2639 39.9897C26.2916 40.001 26.3185 40.0136 26.3445 40.0273C26.3518 40.0312 26.3585 40.0359 26.3657 40.04C26.384 40.0503 26.4023 40.0607 26.4196 40.0722C26.4279 40.0777 26.4355 40.0841 26.4436 40.0899C26.4589 40.1009 26.4745 40.1117 26.4889 40.1235C26.4977 40.1307 26.5056 40.1387 26.514 40.1461C26.527 40.1576 26.5402 40.1687 26.5524 40.1809C26.5608 40.1893 26.5684 40.1985 26.5765 40.2072C26.5876 40.2192 26.5991 40.231 26.6096 40.2436C26.6176 40.2533 26.6246 40.2636 26.6322 40.2736C26.6418 40.286 26.6516 40.2983 26.6604 40.3112C26.6678 40.322 26.6741 40.3335 26.681 40.3445C26.6889 40.3573 26.6972 40.3698 26.7045 40.383C26.711 40.3949 26.7165 40.4073 26.7225 40.4194C26.7289 40.4324 26.7358 40.4452 26.7416 40.4585C26.7472 40.4713 26.7517 40.4845 26.7566 40.4975C26.7616 40.5107 26.7671 40.5237 26.7715 40.537C26.7759 40.5505 26.7793 40.5643 26.783 40.5779C26.7867 40.5914 26.7909 40.6046 26.7941 40.6183C26.7972 40.632 26.7991 40.646 26.8017 40.6599C26.8042 40.6737 26.8071 40.6874 26.8089 40.7014C26.8107 40.7154 26.8114 40.7296 26.8125 40.7437C26.8137 40.7578 26.8154 40.7719 26.8158 40.7861C26.8163 40.8 26.8156 40.8141 26.8154 40.8281C26.8153 40.8426 26.8155 40.857 26.8146 40.8716C26.8138 40.8853 26.8117 40.8991 26.8102 40.9129C26.8086 40.9277 26.8074 40.9426 26.8049 40.9573C26.8027 40.9709 26.7993 40.9843 26.7965 40.9979C26.7933 41.0129 26.7906 41.0279 26.7866 41.0428C26.7831 41.056 26.7784 41.0691 26.7742 41.0821C26.7695 41.0971 26.7651 41.112 26.7596 41.1267C26.7549 41.1368 26.7502 41.147 26.7459 41.1573C26.7449 41.1596 26.7444 41.1621 26.7434 41.1643C26.6565 41.3651 26.4961 41.5245 26.2865 41.615C26.0559 41.7145 25.7919 41.718 25.5621 41.6242L24.3836 41.1437C24.3782 41.1415 24.3726 41.14 24.3671 41.1379C24.3616 41.1354 24.3563 41.1325 24.3507 41.1303L18.9411 38.9245C18.6563 38.8085 18.3317 38.945 18.2157 39.2297C18.0997 39.5143 18.2363 39.839 18.5209 39.9551L23.9305 42.1609C23.9363 42.1632 23.9421 42.1649 23.948 42.167C23.9532 42.1693 23.9581 42.1721 23.9635 42.1743C24.4175 42.3594 24.6363 42.8794 24.4512 43.3334C24.266 43.7876 23.7463 44.0065 23.2921 43.8211L16.0239 40.8575C16.0236 40.8574 16.0233 40.8572 16.023 40.8571L12.6193 39.4692C12.0202 39.2249 11.4638 38.8858 10.9727 38.4687C10.678 38.2183 10.4068 37.94 10.1639 37.6371C9.9245 37.3387 9.66192 37.0603 9.3794 36.8045C8.75781 36.2418 8.0397 35.7884 7.26041 35.4706C7.26033 35.4706 7.26026 35.4705 7.26018 35.4705L6.57017 35.1892L7.94449 31.8187L9.24324 28.6335L9.33906 28.6726C9.42925 28.7094 9.55788 28.7616 9.90403 28.7747C10.3365 28.7942 11.0519 28.7491 12.3336 28.568C13.2055 28.4449 14.2749 28.2668 15.5233 28.0371C15.5541 28.0314 15.5846 28.0258 15.6156 28.0201C15.674 28.0093 15.733 27.9983 15.7922 27.9874C15.8383 27.9788 15.8845 27.9702 15.9312 27.9614C15.9843 27.9514 16.0377 27.9415 16.0914 27.9314C16.1484 27.9206 16.2061 27.9097 16.2641 27.8987C16.3105 27.8899 16.3569 27.8811 16.4038 27.8722C16.4745 27.8587 16.5464 27.845 16.6186 27.8311C16.6557 27.824 16.6925 27.817 16.7299 27.8098C16.8404 27.7885 16.9524 27.7669 17.0664 27.7447C20.2829 27.1191 23.3874 26.4228 23.5269 26.3914C23.5409 26.3885 23.5548 26.3868 23.5687 26.3848C23.9261 26.3319 24.2763 26.5386 24.3788 26.8721C24.4148 26.9893 24.419 27.1089 24.3963 27.2214C24.3465 27.469 24.1666 27.6826 23.9094 27.7622L18.3928 29.4696C18.1682 29.5392 18.0115 29.7422 18.0014 29.977C17.9912 30.2118 18.1296 30.4278 18.3472 30.5165L28.4474 34.6349C28.6674 34.7246 28.8392 34.8945 28.9313 35.1135C29.0234 35.3325 29.0248 35.5742 28.935 35.7941C28.8453 36.014 28.6754 36.1859 28.4565 36.278C28.347 36.324 28.2318 36.3472 28.1165 36.3479C28.1149 36.3479 28.1132 36.3477 28.1115 36.3477C28.0844 36.3477 28.0574 36.3466 28.0304 36.3441C28.0224 36.3434 28.0145 36.3417 28.0065 36.3408C27.9859 36.3383 27.9652 36.3359 27.9448 36.332C27.9318 36.3294 27.919 36.3256 27.9062 36.3226C27.8908 36.3189 27.8753 36.3158 27.8601 36.3113C27.8444 36.3067 27.8289 36.3005 27.8134 36.295C27.8011 36.2905 27.7885 36.2869 27.7763 36.2819L21.1246 33.5697C20.84 33.4536 20.5153 33.5902 20.3993 33.8749C20.2832 34.1595 20.4198 34.4842 20.7045 34.6003L28.7687 37.8885C28.8238 37.9109 28.8757 37.9383 28.9242 37.9703C29.0697 38.0662 29.1836 38.2028 29.2526 38.3671C29.3332 38.5586 29.3444 38.7676 29.2857 38.9642C29.2774 38.9923 29.2676 39.0202 29.2564 39.0476C29.2448 39.076 29.2319 39.1035 29.2179 39.13C29.1851 39.1916 29.1451 39.2474 29.1005 39.2981C29.0728 39.3296 29.0432 39.359 29.0117 39.386C29.0067 39.3902 29.0021 39.3951 28.997 39.3992C28.7939 39.5653 28.5224 39.6367 28.2572 39.5831C28.2034 39.5722 28.1499 39.5567 28.0972 39.5353L27.3243 39.2202Z" fill="#2F2C83" stroke="#2F2C83" stroke-width="0.5"/>
</svg>
