<svg width="29" height="29" viewBox="0 0 29 29" fill="none" xmlns="http://www.w3.org/2000/svg">
<path d="M14.4449 29.0011C14.2712 29.0011 14.0977 28.9613 13.9382 28.8816C13.8056 28.8153 10.6553 27.218 7.35919 23.6351C5.42714 21.5353 3.84026 19.1807 2.64235 16.6368C1.14618 13.4595 0.258261 9.98086 0.00270495 6.29753C-0.0180936 5.99706 0.0816951 5.70079 0.279724 5.474C0.477974 5.2472 0.75809 5.10847 1.05878 5.08878C3.13355 4.95248 4.75893 3.21492 4.75893 1.13286C4.75893 0.50713 5.26606 0 5.89179 0H23.1112C23.7367 0 24.2441 0.50713 24.2441 1.13286C24.2441 3.21359 25.8683 4.95116 27.942 5.08878C28.2473 5.10892 28.5314 5.25185 28.7297 5.48484C28.9282 5.71783 29.0237 6.02117 28.995 6.32585C28.6075 10.4156 27.4782 14.2408 25.6382 17.6953C25.3439 18.2476 24.6578 18.4567 24.1058 18.1627C23.5535 17.8686 23.3444 17.1825 23.6385 16.6302C25.1798 13.7365 26.1814 10.5548 26.622 7.15868C24.3023 6.54711 22.5202 4.62878 22.0821 2.26571H6.92087C6.48101 4.63896 4.68592 6.56326 2.35183 7.1662C2.94725 12.8814 5.16871 17.8783 8.96333 22.0323C11.2348 24.5186 13.4618 25.9856 14.4384 26.5661C15.5071 25.9161 18.0917 24.1692 20.6079 21.1404C21.0077 20.6589 21.7217 20.593 22.2031 20.9928C22.6844 21.3926 22.7505 22.1068 22.3507 22.5881C18.7698 26.8987 15.1148 28.798 14.9608 28.8768C14.7989 28.9597 14.6219 29.0011 14.4449 29.0011Z" fill="#F44336"/>
<path d="M14.5008 5.09766L16.7553 9.47142L21.6117 10.264L18.1487 13.7598L18.8956 18.6234L14.5008 16.4101L10.106 18.6234L10.8529 13.7598L7.38987 10.264L12.2463 9.47142L14.5008 5.09766Z" stroke="#F44336" stroke-width="2" stroke-linejoin="round"/>
</svg>
