<svg width="66" height="57" viewBox="0 0 66 57" fill="none" xmlns="http://www.w3.org/2000/svg">
<ellipse cx="47.3156" cy="22.0652" rx="17.3664" ry="17.5896" fill="#B2F0FB"/>
<path fill-rule="evenodd" clip-rule="evenodd" d="M14.1425 19.4166C14.1425 18.2706 15.0715 17.3416 16.2175 17.3416H38.8392C38.7338 17.4643 38.6327 17.5933 38.5365 17.7284C38.1934 18.2102 38.009 18.7869 38.009 19.3784V28.0337C38.009 28.0418 38.0091 28.0499 38.0093 28.058L38.4607 45.2317C38.4555 45.2435 38.4498 45.256 38.4438 45.269C38.3879 45.39 38.3034 45.551 38.1899 45.7134C37.949 46.058 37.6664 46.2874 37.352 46.3381C37.1193 46.3756 37.0222 46.3224 36.9088 46.2001C36.7359 46.0135 36.5616 45.6705 36.3707 45.1155C36.2795 44.8503 36.1933 44.565 36.101 44.2562L36.0805 44.1874C35.9959 43.9042 35.9059 43.6028 35.8081 43.3068C35.6 42.6772 35.33 41.9849 34.9148 41.4117C34.4291 40.7411 33.6761 40.2088 32.6182 40.2088C31.6769 40.2088 31.0486 40.7861 30.6735 41.388C30.3232 41.9502 30.1179 42.638 29.9909 43.2547H26.3758C25.865 43.2547 25.4508 43.6689 25.4508 44.1797C25.4508 44.6906 25.865 45.1047 26.3758 45.1047H29.7621C29.7492 45.3387 29.7439 45.5345 29.7419 45.6736C29.7408 45.744 29.7406 45.8001 29.7406 45.8396L29.7408 45.8862L29.7409 45.8918V45.8974L29.7409 46.4431C29.7407 49.2731 30.4106 52.0629 31.6958 54.5843L31.7943 54.7776C32.0263 55.2327 32.5833 55.4136 33.0385 55.1816C33.4936 54.9496 33.6745 54.3926 33.4425 53.9374L33.344 53.7441C32.1915 51.483 31.5908 48.9811 31.5909 46.4432L31.591 45.8919L31.5908 45.8783L31.5908 45.8781L31.5908 45.8779L31.5908 45.8776L31.5908 45.8773L31.5908 45.8703L31.5906 45.8373C31.5906 45.8071 31.5908 45.761 31.5916 45.7013C31.5934 45.5817 31.5981 45.4084 31.6097 45.1997C31.6331 44.7785 31.6837 44.2299 31.7899 43.692C31.8991 43.1389 32.053 42.6724 32.2436 42.3665C32.4244 42.0763 32.5466 42.0588 32.6182 42.0588C32.9662 42.0588 33.2041 42.2036 33.4166 42.4969C33.658 42.8303 33.8568 43.298 34.0515 43.8873C34.1405 44.1567 34.2232 44.4333 34.3093 44.7218L34.3285 44.7859C34.4199 45.0917 34.5161 45.4114 34.6213 45.7172C34.8233 46.3043 35.098 46.9679 35.552 47.4577C36.0657 48.0119 36.7738 48.3051 37.6463 48.1645C38.674 47.9989 39.337 47.3014 39.7062 46.7733C39.8978 46.4992 40.0344 46.2373 40.1234 46.0446C40.1683 45.9472 40.2023 45.8651 40.2259 45.8045C40.2377 45.7742 40.247 45.7491 40.2539 45.7301L40.2624 45.7061L40.2654 45.6976L40.2665 45.6943L40.267 45.6929L40.2672 45.6922C40.2673 45.6919 40.2674 45.6916 39.3904 45.3975L40.2674 45.6916C40.3018 45.5891 40.3179 45.4813 40.3151 45.3732L39.9626 31.9646C42.6639 34.9583 44.1227 38.906 43.9782 42.9887L43.7378 49.7809C43.7249 50.1433 43.6481 50.5006 43.5108 50.8362L42.0115 54.5016C41.8181 54.9745 42.0447 55.5146 42.5175 55.708C42.9903 55.9014 43.5304 55.6748 43.7238 55.202L45.2231 51.5366C45.443 50.999 45.566 50.4268 45.5866 49.8463L45.827 43.0542C46.0128 37.807 43.8304 32.7594 39.8926 29.3011L39.8836 28.9587H45.1809C46.5202 28.9587 47.6059 27.873 47.6059 26.5337V19.3786C47.6059 18.7869 47.4213 18.2099 47.078 17.7281C46.0457 16.2791 44.4601 15.5455 42.8677 15.5274V15.4916H16.2175C14.0498 15.4916 12.2925 17.2489 12.2925 19.4166V48.5263C12.2925 50.1417 13.602 51.4513 15.2175 51.4513H25.1142C25.625 51.4513 26.0392 51.0372 26.0392 50.5263C26.0392 50.0154 25.625 49.6013 25.1142 49.6013H15.2175C14.6238 49.6013 14.1425 49.12 14.1425 48.5263V19.4166ZM29.373 24.6688C28.8621 24.6688 28.448 25.0829 28.448 25.5938C28.448 26.1046 28.8621 26.5188 29.373 26.5188H35.1839C35.6947 26.5188 36.1089 26.1046 36.1089 25.5938C36.1089 25.0829 35.6947 24.6688 35.1839 24.6688H29.373ZM25.703 34.2096C25.1921 34.2096 24.778 34.6237 24.778 35.1346C24.778 35.6454 25.1921 36.0596 25.703 36.0596H35.1839C35.6947 36.0596 36.1089 35.6454 36.1089 35.1346C36.1089 34.6237 35.6947 34.2096 35.1839 34.2096H25.703ZM45.5713 18.8016C44.218 16.9021 41.3961 16.9022 40.0434 18.8016C39.9235 18.97 39.859 19.1716 39.859 19.3784V27.1087H45.1809C45.4985 27.1087 45.7559 26.8513 45.7559 26.5337V19.3786C45.7559 19.1718 45.6914 18.9701 45.5713 18.8016ZM38.5146 45.0998L38.5141 45.1014L38.5139 45.1019L38.5146 45.0998ZM17.0612 19.5082C16.5503 19.5082 16.1362 19.9223 16.1362 20.4332V25.6856C16.1362 26.1965 16.5503 26.6106 17.0612 26.6106H22.1249C22.6357 26.6106 23.0499 26.1965 23.0499 25.6856V20.4332C23.0499 19.9223 22.6357 19.5082 22.1249 19.5082H17.0612ZM17.9862 24.7606V21.3582H21.1999V24.7606H17.9862ZM16.1362 29.6403C16.1362 29.1295 16.5503 28.7153 17.0612 28.7153H22.1249C22.6357 28.7153 23.0499 29.1295 23.0499 29.6403V34.8927C23.0499 35.4036 22.6357 35.8177 22.1249 35.8177H17.0612C16.5503 35.8177 16.1362 35.4036 16.1362 34.8927V29.6403ZM17.9862 30.5653V33.9677H21.1999V30.5653H17.9862ZM17.0612 38.2314C16.5503 38.2314 16.1362 38.6456 16.1362 39.1564V44.4088C16.1362 44.9197 16.5503 45.3338 17.0612 45.3338H22.1249C22.6357 45.3338 23.0499 44.9197 23.0499 44.4088V39.1564C23.0499 38.6456 22.6357 38.2314 22.1249 38.2314H17.0612ZM17.9862 43.4838V40.0814H21.1999V43.4838H17.9862ZM27.3737 25.5938C27.3737 26.1412 26.9356 26.585 26.3951 26.585C25.8546 26.585 25.4164 26.1412 25.4164 25.5938C25.4164 25.0463 25.8546 24.6025 26.3951 24.6025C26.9356 24.6025 27.3737 25.0463 27.3737 25.5938ZM27.8629 51.3044C28.4034 51.3044 28.8416 50.8606 28.8416 50.3131C28.8416 49.7657 28.4034 49.3219 27.8629 49.3219C27.3224 49.3219 26.8842 49.7657 26.8842 50.3131C26.8842 50.8606 27.3224 51.3044 27.8629 51.3044Z" fill="#2F2C83"/>
</svg>
