<svg width="23" height="22" viewBox="0 0 23 22" fill="none" xmlns="http://www.w3.org/2000/svg">
<path d="M11.2612 12.8051C11.4755 12.8051 11.6849 12.744 11.8631 12.6296C12.0412 12.5151 12.1801 12.3524 12.2621 12.1621C12.3441 11.9717 12.3655 11.7623 12.3237 11.5602C12.2819 11.3582 12.1787 11.1726 12.0272 11.0269C11.8757 10.8812 11.6827 10.782 11.4725 10.7418C11.2624 10.7016 11.0446 10.7222 10.8466 10.8011C10.6487 10.8799 10.4795 11.0134 10.3604 11.1847C10.2414 11.356 10.1779 11.5574 10.1779 11.7634C10.1779 12.0397 10.292 12.3047 10.4952 12.5C10.6983 12.6954 10.9739 12.8051 11.2612 12.8051ZM16.6779 12.8051C16.8921 12.8051 17.1016 12.744 17.2797 12.6296C17.4579 12.5151 17.5967 12.3524 17.6787 12.1621C17.7607 11.9717 17.7822 11.7623 17.7404 11.5602C17.6986 11.3582 17.5954 11.1726 17.4439 11.0269C17.2924 10.8812 17.0994 10.782 16.8892 10.7418C16.6791 10.7016 16.4612 10.7222 16.2633 10.8011C16.0653 10.8799 15.8961 11.0134 15.7771 11.1847C15.6581 11.356 15.5945 11.5574 15.5945 11.7634C15.5945 12.0397 15.7087 12.3047 15.9118 12.5C16.115 12.6954 16.3905 12.8051 16.6779 12.8051ZM11.2612 16.9718C11.4755 16.9718 11.6849 16.9107 11.8631 16.7962C12.0412 16.6818 12.1801 16.5191 12.2621 16.3287C12.3441 16.1384 12.3655 15.929 12.3237 15.7269C12.2819 15.5248 12.1787 15.3392 12.0272 15.1935C11.8757 15.0479 11.6827 14.9487 11.4725 14.9085C11.2624 14.8683 11.0446 14.8889 10.8466 14.9677C10.6487 15.0466 10.4795 15.1801 10.3604 15.3514C10.2414 15.5227 10.1779 15.7241 10.1779 15.9301C10.1779 16.2064 10.292 16.4713 10.4952 16.6667C10.6983 16.862 10.9739 16.9718 11.2612 16.9718ZM16.6779 16.9718C16.8921 16.9718 17.1016 16.9107 17.2797 16.7962C17.4579 16.6818 17.5967 16.5191 17.6787 16.3287C17.7607 16.1384 17.7822 15.929 17.7404 15.7269C17.6986 15.5248 17.5954 15.3392 17.4439 15.1935C17.2924 15.0479 17.0994 14.9487 16.8892 14.9085C16.6791 14.8683 16.4612 14.8889 16.2633 14.9677C16.0653 15.0466 15.8961 15.1801 15.7771 15.3514C15.6581 15.5227 15.5945 15.7241 15.5945 15.9301C15.5945 16.2064 15.7087 16.4713 15.9118 16.6667C16.115 16.862 16.3905 16.9718 16.6779 16.9718ZM5.84452 12.8051C6.05879 12.8051 6.26824 12.744 6.44639 12.6296C6.62454 12.5151 6.7634 12.3524 6.84539 12.1621C6.92739 11.9717 6.94884 11.7623 6.90704 11.5602C6.86524 11.3582 6.76206 11.1726 6.61056 11.0269C6.45905 10.8812 6.26602 10.782 6.05587 10.7418C5.84573 10.7016 5.6279 10.7222 5.42995 10.8011C5.232 10.8799 5.0628 11.0134 4.94376 11.1847C4.82473 11.356 4.76119 11.5574 4.76119 11.7634C4.76119 12.0397 4.87533 12.3047 5.07849 12.5C5.28166 12.6954 5.55721 12.8051 5.84452 12.8051ZM18.8445 2.38845H17.7612V1.34678C17.7612 1.07051 17.6471 0.805562 17.4439 0.610212C17.2407 0.414861 16.9652 0.305115 16.6779 0.305115C16.3905 0.305115 16.115 0.414861 15.9118 0.610212C15.7087 0.805562 15.5945 1.07051 15.5945 1.34678V2.38845H6.92786V1.34678C6.92786 1.07051 6.81372 0.805562 6.61056 0.610212C6.40739 0.414861 6.13184 0.305115 5.84452 0.305115C5.55721 0.305115 5.28166 0.414861 5.07849 0.610212C4.87533 0.805562 4.76119 1.07051 4.76119 1.34678V2.38845H3.67786C2.8159 2.38845 1.98925 2.71769 1.37976 3.30374C0.770266 3.88979 0.427856 4.68465 0.427856 5.51345V18.0134C0.427856 18.8423 0.770266 19.6371 1.37976 20.2232C1.98925 20.8092 2.8159 21.1384 3.67786 21.1385H18.8445C19.7065 21.1384 20.5331 20.8092 21.1426 20.2232C21.7521 19.6371 22.0945 18.8423 22.0945 18.0134V5.51345C22.0945 4.68465 21.7521 3.88979 21.1426 3.30374C20.5331 2.71769 19.7065 2.38845 18.8445 2.38845ZM19.9279 18.0134C19.9279 18.2897 19.8137 18.5547 19.6106 18.75C19.4074 18.9454 19.1318 19.0551 18.8445 19.0551H3.67786C3.39054 19.0551 3.11499 18.9454 2.91182 18.75C2.70866 18.5547 2.59452 18.2897 2.59452 18.0134V8.63845H19.9279V18.0134ZM19.9279 6.55512H2.59452V5.51345C2.59452 5.23718 2.70866 4.97223 2.91182 4.77688C3.11499 4.58153 3.39054 4.47178 3.67786 4.47178H18.8445C19.1318 4.47178 19.4074 4.58153 19.6106 4.77688C19.8137 4.97223 19.9279 5.23718 19.9279 5.51345V6.55512ZM5.84452 16.9718C6.05879 16.9718 6.26824 16.9107 6.44639 16.7962C6.62454 16.6818 6.7634 16.5191 6.84539 16.3287C6.92739 16.1384 6.94884 15.929 6.90704 15.7269C6.86524 15.5248 6.76206 15.3392 6.61056 15.1935C6.45905 15.0479 6.26602 14.9487 6.05587 14.9085C5.84573 14.8683 5.6279 14.8889 5.42995 14.9677C5.232 15.0466 5.0628 15.1801 4.94376 15.3514C4.82473 15.5227 4.76119 15.7241 4.76119 15.9301C4.76119 16.2064 4.87533 16.4713 5.07849 16.6667C5.28166 16.862 5.55721 16.9718 5.84452 16.9718Z" fill="#5E6282"/>
</svg>
