<svg width="23" height="23" viewBox="0 0 23 23" fill="none" xmlns="http://www.w3.org/2000/svg">
<path d="M14.45 13.1176H8.95003C8.70692 13.1176 8.47376 13.2141 8.30185 13.386C8.12994 13.5579 8.03337 13.7911 8.03337 14.0342C8.03337 14.2773 8.12994 14.5105 8.30185 14.6824C8.47376 14.8543 8.70692 14.9509 8.95003 14.9509H14.45C14.6931 14.9509 14.9263 14.8543 15.0982 14.6824C15.2701 14.5105 15.3667 14.2773 15.3667 14.0342C15.3667 13.7911 15.2701 13.5579 15.0982 13.386C14.9263 13.2141 14.6931 13.1176 14.45 13.1176ZM14.45 9.45089H10.7834C10.5403 9.45089 10.3071 9.54746 10.1352 9.71937C9.96328 9.89128 9.8667 10.1244 9.8667 10.3676C9.8667 10.6107 9.96328 10.8438 10.1352 11.0157C10.3071 11.1876 10.5403 11.2842 10.7834 11.2842H14.45C14.6931 11.2842 14.9263 11.1876 15.0982 11.0157C15.2701 10.8438 15.3667 10.6107 15.3667 10.3676C15.3667 10.1244 15.2701 9.89128 15.0982 9.71937C14.9263 9.54746 14.6931 9.45089 14.45 9.45089ZM16.2834 3.95089H15.2017C15.0126 3.41597 14.6626 2.95264 14.1998 2.62441C13.737 2.29619 13.1841 2.11915 12.6167 2.11755H10.7834C10.216 2.11915 9.66301 2.29619 9.20022 2.62441C8.73743 2.95264 8.38749 3.41597 8.19837 3.95089H7.1167C6.38735 3.95089 5.68788 4.24062 5.17216 4.75634C4.65643 5.27207 4.3667 5.97154 4.3667 6.70089V17.7009C4.3667 18.4302 4.65643 19.1297 5.17216 19.6454C5.68788 20.1612 6.38735 20.4509 7.1167 20.4509H16.2834C17.0127 20.4509 17.7122 20.1612 18.2279 19.6454C18.7436 19.1297 19.0334 18.4302 19.0334 17.7009V6.70089C19.0334 5.97154 18.7436 5.27207 18.2279 4.75634C17.7122 4.24062 17.0127 3.95089 16.2834 3.95089ZM9.8667 4.86755C9.8667 4.62444 9.96328 4.39128 10.1352 4.21937C10.3071 4.04746 10.5403 3.95089 10.7834 3.95089H12.6167C12.8598 3.95089 13.093 4.04746 13.2649 4.21937C13.4368 4.39128 13.5334 4.62444 13.5334 4.86755V5.78422H9.8667V4.86755ZM17.2 17.7009C17.2 17.944 17.1035 18.1772 16.9315 18.3491C16.7596 18.521 16.5265 18.6176 16.2834 18.6176H7.1167C6.87358 18.6176 6.64043 18.521 6.46852 18.3491C6.29661 18.1772 6.20003 17.944 6.20003 17.7009V6.70089C6.20003 6.45777 6.29661 6.22461 6.46852 6.05271C6.64043 5.8808 6.87358 5.78422 7.1167 5.78422H8.03337V6.70089C8.03337 6.944 8.12994 7.17716 8.30185 7.34907C8.47376 7.52098 8.70692 7.61755 8.95003 7.61755H14.45C14.6931 7.61755 14.9263 7.52098 15.0982 7.34907C15.2701 7.17716 15.3667 6.944 15.3667 6.70089V5.78422H16.2834C16.5265 5.78422 16.7596 5.8808 16.9315 6.05271C17.1035 6.22461 17.2 6.45777 17.2 6.70089V17.7009Z" fill="#231D4F"/>
</svg>
