<svg width="50" height="50" viewBox="0 0 50 50" fill="none" xmlns="http://www.w3.org/2000/svg">
<circle cx="15.4424" cy="15.3428" r="15" fill="#DBBFF8"/>
<path d="M44.87 27.0928L34.3725 21.009V5.83455C34.3725 5.63756 34.2925 5.44864 34.1501 5.30934C34.0077 5.17005 33.8146 5.0918 33.6132 5.0918H15.3911C15.1897 5.0918 14.9966 5.17005 14.8542 5.30934C14.7118 5.44864 14.6318 5.63756 14.6318 5.83455V42.9721C14.6318 43.1691 14.7118 43.358 14.8542 43.4973C14.9966 43.6366 15.1897 43.7149 15.3911 43.7149H27.584C27.7723 45.3479 28.5683 46.8561 29.8202 47.9519C31.0722 49.0478 32.6926 49.6546 34.3725 49.6569H48.0391C48.4418 49.6569 48.8281 49.5004 49.1129 49.2218C49.3976 48.9432 49.5576 48.5653 49.5576 48.1714V35.3106C49.5628 33.6625 49.1343 32.0407 48.3133 30.6015C47.4924 29.1623 46.3065 27.9539 44.87 27.0928ZM27.6106 30.3505C28.9795 29.6645 30.0717 28.5465 30.7101 27.1775C31.3485 25.8085 31.4957 24.2688 31.128 22.8078C30.7603 21.3467 29.8991 20.0499 28.6839 19.1274C27.4688 18.2049 25.9709 17.7107 24.4328 17.7249C22.8947 17.7391 21.4066 18.2609 20.2095 19.2057C19.0124 20.1504 18.1764 21.4629 17.8369 22.9305C17.4974 24.3981 17.6744 25.9349 18.3391 27.2918C19.0038 28.6487 20.1173 29.7464 21.4993 30.407C20.9591 31.1105 20.6939 31.9797 20.7516 32.8577C20.8092 33.7358 21.1859 34.5647 21.8136 35.1948L22.2912 35.7422C21.8847 36.1639 21.6134 36.693 21.5108 37.2639C21.4083 37.8349 21.479 38.4227 21.7142 38.9548C21.9494 39.4868 22.3388 39.9398 22.8343 40.2578C23.3297 40.5758 23.9096 40.7447 24.5022 40.7439C25.1073 40.7407 25.6975 40.5595 26.1961 40.2239L27.5392 41.7599V42.2294H19.8783C19.7192 41.3188 19.2752 40.4789 18.6074 39.8257C17.9397 39.1725 17.0812 38.7381 16.1503 38.5825V10.2242C17.0812 10.0686 17.9397 9.63419 18.6074 8.98097C19.2752 8.32774 19.7192 7.48789 19.8783 6.5773H29.126C29.2851 7.48789 29.7292 8.32774 30.3969 8.98097C31.0646 9.63419 31.9232 10.0686 32.854 10.2242V35.3463L27.6106 30.3505ZM22.8128 29.3196C21.6187 28.9286 20.6053 28.1356 19.9531 27.0818C19.301 26.0281 19.0525 24.782 19.2519 23.5657C19.4513 22.3494 20.0857 21.2419 21.0421 20.4405C21.9984 19.6391 23.2145 19.196 24.4737 19.19C25.7329 19.1839 26.9534 19.6155 27.9176 20.4077C28.8819 21.1999 29.5273 22.3013 29.7389 23.5157C29.9504 24.73 29.7144 25.9784 29.0728 27.0383C28.4312 28.0983 27.4257 28.9009 26.2355 29.3033C25.7066 29.0336 25.1185 28.8942 24.5221 28.897C23.9257 28.8999 23.339 29.0449 22.8128 29.3196ZM23.2927 36.8905L25.2052 39.0838C24.9018 39.2439 24.5515 39.2974 24.2126 39.2354C23.8738 39.1734 23.5669 38.9996 23.3432 38.743C23.1194 38.4864 22.9924 38.1626 22.9832 37.8255C22.974 37.4883 23.0832 37.1583 23.2927 36.8905ZM32.854 8.70008C32.3322 8.56661 31.8561 8.29961 31.4748 7.92653C31.0934 7.55345 30.8205 7.08775 30.684 6.5773H32.854V8.70008ZM18.3203 6.5773C18.1839 7.08775 17.9109 7.55345 17.5296 7.92653C17.1482 8.29961 16.6721 8.56661 16.1503 8.70008V6.5773H18.3203ZM16.1503 40.1066C16.6721 40.24 17.1482 40.507 17.5296 40.8801C17.9109 41.2532 18.1839 41.7189 18.3203 42.2294H16.1503V40.1066ZM48.0391 48.1714H34.3725C32.9634 48.1698 31.6125 47.6215 30.6161 46.6468C29.6198 45.6721 29.0593 44.3506 29.0577 42.9721V41.4866C29.0577 41.3099 28.9934 41.139 28.8762 41.0046L22.9282 34.1876C22.5018 33.7688 22.2623 33.2018 22.2623 32.6107C22.2623 32.0196 22.5018 31.4526 22.9282 31.0339C23.3635 30.6268 23.9429 30.4002 24.5451 30.4015C25.1473 30.4029 25.7256 30.6322 26.1589 31.0413L36.1188 40.5337L37.1817 39.4686L34.3725 36.7946V22.7359L44.0834 28.3637C45.2963 29.0926 46.2972 30.1145 46.99 31.3311C47.6827 32.5476 48.044 33.9181 48.0391 35.3106V48.1714Z" fill="#2F2C83"/>
<path d="M42.6052 29.3286L41.8057 30.5913C43.0187 31.3203 44.0197 32.3423 44.7124 33.559C45.4052 34.7757 45.7664 36.1463 45.7614 37.539H47.2799C47.2857 35.8932 46.8587 34.2736 46.0401 32.8358C45.2214 31.398 44.0386 30.1902 42.6052 29.3286Z" fill="#2F2C83"/>
<path d="M38.9277 17.7188H40.4463V19.2043H38.9277V17.7188Z" fill="#2F2C83"/>
<path d="M38.9277 10.291H40.4463V16.233H38.9277V10.291Z" fill="#2F2C83"/>
<path d="M35.8906 12.5195H37.4091V14.005H35.8906V12.5195Z" fill="#2F2C83"/>
<path d="M35.8906 5.0918H37.4091V11.0338H35.8906V5.0918Z" fill="#2F2C83"/>
<path d="M8.55762 29.6025H10.0761V31.088H8.55762V29.6025Z" fill="#2F2C83"/>
<path d="M8.55762 32.5737H10.0761V38.5157H8.55762V32.5737Z" fill="#2F2C83"/>
<path d="M11.5947 34.8018H13.1132V36.2873H11.5947V34.8018Z" fill="#2F2C83"/>
<path d="M11.5947 37.7729H13.1132V43.715H11.5947V37.7729Z" fill="#2F2C83"/>
<circle cx="24.5576" cy="12.0918" r="2.25" stroke="#2F2C83" stroke-width="1.5"/>
</svg>
