<svg width="50" height="50" viewBox="0 0 50 50" fill="none" xmlns="http://www.w3.org/2000/svg">
<circle cx="31.5" cy="17.2031" r="15" fill="#B3F0FB"/>
<path d="M13.3438 43.5781H20.375V44.9844H13.3438V43.5781Z" fill="#2F2C83"/>
<path d="M30.2188 24.02V7.71875C30.2176 6.78669 29.8469 5.89313 29.1878 5.23406C28.5287 4.575 27.6352 4.20424 26.7031 4.20312H7.01562C6.08357 4.20424 5.19 4.575 4.53094 5.23406C3.87187 5.89313 3.50112 6.78669 3.5 7.71875V44.2812C3.50112 45.2133 3.87187 46.1069 4.53094 46.7659C5.19 47.425 6.08357 47.7958 7.01562 47.7969H26.7031C27.6352 47.7958 28.5287 47.425 29.1878 46.7659C29.8469 46.1069 30.2176 45.2133 30.2188 44.2812V42.1719H30.9219C31.1084 42.1719 31.2872 42.0978 31.4191 41.9659C31.5509 41.8341 31.625 41.6552 31.625 41.4688V35.8438C31.625 35.6573 31.5509 35.4784 31.4191 35.3466C31.2872 35.2147 31.1084 35.1406 30.9219 35.1406H30.2188V33.9003L31.5547 31.2362C31.6021 31.1383 31.6262 31.0307 31.625 30.9219V26C31.6232 25.5653 31.4871 25.1417 31.2354 24.7873C30.9837 24.4329 30.6286 24.1649 30.2188 24.02ZM14.0469 5.60938H19.6719V6.3125C19.6719 6.49898 19.5978 6.67782 19.4659 6.80968C19.3341 6.94155 19.1552 7.01562 18.9688 7.01562H14.75C14.5635 7.01562 14.3847 6.94155 14.2528 6.80968C14.121 6.67782 14.0469 6.49898 14.0469 6.3125V5.60938ZM28.8125 44.2812C28.8125 44.8407 28.5903 45.3772 28.1947 45.7728C27.7991 46.1684 27.2626 46.3906 26.7031 46.3906H7.01562C6.45618 46.3906 5.91966 46.1684 5.52407 45.7728C5.12849 45.3772 4.90625 44.8407 4.90625 44.2812V7.71875C4.90625 7.15931 5.12849 6.62278 5.52407 6.2272C5.91966 5.83161 6.45618 5.60938 7.01562 5.60938H12.6406V6.3125C12.6406 6.87194 12.8629 7.40847 13.2584 7.80405C13.654 8.19964 14.1906 8.42188 14.75 8.42188H18.9688C19.5282 8.42188 20.0647 8.19964 20.4603 7.80405C20.8559 7.40847 21.0781 6.87194 21.0781 6.3125V5.60938H26.7031C27.2626 5.60938 27.7991 5.83161 28.1947 6.2272C28.5903 6.62278 28.8125 7.15931 28.8125 7.71875V23.8906H28.6831C28.5699 23.5632 28.377 23.2691 28.1218 23.0348C27.8667 22.8004 27.5573 22.6332 27.2214 22.5481C26.8856 22.4631 26.5339 22.4628 26.1979 22.5474C25.862 22.632 25.5524 22.7988 25.2969 23.0328C24.9125 22.6817 24.4112 22.4862 23.8906 22.4844H23.1875V21.0781H25.2969C25.8563 21.0781 26.3928 20.8559 26.7884 20.4603C27.184 20.0647 27.4062 19.5282 27.4062 18.9688V12.6406C27.4062 12.0812 27.184 11.5447 26.7884 11.1491C26.3928 10.7535 25.8563 10.5312 25.2969 10.5312H8.42188C7.86243 10.5312 7.32591 10.7535 6.93032 11.1491C6.53474 11.5447 6.3125 12.0812 6.3125 12.6406V18.9688C6.3125 19.5282 6.53474 20.0647 6.93032 20.4603C7.32591 20.8559 7.86243 21.0781 8.42188 21.0781H18.9688V25.2969H18.2656C17.7062 25.2969 17.1697 25.5191 16.7741 25.9147C16.3785 26.3103 16.1562 26.8468 16.1562 27.4062V30.9219C16.1563 31.1083 16.2304 31.2872 16.3623 31.419L18.9688 34.0255V35.1406H18.2656C18.0791 35.1406 17.9003 35.2147 17.7684 35.3466C17.6366 35.4784 17.5625 35.6573 17.5625 35.8438V41.4688C17.5625 41.6552 17.6366 41.8341 17.7684 41.9659C17.9003 42.0978 18.0791 42.1719 18.2656 42.1719H28.8125V44.2812ZM18.9688 17.5625V19.6719H8.42188C8.23539 19.6719 8.05655 19.5978 7.92469 19.4659C7.79283 19.3341 7.71875 19.1552 7.71875 18.9688V12.6406C7.71875 12.4541 7.79283 12.2753 7.92469 12.1434C8.05655 12.0116 8.23539 11.9375 8.42188 11.9375H25.2969C25.4834 11.9375 25.6622 12.0116 25.7941 12.1434C25.9259 12.2753 26 12.4541 26 12.6406V18.9688C26 19.1552 25.9259 19.3341 25.7941 19.4659C25.6622 19.5978 25.4834 19.6719 25.2969 19.6719H23.1875V17.5625C23.1875 17.0031 22.9653 16.4665 22.5697 16.0709C22.1741 15.6754 21.6376 15.4531 21.0781 15.4531C20.5187 15.4531 19.9822 15.6754 19.5866 16.0709C19.191 16.4665 18.9688 17.0031 18.9688 17.5625ZM30.2188 40.7656H18.9688V36.5469H30.2188V40.7656ZM30.2188 30.7559L28.8828 33.4201C28.8354 33.518 28.8113 33.6256 28.8125 33.7344V35.1406H20.375V33.7344C20.375 33.5479 20.3009 33.3691 20.169 33.2373L17.5625 30.6308V27.4062C17.5625 27.2198 17.6366 27.0409 17.7684 26.9091C17.9003 26.7772 18.0791 26.7031 18.2656 26.7031H18.9688V28.8125H20.375V17.5625C20.375 17.376 20.4491 17.1972 20.5809 17.0653C20.7128 16.9335 20.8916 16.8594 21.0781 16.8594C21.2646 16.8594 21.4434 16.9335 21.5753 17.0653C21.7072 17.1972 21.7812 17.376 21.7812 17.5625V27.4062H23.1875V23.8906H23.8906C24.0771 23.8906 24.2559 23.9647 24.3878 24.0966C24.5197 24.2284 24.5938 24.4073 24.5938 24.5938V27.4062H26V24.5938C26 24.4073 26.0741 24.2284 26.2059 24.0966C26.3378 23.9647 26.5166 23.8906 26.7031 23.8906C26.8896 23.8906 27.0684 23.9647 27.2003 24.0966C27.3322 24.2284 27.4062 24.4073 27.4062 24.5938V27.4062H28.8125V25.2969H29.5156C29.7021 25.2969 29.8809 25.371 30.0128 25.5028C30.1447 25.6347 30.2188 25.8135 30.2188 26V30.7559Z" fill="#2F2C83"/>
<path d="M13.809 30.409C13.809 30.161 13.7777 29.9236 13.715 29.6969L14.3477 29.6969L14.3477 28.7281L13.2265 28.7281C12.9342 28.3731 12.5125 28.0566 11.9613 27.7786L14.3477 27.7786L14.3477 26.8098L10.0572 26.8098C9.83589 26.5917 9.72523 26.3158 9.72523 25.9822C9.72523 25.6956 9.82545 25.4753 10.0259 25.3214C10.2263 25.1631 10.5165 25.084 10.8965 25.084C11.2097 25.084 11.5312 25.1246 11.8611 25.2059C12.1868 25.2871 12.596 25.4304 13.0887 25.6357L13.6649 24.0895C12.7171 23.649 11.7421 23.4287 10.7399 23.4287C9.82963 23.4287 9.11768 23.6554 8.60408 24.1088C8.0863 24.5579 7.82741 25.1952 7.82741 26.0207C7.82741 26.303 7.8629 26.566 7.93389 26.8098L7.27623 26.8098L7.27623 27.7786L8.47254 27.7786C8.66462 27.9967 8.88802 28.1785 9.14273 28.3239C9.39327 28.4693 9.65634 28.6041 9.93193 28.7281L7.27623 28.7281L7.27623 29.6969L11.6606 29.6969C11.8235 29.8894 11.9049 30.1267 11.9049 30.409C11.9049 30.7298 11.7943 30.98 11.5729 31.1597C11.3516 31.3393 11.0176 31.4291 10.5708 31.4291C9.7315 31.4291 8.83374 31.2281 7.87752 30.8261L7.87752 32.4813C8.66254 32.8748 9.59996 33.0716 10.6898 33.0716C11.692 33.0716 12.4624 32.847 13.001 32.3979C13.5397 31.9445 13.809 31.2816 13.809 30.409Z" fill="#2F2C83"/>
</svg>
