<svg width="54" height="45" viewBox="0 0 54 45" fill="none" xmlns="http://www.w3.org/2000/svg">
<circle cx="39" cy="19.0527" r="15" fill="#FFBEBC"/>
<path d="M16.2857 13.995L15.8684 13.0863L16.2857 13.995ZM33.1139 14.7685C32.667 14.444 32.0416 14.5433 31.7172 14.9902C31.3927 15.4371 31.4919 16.0624 31.9388 16.3869L33.1139 14.7685ZM37.8421 27.7894C37.8421 35.635 31.2529 42.0525 23.0527 42.0525V44.0525C32.293 44.0525 39.8421 36.8029 39.8421 27.7894H37.8421ZM23.0527 42.0525C14.8524 42.0525 8.26318 35.635 8.26318 27.7894H6.26318C6.26318 36.8029 13.8123 44.0525 23.0527 44.0525V42.0525ZM13.6735 16.7608C14.5964 16.0299 15.6129 15.4044 16.7031 14.9038L15.8684 13.0863C14.6326 13.6538 13.4796 14.3632 12.4318 15.193L13.6735 16.7608ZM16.7031 14.9038C18.2023 14.2153 19.8413 13.7628 21.5692 13.597L21.3782 11.6061C19.4248 11.7936 17.5684 12.3056 15.8684 13.0863L16.7031 14.9038ZM31.9388 16.3869C35.5329 18.9966 37.8421 23.1378 37.8421 27.7894H39.8421C39.8421 22.4538 37.1899 17.7281 33.1139 14.7685L31.9388 16.3869Z" fill="#2F2C83"/>
<path d="M36.7368 10.4736C36.1845 10.4736 35.7368 10.9213 35.7368 11.4736C35.7368 12.0259 36.1845 12.4736 36.7368 12.4736V10.4736ZM42 12.4736C42.5523 12.4736 43 12.0259 43 11.4736C43 10.9213 42.5523 10.4736 42 10.4736V12.4736ZM36.7368 12.4736H42V10.4736H36.7368V12.4736Z" fill="#2F2C83"/>
<path d="M30 27.0527C29.4477 27.0527 29 27.5004 29 28.0527C29 28.605 29.4477 29.0527 30 29.0527V27.0527ZM35.2632 29.0527C35.8154 29.0527 36.2632 28.605 36.2632 28.0527C36.2632 27.5004 35.8154 27.0527 35.2632 27.0527V29.0527ZM30 29.0527H35.2632V27.0527H30V29.0527Z" fill="#2F2C83"/>
<path d="M37.7896 13.6318C37.2373 13.6318 36.7896 14.0796 36.7896 14.6318C36.7896 15.1841 37.2373 15.6318 37.7896 15.6318V13.6318ZM39.8948 15.6318C40.4471 15.6318 40.8948 15.1841 40.8948 14.6318C40.8948 14.0796 40.4471 13.6318 39.8948 13.6318V15.6318ZM37.7896 15.6318H39.8948V13.6318H37.7896V15.6318Z" fill="#2F2C83"/>
<path d="M31.0527 30.2109C30.5004 30.2109 30.0527 30.6587 30.0527 31.2109C30.0527 31.7632 30.5004 32.2109 31.0527 32.2109V30.2109ZM33.158 32.2109C33.7103 32.2109 34.158 31.7632 34.158 31.2109C34.158 30.6587 33.7103 30.2109 33.158 30.2109V32.2109ZM31.0527 32.2109H33.158V30.2109H31.0527V32.2109Z" fill="#2F2C83"/>
<path fill-rule="evenodd" clip-rule="evenodd" d="M15.6841 30.0635C15.6841 33.9918 20.4418 37.6299 20.4418 37.6299C20.7198 37.8424 21.1747 37.8424 21.4527 37.6299C21.4527 37.6299 26.2104 33.9918 26.2104 30.0635C26.2104 27.3541 23.854 25.1577 20.9473 25.1577C18.0405 25.1577 15.6841 27.3541 15.6841 30.0635ZM13.6841 30.0635C13.6842 26.1194 17.0707 23.1577 20.9473 23.1577C24.8238 23.1577 28.2104 26.1194 28.2104 30.0635C28.2104 32.769 26.618 35.1284 25.356 36.6144C24.6897 37.399 24.0289 38.0401 23.5359 38.4849C23.2881 38.7085 23.0792 38.8856 22.9287 39.0096C22.8533 39.0717 22.7923 39.1207 22.7481 39.1557C22.7259 39.1733 22.708 39.1873 22.6945 39.1978L22.6776 39.2109L22.6717 39.2154L22.6685 39.2179C22.6681 39.2182 22.6677 39.2185 21.7956 38.0782L22.6676 39.2186C22.1218 39.636 21.4905 39.7893 20.9472 39.7893C20.404 39.7893 19.7727 39.636 19.2268 39.2186L20.0989 38.0782C19.2268 39.2185 19.2264 39.2182 19.226 39.2179L19.2228 39.2154L19.2169 39.2109L19.2 39.1978C19.1865 39.1873 19.1685 39.1733 19.1464 39.1557C19.1022 39.1207 19.0412 39.0717 18.9658 39.0096C18.8153 38.8856 18.6064 38.7085 18.3586 38.4849C17.8656 38.0401 17.2048 37.399 16.5385 36.6144C15.2765 35.1284 13.6841 32.7689 13.6841 30.0635Z" fill="#2F2C83"/>
<path d="M18.8945 6.90577V6.90579C18.8945 9.24059 20.2855 11.3661 21.5112 12.8094C22.1416 13.5518 22.7694 14.1611 23.2389 14.5848C23.4743 14.7972 23.6717 14.9644 23.812 15.08C23.8822 15.1378 23.9383 15.1828 23.9778 15.2142C23.9976 15.2298 24.0133 15.2421 24.0245 15.2508L24.0381 15.2613L24.0423 15.2646L24.0437 15.2657L24.0443 15.2662C24.0445 15.2663 24.0447 15.2665 24.4886 14.6861L24.0448 15.2665C24.3872 15.5284 24.7944 15.6316 25.1577 15.6316C25.5209 15.6316 25.9282 15.5284 26.2706 15.2665L25.8268 14.6861C26.2706 15.2665 26.2708 15.2663 26.2711 15.2662L26.2716 15.2657L26.2731 15.2646L26.2773 15.2613L26.2909 15.2508C26.3021 15.2421 26.3178 15.2298 26.3376 15.2142C26.3771 15.1828 26.4332 15.1378 26.5034 15.08C26.6437 14.9644 26.841 14.7972 27.0765 14.5848C27.546 14.1611 28.1737 13.5518 28.8042 12.8094C30.0299 11.3661 31.4208 9.24059 31.4208 6.90579C31.4208 3.57904 28.5493 1 25.1577 1C21.7661 1 18.8946 3.57905 18.8945 6.90577Z" stroke="#2F2C83" stroke-width="2"/>
<path fill-rule="evenodd" clip-rule="evenodd" d="M2 18.4849C2 22.4131 6.75768 26.0512 6.75768 26.0512C7.03568 26.2638 7.49064 26.2638 7.76863 26.0512C7.76863 26.0512 12.5263 22.4131 12.5263 18.4849C12.5263 15.7755 10.1699 13.5791 7.26317 13.5791C4.35644 13.5791 2.00005 15.7755 2 18.4849ZM0 18.4849C7.70092e-05 14.5408 3.38662 11.5791 7.26317 11.5791C11.1397 11.5791 14.5263 14.5408 14.5263 18.4849C14.5263 21.1904 12.9339 23.5498 11.6719 25.0358C11.0056 25.8203 10.3448 26.4615 9.85183 26.9063C9.604 27.1299 9.39514 27.307 9.24459 27.431C9.16924 27.4931 9.10824 27.5421 9.06398 27.5771C9.04185 27.5946 9.02388 27.6087 9.01038 27.6192L8.99349 27.6323L8.98762 27.6368L8.98437 27.6393C8.98398 27.6396 8.98359 27.6399 8.11148 26.4996L8.98355 27.6399C8.43769 28.0574 7.80641 28.2107 7.26316 28.2107C6.71991 28.2107 6.08863 28.0574 5.54276 27.6399L6.41483 26.4996C5.54272 27.6399 5.54234 27.6396 5.54195 27.6393L5.53869 27.6368L5.53282 27.6323L5.51594 27.6192C5.50243 27.6087 5.48446 27.5946 5.46233 27.5771C5.41808 27.5421 5.35708 27.4931 5.28172 27.431C5.13118 27.307 4.92231 27.1299 4.67449 26.9063C4.18152 26.4615 3.52068 25.8203 2.8544 25.0358C1.59244 23.5498 0 21.1903 0 18.4849Z" fill="#2F2C83"/>
<path d="M17.7896 27.2632H19.8288V29.4733H22.0571V27.2632H24.1053V33.579H22.0571V31.0242H19.8288V33.579H17.7896V27.2632Z" fill="#2F2C83"/>
<path d="M22 4.10547H24.0392V6.31556H26.2675V4.10547H28.3158V10.4213H26.2675V7.86651H24.0392V10.4213H22V4.10547Z" fill="#2F2C83"/>
<path d="M4.10547 15.6841H6.14471V17.8942H8.37302V15.6841H10.4213V21.9999H8.37302V19.4451H6.14471V21.9999H4.10547V15.6841Z" fill="#2F2C83"/>
</svg>
