<svg width="50" height="50" viewBox="0 0 50 50" fill="none" xmlns="http://www.w3.org/2000/svg">
<circle cx="32.5" cy="15" r="15" fill="#FFF69D"/>
<path d="M39.0619 27.2157L28.6924 21.0725V7.25C28.6924 6.65326 28.4553 6.08097 28.0334 5.65901C27.6114 5.23705 27.0391 5 26.4424 5H8.44238C7.84565 5 7.27335 5.23705 6.85139 5.65901C6.42944 6.08097 6.19238 6.65326 6.19238 7.25V32.75C6.19238 33.3467 6.42944 33.919 6.85139 34.341C7.27335 34.7629 7.84565 35 8.44238 35H15.9626C16.0611 35.1398 16.1693 35.2724 16.2866 35.3967L21.9424 42.0267V43.25C21.9446 45.0395 22.6564 46.7552 23.9218 48.0206C25.1872 49.286 26.9028 49.9978 28.6924 50H42.1924C42.5902 50 42.9717 49.842 43.253 49.5607C43.5343 49.2794 43.6924 48.8978 43.6924 48.5V35.5138C43.6977 33.8495 43.2744 32.2119 42.4635 30.7586C41.6525 29.3052 40.481 28.0852 39.0619 27.2157ZM8.44238 33.5C8.24347 33.5 8.05271 33.421 7.91205 33.2803C7.7714 33.1397 7.69238 32.9489 7.69238 32.75V7.25C7.69238 7.05109 7.7714 6.86032 7.91205 6.71967C8.05271 6.57902 8.24347 6.5 8.44238 6.5H26.4424C26.6413 6.5 26.8321 6.57902 26.9727 6.71967C27.1134 6.86032 27.1924 7.05109 27.1924 7.25V32.75C27.1924 32.9489 27.1134 33.1397 26.9727 33.2803C26.8321 33.421 26.6413 33.5 26.4424 33.5H25.0879L21.6326 30.1348C21.1082 29.6099 20.4398 29.2524 19.7121 29.1075C18.9844 28.9626 18.23 29.0369 17.5445 29.3209C16.859 29.6049 16.2732 30.0859 15.8612 30.703C15.4491 31.32 15.2294 32.0455 15.2299 32.7875C15.2308 33.0266 15.2539 33.2651 15.2989 33.5H8.44238ZM42.1924 48.5H28.6924C27.3005 48.4984 25.966 47.9448 24.9818 46.9606C23.9976 45.9763 23.444 44.6419 23.4424 43.25V41.75C23.4424 41.5716 23.3789 41.399 23.2631 41.2633L17.3876 34.3797C16.9662 33.957 16.7295 33.3844 16.7295 32.7875C16.7295 32.1906 16.9662 31.618 17.3876 31.1952C17.8175 30.7844 18.3897 30.5557 18.9844 30.5571C19.5791 30.5585 20.1502 30.7899 20.5781 31.2028L30.4174 40.787L31.4674 39.713L26.6119 34.9827C27.1762 34.9413 27.7041 34.6883 28.0899 34.2743C28.4757 33.8603 28.6909 33.3159 28.6924 32.75V22.8162L38.2849 28.499C39.483 29.2351 40.4717 30.2669 41.156 31.4953C41.8403 32.7238 42.1972 34.1076 42.1924 35.5138V48.5Z" fill="#2F2C83"/>
<path d="M20.4424 13.25V8.75C20.4424 8.55109 20.3634 8.36032 20.2227 8.21967C20.0821 8.07902 19.8913 8 19.6924 8H15.1924C14.9935 8 14.8027 8.07902 14.6621 8.21967C14.5214 8.36032 14.4424 8.55109 14.4424 8.75V13.25C14.4424 13.4489 14.5214 13.6397 14.6621 13.7803C14.8027 13.921 14.9935 14 15.1924 14H19.6924C19.8913 14 20.0821 13.921 20.2227 13.7803C20.3634 13.6397 20.4424 13.4489 20.4424 13.25ZM18.9424 12.5H15.9424V9.5H18.9424V12.5Z" fill="#2F2C83"/>
<path d="M12.9424 23H9.94238C9.74347 23 9.5527 23.079 9.41205 23.2197C9.2714 23.3603 9.19238 23.5511 9.19238 23.75V31.25C9.19238 31.4489 9.2714 31.6397 9.41205 31.7803C9.5527 31.921 9.74347 32 9.94238 32H12.9424C13.1413 32 13.3321 31.921 13.4727 31.7803C13.6134 31.6397 13.6924 31.4489 13.6924 31.25V23.75C13.6924 23.5511 13.6134 23.3603 13.4727 23.2197C13.3321 23.079 13.1413 23 12.9424 23ZM12.1924 30.5H10.6924V24.5H12.1924V30.5Z" fill="#2F2C83"/>
<path d="M21.9424 8H23.4424V11H21.9424V8Z" fill="#2F2C83"/>
<path d="M21.9424 12.5H23.4424V15.5H21.9424V12.5Z" fill="#2F2C83"/>
<path d="M24.1924 8H25.6924V15.5H24.1924V8Z" fill="#2F2C83"/>
<path d="M9.19238 8H10.6924V11H9.19238V8Z" fill="#2F2C83"/>
<path d="M9.19238 12.5H10.6924V15.5H9.19238V12.5Z" fill="#2F2C83"/>
<path d="M11.4424 8H12.9424V15.5H11.4424V8Z" fill="#2F2C83"/>
<path d="M18.9424 15.5H20.4424V18.5H18.9424V15.5Z" fill="#2F2C83"/>
<path d="M18.9424 20H20.4424V23H18.9424V20Z" fill="#2F2C83"/>
<path d="M18.9424 24.5H20.4424V27.5H18.9424V24.5Z" fill="#2F2C83"/>
<path d="M24.1924 30.5H25.6924V32H24.1924V30.5Z" fill="#2F2C83"/>
<path d="M24.1924 27.5H25.6924V29H24.1924V27.5Z" fill="#2F2C83"/>
<path d="M24.1924 24.5H25.6924V26H24.1924V24.5Z" fill="#2F2C83"/>
<path d="M36.8249 29.4731L36.0352 30.7481C37.2334 31.4843 38.2222 32.5162 38.9065 33.7448C39.5908 34.9734 39.9476 36.3573 39.9427 37.7636H41.4427C41.4485 36.1018 41.0268 34.4663 40.2181 33.0144C39.4094 31.5625 38.2409 30.3431 36.8249 29.4731Z" fill="#2F2C83"/>
<path d="M30.4229 13.9619H31.9955V15.5004H30.4229V13.9619Z" fill="#2F2C83"/>
<path d="M2.5 41.3076H4.07265V42.8461H2.5V41.3076Z" fill="#2F2C83"/>
<path d="M6.19238 46.8462H7.76504V48.3847H6.19238V46.8462Z" fill="#2F2C83"/>
<path d="M30.4229 6.26904H31.9955V12.4229H30.4229V6.26904Z" fill="#2F2C83"/>
<path d="M2.5 33.6152H4.07265V39.7691H2.5V33.6152Z" fill="#2F2C83"/>
<path d="M6.19238 39.1538H7.76504V45.3077H6.19238V39.1538Z" fill="#2F2C83"/>
</svg>
