<svg width="50" height="50" viewBox="0 0 50 50" fill="none" xmlns="http://www.w3.org/2000/svg">
<circle cx="15.5" cy="15.501" r="15" fill="#FFBFBD"/>
<path d="M42.5555 41.5459C45.2049 38.0644 46.6375 33.8092 46.6333 29.4343C46.6333 29.0386 46.3124 28.7177 45.9167 28.7177H27.2833V10.0844C27.2833 9.68858 26.9624 9.36768 26.5667 9.36768C22.1918 9.36349 17.9366 10.7961 14.4551 13.4455L11.3018 10.2922C11.1681 10.1599 10.9879 10.0851 10.8 10.0844H6.5V11.5177H10.5033L13.344 14.3585C7.71602 19.2876 5.29937 26.9397 7.07599 34.2068C8.85261 41.4742 14.5268 47.1484 21.7943 48.925C29.0614 50.7016 36.7134 48.285 41.6426 42.657L44.6933 45.7077C44.8277 45.8421 45.01 45.9177 45.2 45.9177H49.5V44.4843H45.4967L42.5555 41.5459ZM26.5667 48.0677C18.7904 48.0715 11.8306 43.2435 9.11016 35.9589C6.39012 28.6739 8.48203 20.4659 14.3574 15.3719L19.61 20.6244L20.6234 19.611L15.4835 14.4711C18.4895 12.2316 22.1043 10.9567 25.85 10.8147V29.4343C25.85 29.8301 26.1709 30.151 26.5667 30.151H45.1863C45.045 33.8967 43.7705 37.5115 41.5313 40.5175L36.3914 35.3776C36.2567 35.2429 36.074 35.1673 35.8833 35.1677H28V36.601H35.5866L40.6292 41.6436C37.0962 45.7242 31.9644 48.0687 26.5667 48.0677Z" fill="#2F2C83"/>
<path d="M49.5001 11.5176V10.0843H45.2001C45.0101 10.0843 44.8278 10.1599 44.6934 10.2943L43.0974 11.8903C39.3919 8.42457 34.5072 6.49818 29.4335 6.50098C29.0377 6.50098 28.7168 6.82187 28.7168 7.21765V26.5676C28.7168 26.9634 29.0377 27.2843 29.4335 27.2843H48.7835C49.1792 27.2843 49.5001 26.9634 49.5001 26.5676C49.5029 21.4939 47.5765 16.6092 44.1108 12.9037L45.4969 11.5176H49.5001ZM48.0531 25.851H30.1501V7.94796C34.5936 8.11698 38.8285 9.87505 42.0847 12.903L38.9601 16.0276L39.9735 17.041L43.0981 13.9165C46.126 17.1726 47.8845 21.4079 48.0531 25.851Z" fill="#2F2C83"/>
<path d="M12.2334 20.8345H19.4001V22.2678H12.2334V20.8345Z" fill="#2F2C83"/>
<path d="M12.2334 22.9844H19.4001V24.4177H12.2334V22.9844Z" fill="#2F2C83"/>
<path d="M12.2334 25.1343H13.6667V26.5676H12.2334V25.1343Z" fill="#2F2C83"/>
<path d="M14.3838 25.1343H17.2505V26.5676H14.3838V25.1343Z" fill="#2F2C83"/>
<path d="M17.9668 25.1343H19.4001V26.5676H17.9668V25.1343Z" fill="#2F2C83"/>
<path d="M33.0166 17.9678H40.1833V19.4011H33.0166V17.9678Z" fill="#2F2C83"/>
<path d="M33.0166 20.1177H40.1833V21.551H33.0166V20.1177Z" fill="#2F2C83"/>
<path d="M33.0166 22.2676H34.4499V23.7009H33.0166V22.2676Z" fill="#2F2C83"/>
<path d="M35.167 22.2676H38.0337V23.7009H35.167V22.2676Z" fill="#2F2C83"/>
<path d="M38.75 22.2676H40.1833V23.7009H38.75V22.2676Z" fill="#2F2C83"/>
<path d="M20.833 37.3179H27.9997V38.7512H20.833V37.3179Z" fill="#2F2C83"/>
<path d="M20.833 39.4678H27.9997V40.9011H20.833V39.4678Z" fill="#2F2C83"/>
<path d="M20.833 41.6177H22.2663V43.051H20.833V41.6177Z" fill="#2F2C83"/>
<path d="M22.9834 41.6177H25.8501V43.051H22.9834V41.6177Z" fill="#2F2C83"/>
<path d="M26.5664 41.6177H27.9997V43.051H26.5664V41.6177Z" fill="#2F2C83"/>
</svg>
