<svg width="25" height="25" viewBox="0 0 25 25" fill="none" xmlns="http://www.w3.org/2000/svg">
<circle cx="13.8395" cy="11.1608" r="11.1608" fill="#A4FCC4"/>
<path d="M7.26047 21.2676H6.31174C5.64359 21.2676 5.10059 21.8106 5.10059 22.4787V23.7888C5.10059 24.457 5.64359 25 6.31174 25H7.26047C7.92865 25 8.47163 24.457 8.47163 23.7888V22.4787C8.47163 21.8086 7.92865 21.2676 7.26047 21.2676Z" fill="#2F2C83"/>
<path d="M0.570864 11.1261L2.32099 11.3441C2.8761 11.4127 3.40295 11.0938 3.60279 10.571C3.85512 9.91088 4.20635 9.39009 4.6565 9.01059C5.2944 8.47364 6.08768 8.20315 7.03642 8.20315C8.01948 8.20315 8.80269 8.46153 9.38405 8.97627C9.9654 9.49303 10.2541 10.1107 10.2541 10.8354C10.2541 11.3562 10.0906 11.8326 9.76354 12.2646C9.55159 12.5391 8.89959 13.1164 7.81156 13.9985C6.72152 14.8807 5.99687 15.676 5.63352 16.3825C5.2621 17.1052 5.13291 17.9065 5.10061 18.7099C5.07237 19.3983 5.62141 19.9716 6.31177 19.9716H7.30088C7.93068 19.9716 8.45148 19.4891 8.508 18.8633C8.54837 18.4132 8.62306 18.0721 8.73612 17.8399C8.92585 17.4423 9.41637 16.9174 10.2036 16.2634C11.7276 15.0018 12.7208 14.0046 13.1871 13.2698C13.6514 12.5371 13.8855 11.7599 13.8855 10.9383C13.8855 9.45468 13.2537 8.15269 11.9881 7.03439C10.7244 5.91608 9.02072 5.35693 6.88101 5.35693C4.84627 5.35693 3.20515 5.90801 1.95362 7.01218C0.887804 7.95285 0.239835 9.06711 0.0117335 10.353C-0.0589375 10.7284 0.197424 11.0796 0.570864 11.1261Z" fill="#2F2C83"/>
</svg>
