<svg width="66" height="57" viewBox="0 0 66 57" fill="none" xmlns="http://www.w3.org/2000/svg">
<circle cx="48.1035" cy="18" r="17.5" fill="#DBBEF8"/>
<path fill-rule="evenodd" clip-rule="evenodd" d="M15.1953 14.0988C15.3625 13.8204 15.6635 13.65 15.9883 13.65H42.0768C42.3916 13.65 42.6848 13.8101 42.855 14.075L45.9436 18.8812C46.0395 19.0303 46.0904 19.2039 46.0904 19.3812L46.0904 46.2197C46.0904 47.0067 45.4524 47.6447 44.6654 47.6447H20.4848C19.0741 48.3909 17.4515 48.9657 16.0984 49.3752C15.1871 49.651 14.3723 49.8592 13.7849 49.9986C13.7099 50.0164 13.6386 50.0331 13.5712 50.0487V54.575C13.5712 54.9462 13.3492 55.2815 13.0075 55.4265C12.6657 55.5715 12.2703 55.4981 12.0034 55.2401L1.52242 45.1109C1.3414 44.936 1.2395 44.6948 1.24024 44.4431C1.24098 44.1913 1.34429 43.9508 1.52634 43.7769L12.1392 33.6402C12.1128 28.5337 12.0953 22.0236 12.1777 19.3527C12.1826 19.1947 12.2279 19.0406 12.3093 18.905L15.1953 14.0988ZM44.2404 45.7947H23.0434C25.0182 43.842 26.4989 40.9826 27.514 38.5578C28.1353 37.0738 28.6033 35.6996 28.916 34.6967C29.0726 34.1947 29.1906 33.7843 29.27 33.4979C29.3097 33.3547 29.3397 33.2423 29.36 33.165C29.3701 33.1263 29.3778 33.0964 29.3831 33.0757L29.3893 33.0516L29.391 33.0448L29.3915 33.0428L29.3916 33.0422C29.3917 33.0419 29.3917 33.0417 28.4942 32.8179L29.3917 33.0417C29.4977 32.6169 29.2913 32.176 28.8971 31.9852C28.5031 31.7945 28.0293 31.9062 27.7618 32.2529L27.7618 32.253L27.7617 32.253L27.7608 32.2542L27.7562 32.2602L27.7363 32.2856C27.7185 32.3085 27.6914 32.3429 27.656 32.3876C27.5851 32.4769 27.4807 32.6071 27.3487 32.7678C27.0843 33.0896 26.711 33.5318 26.2759 34.0124C25.3867 34.9946 24.307 36.061 23.3947 36.6341C22.4615 37.2202 21.1033 37.7608 19.9292 38.1638C19.3517 38.3619 18.8362 38.521 18.4655 38.6304C18.2803 38.6851 18.1318 38.7272 18.0303 38.7554C17.9796 38.7695 17.9407 38.7801 17.9149 38.7871L17.8862 38.7948L17.8795 38.7966L17.8781 38.797L17.8781 38.797L17.878 38.797C17.3842 38.9276 17.0897 39.4338 17.2202 39.9277C17.3508 40.4216 17.857 40.7161 18.3509 40.5855L18.1244 39.7285C18.3509 40.5855 18.351 40.5855 18.3511 40.5855L18.3514 40.5854L18.3523 40.5852L18.355 40.5845L18.3643 40.582L18.3987 40.5727C18.4283 40.5647 18.4712 40.553 18.5261 40.5377C18.6359 40.5072 18.7937 40.4624 18.989 40.4048C19.3792 40.2897 19.9212 40.1224 20.5297 39.9136C21.7276 39.5025 23.2554 38.9062 24.3787 38.2007C25.0097 37.8043 25.6651 37.2513 26.2771 36.6682C26.1322 37.048 25.9757 37.4417 25.8075 37.8434C24.5986 40.731 22.8712 43.8294 20.7212 45.3432C19.3559 46.3046 17.3237 47.0716 15.5626 47.6045C14.6952 47.867 13.9178 48.0657 13.3577 48.1986C13.078 48.265 12.8533 48.3148 12.6995 48.3478C12.6227 48.3643 12.5637 48.3766 12.5244 48.3846L12.4807 48.3935L12.4705 48.3955L12.4684 48.3959L12.4683 48.3959L12.4681 48.396L12.4681 48.396L11.7212 48.5424V49.3037V52.3946L3.50035 44.4497L12.1536 36.1848L12.1632 37.7538C12.1713 39.0431 12.1771 39.9827 12.1772 40.3632C12.1772 40.7837 12.4578 41.1387 12.842 41.251C12.9682 41.3003 13.1072 41.3225 13.2513 41.311L15.8462 41.1043C16.3555 41.0637 16.7354 40.618 16.6948 40.1088C16.6543 39.5995 16.2086 39.2196 15.6993 39.2601L14.0233 39.3937C14.0207 38.9322 14.0171 38.35 14.0129 37.676C13.9845 33.1104 13.9299 24.3305 14.0053 20.3062H24.3662V30.0789C24.3662 30.4258 24.5603 30.7435 24.8689 30.9019C25.1776 31.0602 25.5488 31.0326 25.8306 30.8303L29.7546 28.0134L33.6785 30.8303C33.9603 31.0326 34.3316 31.0602 34.6403 30.9019C34.9489 30.7435 35.143 30.4258 35.143 30.0789V20.3062H37.0009C37.5118 20.3062 37.9259 19.8921 37.9259 19.3812C37.9259 18.8704 37.5118 18.4562 37.0009 18.4562H34.8704L34.0222 15.5H41.5717L43.4715 18.4562H40.8439C40.3331 18.4562 39.9189 18.8704 39.9189 19.3812C39.9189 19.8921 40.3331 20.3062 40.8439 20.3062H44.2404L44.2404 45.7947ZM26.2162 20.3062V28.2762L29.2152 26.1233C29.5375 25.8919 29.9716 25.8919 30.294 26.1233L33.293 28.2762V20.3062H26.2162ZM32.9457 18.4562H26.4141L27.1623 15.5H32.0975L32.9457 18.4562ZM25.2539 15.5L24.5058 18.4562H14.7367L16.5118 15.5H25.2539Z" fill="#2F2C83"/>
</svg>
