<svg width="21" height="21" viewBox="0 0 21 21" fill="none" xmlns="http://www.w3.org/2000/svg">
<path d="M6.53337 13.4887H9.03337C9.25438 13.4887 9.46634 13.4009 9.62262 13.2447C9.7789 13.0884 9.8667 12.8764 9.8667 12.6554C9.8667 12.4344 9.7789 12.2224 9.62262 12.0661C9.46634 11.9099 9.25438 11.8221 9.03337 11.8221H6.53337C6.31235 11.8221 6.10039 11.9099 5.94411 12.0661C5.78783 12.2224 5.70003 12.4344 5.70003 12.6554C5.70003 12.8764 5.78783 13.0884 5.94411 13.2447C6.10039 13.4009 6.31235 13.4887 6.53337 13.4887ZM16.5334 5.1554H4.8667C4.20366 5.1554 3.56777 5.41879 3.09893 5.88763C2.63009 6.35647 2.3667 6.99235 2.3667 7.6554V15.1554C2.3667 15.8184 2.63009 16.4543 3.09893 16.9232C3.56777 17.392 4.20366 17.6554 4.8667 17.6554H16.5334C17.1964 17.6554 17.8323 17.392 18.3011 16.9232C18.77 16.4543 19.0334 15.8184 19.0334 15.1554V7.6554C19.0334 6.99235 18.77 6.35647 18.3011 5.88763C17.8323 5.41879 17.1964 5.1554 16.5334 5.1554ZM17.3667 15.1554C17.3667 15.3764 17.2789 15.5884 17.1226 15.7447C16.9663 15.9009 16.7544 15.9887 16.5334 15.9887H4.8667C4.64569 15.9887 4.43372 15.9009 4.27744 15.7447C4.12116 15.5884 4.03337 15.3764 4.03337 15.1554V10.1554H17.3667V15.1554ZM17.3667 8.48873H4.03337V7.6554C4.03337 7.43438 4.12116 7.22242 4.27744 7.06614C4.43372 6.90986 4.64569 6.82206 4.8667 6.82206H16.5334C16.7544 6.82206 16.9663 6.90986 17.1226 7.06614C17.2789 7.22242 17.3667 7.43438 17.3667 7.6554V8.48873Z" fill="#231D4F"/>
</svg>
