<svg width="21" height="21" viewBox="0 0 21 21" fill="none" xmlns="http://www.w3.org/2000/svg">
<path d="M13.0417 11.2221C13.5692 10.6556 13.8663 9.91271 13.875 9.13873C13.875 8.3033 13.5432 7.50208 12.9524 6.91134C12.3617 6.3206 11.5605 5.98873 10.725 5.98873C9.8896 5.98873 9.08839 6.3206 8.49765 6.91134C7.90691 7.50208 7.57503 8.3033 7.57503 9.13873C7.58373 9.91271 7.88088 10.6556 8.40837 11.2221C7.67391 11.5878 7.04188 12.1303 6.56913 12.8009C6.09637 13.4715 5.79772 14.2491 5.70003 15.0637C5.67572 15.2847 5.7402 15.5064 5.87929 15.6798C6.01838 15.8533 6.22069 15.9644 6.4417 15.9887C6.66271 16.013 6.88433 15.9486 7.0578 15.8095C7.23127 15.6704 7.34239 15.4681 7.3667 15.2471C7.46614 14.4397 7.8574 13.6965 8.46677 13.1576C9.07614 12.6187 9.86155 12.3212 10.675 12.3212C11.4885 12.3212 12.2739 12.6187 12.8833 13.1576C13.4927 13.6965 13.8839 14.4397 13.9834 15.2471C14.0065 15.4607 14.1114 15.6572 14.276 15.7954C14.4406 15.9336 14.6522 16.0029 14.8667 15.9887H14.9584C15.1768 15.9636 15.3765 15.8531 15.5138 15.6814C15.6512 15.5097 15.7151 15.2907 15.6917 15.0721C15.6012 14.2617 15.312 13.4863 14.8497 12.8146C14.3874 12.1429 13.7663 11.5959 13.0417 11.2221ZM10.7 10.6221C10.4067 10.6221 10.1199 10.5351 9.87594 10.3721C9.632 10.2091 9.44188 9.97742 9.32961 9.70638C9.21734 9.43533 9.18797 9.13708 9.2452 8.84935C9.30244 8.56161 9.44371 8.2973 9.65116 8.08985C9.85861 7.88241 10.1229 7.74113 10.4106 7.6839C10.6984 7.62666 10.9966 7.65604 11.2677 7.76831C11.5387 7.88058 11.7704 8.0707 11.9334 8.31463C12.0964 8.55857 12.1834 8.84535 12.1834 9.13873C12.1834 9.53213 12.0271 9.90943 11.7489 10.1876C11.4707 10.4658 11.0934 10.6221 10.7 10.6221ZM16.5334 2.6554H4.8667C4.20366 2.6554 3.56777 2.91879 3.09893 3.38763C2.63009 3.85647 2.3667 4.49235 2.3667 5.1554V16.8221C2.3667 17.4851 2.63009 18.121 3.09893 18.5898C3.56777 19.0587 4.20366 19.3221 4.8667 19.3221H16.5334C17.1964 19.3221 17.8323 19.0587 18.3011 18.5898C18.77 18.121 19.0334 17.4851 19.0334 16.8221V5.1554C19.0334 4.49235 18.77 3.85647 18.3011 3.38763C17.8323 2.91879 17.1964 2.6554 16.5334 2.6554ZM17.3667 16.8221C17.3667 17.0431 17.2789 17.255 17.1226 17.4113C16.9663 17.5676 16.7544 17.6554 16.5334 17.6554H4.8667C4.64569 17.6554 4.43372 17.5676 4.27744 17.4113C4.12116 17.255 4.03337 17.0431 4.03337 16.8221V5.1554C4.03337 4.93438 4.12116 4.72242 4.27744 4.56614C4.43372 4.40986 4.64569 4.32206 4.8667 4.32206H16.5334C16.7544 4.32206 16.9663 4.40986 17.1226 4.56614C17.2789 4.72242 17.3667 4.93438 17.3667 5.1554V16.8221Z" fill="#231D4F"/>
</svg>
