<svg width="19" height="20" viewBox="0 0 19 20" fill="none" xmlns="http://www.w3.org/2000/svg">
<path fill-rule="evenodd" clip-rule="evenodd" d="M0.543945 16.6992C0.543945 15.0424 1.88709 13.6992 3.54395 13.6992H15.8936C17.5504 13.6992 18.8936 15.0424 18.8936 16.6992V18.8242C18.8936 19.3765 18.4458 19.8242 17.8936 19.8242H1.54395C0.991661 19.8242 0.543945 19.3765 0.543945 18.8242V16.6992ZM3.54395 15.6992C2.99166 15.6992 2.54395 16.1469 2.54395 16.6992V17.8242H16.8936V16.6992C16.8936 16.1469 16.4458 15.6992 15.8936 15.6992H3.54395Z" fill="#231D4F"/>
<path fill-rule="evenodd" clip-rule="evenodd" d="M4.44043 11.894C4.44043 10.7895 5.33586 9.89404 6.44043 9.89404L13.0327 9.89404C14.1372 9.89404 15.0327 10.7895 15.0327 11.894V15.1681H13.0327L13.0327 11.894H6.44043L6.44043 15.1681H4.44043L4.44043 11.894Z" fill="#231D4F"/>
<path fill-rule="evenodd" clip-rule="evenodd" d="M9.62215 0.739321C9.63952 0.738958 9.65688 0.738652 9.67423 0.738403L9.67426 0.740578C11.8006 0.798762 14.1588 1.70852 14.748 3.91812C15.083 5.17399 14.8149 6.1194 14.3444 6.87971C14.1342 7.2193 13.8869 7.51673 13.6903 7.75304L13.6903 7.75305L13.6782 7.76758C13.4636 8.02571 13.3104 8.21226 13.1944 8.40146C12.9163 8.85528 12.6121 9.65831 12.3638 10.4241C12.2446 10.7919 12.1459 11.1266 12.0771 11.3694C12.0427 11.4906 12.0159 11.5883 11.9979 11.655L11.9777 11.7308L11.9728 11.7495L11.9717 11.7537L11.9715 11.7545C11.9715 11.7544 11.9715 11.7543 11.0034 11.5039C10.0353 11.2535 10.0353 11.2534 10.0353 11.2533L10.0354 11.2531L10.0355 11.2525L10.036 11.2506L10.0377 11.244L10.0439 11.2205L10.067 11.1341C10.0869 11.0601 10.116 10.9541 10.1529 10.8238C10.2267 10.5638 10.3326 10.2045 10.4613 9.8074C10.7089 9.04362 11.0738 8.03414 11.4892 7.35639C11.6866 7.03423 11.9271 6.74528 12.1191 6.51447L12.1191 6.51447L12.1405 6.48877C12.3521 6.23434 12.5145 6.03601 12.6437 5.82724C12.8606 5.47684 12.9918 5.09412 12.8156 4.43348C12.5769 3.53864 11.4414 2.78712 9.62215 2.73983C7.80288 2.78712 6.66736 3.53864 6.42872 4.43348C6.25253 5.09412 6.38371 5.47684 6.60056 5.82724C6.72976 6.03601 6.89222 6.23434 7.10381 6.48877L7.12519 6.51447C7.31723 6.74527 7.55766 7.03423 7.7551 7.35639C8.17747 8.04556 8.50822 9.03017 8.72342 9.76407C8.83553 10.1464 8.92464 10.4906 8.98577 10.7393C9.0164 10.8639 9.04018 10.9653 9.05647 11.0363C9.06463 11.0718 9.07092 11.0998 9.07527 11.1193L9.08033 11.1422L9.08176 11.1487L9.08219 11.1507L9.08233 11.1514L9.08239 11.1516C9.08241 11.1517 9.08243 11.1518 8.10505 11.3633C7.12767 11.5748 7.12768 11.5749 7.1277 11.5749L7.1276 11.5745L7.1268 11.5708L7.12306 11.5539L7.10717 11.4837C7.09291 11.4216 7.0715 11.3303 7.04357 11.2167C6.98758 10.9889 6.90607 10.6742 6.80423 10.3268C6.59152 9.60144 6.32099 8.84386 6.04986 8.40146C5.93391 8.21226 5.78073 8.02571 5.56607 7.76758L5.55398 7.75305L5.55398 7.75304C5.35743 7.51674 5.11004 7.2193 4.89988 6.87971C4.42936 6.1194 4.16134 5.17399 4.49626 3.91812C5.08553 1.70852 7.44372 0.798762 9.57004 0.740578L9.57007 0.738403C9.58741 0.738652 9.60477 0.738958 9.62215 0.739321Z" fill="#231D4F"/>
</svg>
