<svg width="53" height="44" viewBox="0 0 53 44" fill="none" xmlns="http://www.w3.org/2000/svg">
<circle cx="37.6113" cy="17.4653" r="15" fill="#DBBEF8"/>
<path d="M33.5418 20.9984C34.0067 20.9984 34.3837 20.6214 34.3837 20.1565V11.8441C34.3837 11.5639 34.2443 11.3021 34.0119 11.1456L17.6619 0.143391C17.3778 -0.0477971 17.006 -0.0477971 16.7219 0.143391L0.371854 11.1456C0.139414 11.302 0 11.5639 0 11.8441V42.2618C0 42.7267 0.376989 43.1037 0.841869 43.1037H33.5418C34.0067 43.1037 34.3837 42.7267 34.3837 42.2618V28.4749C34.3837 28.01 34.0067 27.633 33.5418 27.633C33.077 27.633 32.7 28.01 32.7 28.4749V41.4199H25.012V29.5285C25.012 29.0636 24.635 28.6866 24.1702 28.6866H10.2136C9.74876 28.6866 9.37178 29.0636 9.37178 29.5285V41.4199H1.68382V12.2923L17.1919 1.8566L32.7 12.2923V20.1565C32.7 20.6214 33.077 20.9984 33.5418 20.9984ZM15.3451 30.3704H19.0387V33.3632L17.5999 32.5661C17.3461 32.4254 17.0377 32.4256 16.784 32.5661L15.3451 33.3632V30.3704ZM11.0555 30.3704H13.6614V34.792C13.6614 35.0902 13.819 35.366 14.0759 35.5173C14.3327 35.6687 14.6503 35.6729 14.9112 35.5284L17.192 34.265L19.4727 35.5284C19.7335 35.6729 20.0511 35.6687 20.308 35.5173C20.5649 35.366 20.7225 35.0902 20.7225 34.792V30.3704H23.3284V41.4199H11.0556V30.3704H11.0555Z" fill="#2F2C83"/>
<path d="M30.1739 14.7751C30.443 14.7751 30.7075 14.6463 30.8705 14.4069C31.1321 14.0227 31.0328 13.499 30.6484 13.2372L17.6659 4.39702C17.3801 4.2023 17.0041 4.2023 16.7183 4.39702L3.73581 13.2373C3.3515 13.499 3.25208 14.0227 3.51373 14.407C3.77547 14.7913 4.29919 14.8906 4.68342 14.6291L17.1921 6.1114L29.7007 14.629C29.8458 14.7278 30.0106 14.7751 30.1739 14.7751Z" fill="#2F2C83"/>
<path d="M24.17 17.9175H10.2135C9.74857 17.9175 9.37158 18.2945 9.37158 18.7593C9.37158 19.2242 9.74857 19.6012 10.2135 19.6012H24.17C24.6348 19.6012 25.0118 19.2242 25.0118 18.7593C25.0118 18.2945 24.6349 17.9175 24.17 17.9175Z" fill="#2F2C83"/>
<path d="M24.17 13.9629H10.2135C9.74857 13.9629 9.37158 14.3399 9.37158 14.8048C9.37158 15.2696 9.74857 15.6466 10.2135 15.6466H24.17C24.6348 15.6466 25.0118 15.2696 25.0118 14.8048C25.0118 14.3399 24.6349 13.9629 24.17 13.9629Z" fill="#2F2C83"/>
</svg>
