<svg width="34" height="34" viewBox="0 0 34 34" fill="none" xmlns="http://www.w3.org/2000/svg">
<path d="M17.2346 0C26.4437 0 33.8941 7.45038 33.8941 16.6594C33.8941 25.8685 26.4437 33.3189 17.2346 33.3189C8.02557 33.3189 0.575195 25.8685 0.575195 16.6594C0.575195 7.45038 8.05755 0 17.2346 0Z" fill="#F44336"/>
<path d="M23.9178 23.8539C23.9178 24.3975 23.8539 24.9411 23.694 25.4527C23.5341 25.9643 23.3103 26.412 22.9905 26.8277C22.9585 26.8597 22.9585 26.8597 22.9266 26.8916C22.5748 27.3073 22.1591 27.6591 21.6795 27.8829C21.1679 28.1067 20.5923 28.2346 20.0168 28.2346C19.5691 28.2346 19.1214 28.1707 18.7057 28.0108C18.2901 27.8509 17.9063 27.6271 17.5546 27.3393C17.4587 27.2434 17.3628 27.1474 17.2668 27.0515C16.8511 27.4992 16.3715 27.8189 15.7959 28.0108C15.3803 28.1707 14.9326 28.2346 14.453 28.2346C14.0053 28.2346 13.5896 28.1707 13.1739 28.0108C12.3425 27.691 11.6391 27.1155 11.1914 26.38C10.9676 25.9963 10.8077 25.5806 10.7437 25.1649V25.133C10.7118 24.9091 10.6798 24.7173 10.6478 24.4934C10.6158 24.2376 10.6158 23.9818 10.6158 23.694V18.6419C10.6158 18.386 10.6798 18.1302 10.8397 17.9384C11.1914 17.4587 11.8949 17.3628 12.3745 17.7146C12.4704 17.7785 12.5344 17.8425 12.5983 17.9384C12.7582 18.1302 12.8222 18.386 12.8222 18.6419V23.3103C12.7902 23.8219 12.8542 24.3655 12.9501 24.8772V24.9091C12.9821 25.069 13.078 25.2289 13.1739 25.3568C13.3018 25.5167 13.4297 25.6446 13.5896 25.7405C13.6216 25.7405 13.6216 25.7725 13.6536 25.7725C13.7815 25.8364 13.8774 25.9004 14.0053 25.9324C14.1652 25.9643 14.2931 25.9963 14.453 25.9963C14.6768 25.9963 14.8686 25.9643 15.0605 25.9004C15.2204 25.8364 15.3803 25.7405 15.5401 25.6126C15.7 25.4847 15.7959 25.3248 15.8919 25.133C15.9878 24.9091 16.0517 24.6853 16.0837 24.4615C16.0837 24.3655 16.1157 24.2376 16.1157 24.0458C16.1157 23.8859 16.1157 23.6621 16.1157 23.3103V18.6419C16.1157 18.386 16.1796 18.1302 16.3395 17.9384C16.6913 17.4587 17.3947 17.3628 17.9063 17.7146C18.0023 17.7785 18.0662 17.8425 18.1302 17.9384C18.2901 18.1302 18.354 18.386 18.354 18.6419V23.3103C18.322 23.8219 18.386 24.3655 18.4819 24.8772C18.4819 24.9091 18.4819 24.9091 18.4819 24.9411C18.5139 25.101 18.6098 25.2609 18.7057 25.3888C18.8336 25.5486 18.9615 25.6765 19.1214 25.7725C19.1534 25.7725 19.1534 25.8045 19.1854 25.8045C19.3133 25.8684 19.4412 25.9324 19.5691 25.9643C19.729 25.9963 19.8569 26.0283 20.0168 26.0283C20.2406 26.0283 20.4644 25.9963 20.6563 25.9324C20.8162 25.8684 21.008 25.7725 21.1359 25.6446C21.4557 25.3568 21.6475 24.9411 21.6795 24.5254C21.6795 24.4295 21.7115 24.2696 21.7115 24.1097C21.7115 24.0138 21.7115 23.758 21.7115 23.3743V18.6419C21.7115 18.3541 21.8074 18.0983 21.9993 17.8744C22.0312 17.8425 22.0312 17.8425 22.0632 17.8105C22.287 17.5867 22.5748 17.4907 22.8626 17.4907C23.2143 17.4907 23.5341 17.6506 23.7579 17.9384C23.7899 17.9704 23.7899 18.0023 23.8219 18.0023C23.9498 18.1942 24.0137 18.418 23.9818 18.6419L23.9178 23.8539Z" fill="#231F20"/>
<path d="M23.6934 7.83414C23.8533 8.34576 23.9173 8.88934 23.9173 9.43293V14.645C23.9173 14.8688 23.8533 15.0927 23.7574 15.2845C23.7254 15.3165 23.7254 15.3485 23.6934 15.3485C23.5016 15.6363 23.1498 15.7961 22.7981 15.7961C22.5103 15.7961 22.2225 15.6682 21.9987 15.4764C21.9667 15.4444 21.9667 15.4444 21.9348 15.4124C21.7429 15.1886 21.647 14.9328 21.647 14.645V9.97653C21.647 9.59281 21.647 9.33701 21.647 9.24108C21.647 9.04922 21.647 8.92132 21.615 8.82539C21.583 8.40971 21.3912 7.99402 21.0714 7.70624C20.9435 7.57833 20.7836 7.48241 20.5918 7.41845C20.3999 7.3545 20.1761 7.32253 19.9522 7.32253C19.7924 7.32253 19.6325 7.3545 19.5046 7.38648C19.3767 7.41845 19.2488 7.48241 19.1209 7.54636C19.0889 7.54636 19.0889 7.57833 19.0569 7.57833C18.897 7.67426 18.7691 7.80216 18.6412 7.96204C18.5453 8.08995 18.4814 8.24983 18.4174 8.40971C18.4174 8.44168 18.4174 8.44168 18.4174 8.47366C18.3215 8.98527 18.2895 9.49689 18.2895 10.0405V14.709C18.2895 14.9648 18.2255 15.2206 18.0657 15.4124C17.7139 15.8921 17.0105 15.988 16.5308 15.6363C16.4349 15.5723 16.3709 15.5084 16.307 15.4124C16.1471 15.2206 16.0832 14.9648 16.0832 14.709V9.97653C16.0832 9.62479 16.0832 9.40096 16.0832 9.24108C16.0832 9.04922 16.0512 8.92132 16.0512 8.82539C16.0192 8.60156 15.9553 8.37773 15.8593 8.1539C15.7634 7.96204 15.6675 7.80217 15.5076 7.67426C15.3797 7.54636 15.2198 7.45043 15.028 7.38648C14.8361 7.32253 14.6123 7.29055 14.4204 7.29055C14.2605 7.29055 14.1007 7.32253 13.9728 7.3545C13.8449 7.38648 13.7169 7.45043 13.621 7.51438C13.589 7.51438 13.589 7.54636 13.5571 7.54636C13.3972 7.64229 13.2693 7.77019 13.1414 7.93007C13.0455 8.05797 12.9495 8.21785 12.9176 8.37773V8.40971C12.8216 8.92132 12.7896 9.43294 12.7896 9.97653V14.645C12.7896 14.9008 12.7257 15.1566 12.5658 15.3485C12.2141 15.8281 11.5106 15.924 11.031 15.5723C10.935 15.5084 10.8711 15.4444 10.8071 15.3485C10.6473 15.1566 10.5833 14.9008 10.5833 14.645V9.65677C10.5833 9.36898 10.5833 9.0812 10.6153 8.82539C10.6153 8.60156 10.6473 8.37773 10.7112 8.18588V8.12192C10.8071 7.70624 10.935 7.29055 11.1589 6.90684C11.6065 6.13942 12.31 5.56385 13.1414 5.27607C13.5571 5.11619 13.9728 5.05224 14.4204 5.05224C14.8681 5.05224 15.3157 5.11619 15.7634 5.27607C16.1791 5.43595 16.5948 5.65978 16.9145 5.94756C17.0105 6.04349 17.1384 6.13942 17.2343 6.23535C17.3302 6.13942 17.4262 6.04349 17.5221 5.94756C18.1936 5.34002 19.0889 5.02026 19.9842 5.02026C20.5598 5.02026 21.1354 5.11619 21.647 5.372C22.1266 5.59583 22.5743 5.94756 22.894 6.36325C22.926 6.39523 22.926 6.39523 22.958 6.4272C23.2777 6.87486 23.5335 7.3545 23.6934 7.83414Z" fill="white"/>
</svg>
