<svg width="127" height="24" viewBox="0 0 127 24" fill="none" xmlns="http://www.w3.org/2000/svg">
<path d="M10.149 21.1242C10.149 22.1794 9.31759 23.0428 8.26239 23.0428H8.23042C7.94263 23.0428 7.68682 23.0428 7.39904 23.0108C6.31186 22.8829 5.32061 22.3713 4.58516 21.5719C3.91367 20.7725 3.52996 19.7493 3.49798 18.6941V10.6361H2.12302C1.06782 10.6361 0.204468 9.7728 0.204468 8.7176C0.204468 7.66239 1.06782 6.79904 2.12302 6.79904H3.49798V2.00266C3.49798 0.947455 4.36133 0.0841064 5.41654 0.0841064C6.47174 0.0841064 7.33509 0.947455 7.33509 2.00266V6.79904H8.3903C9.4455 6.79904 10.3088 7.66239 10.3088 8.7176C10.3088 9.7728 9.4455 10.6361 8.3903 10.6361H7.33509V18.2464C7.39904 18.5022 7.33509 18.8859 7.55892 19.0778C7.7188 19.2377 8.00658 19.2057 8.23042 19.2057C9.28562 19.2057 10.149 20.069 10.149 21.1242Z" fill="#F44336"/>
<path d="M18.1116 23.2026C16.0651 23.2026 14.0186 22.3712 12.9634 21.3799C12.196 20.6445 12.164 19.4614 12.8675 18.662C13.571 17.8946 14.7541 17.8626 15.5215 18.5661C16.0971 19.1097 18.2395 19.8451 19.4545 19.0457C19.7743 18.8539 19.9662 18.5021 19.9662 18.1504C19.9342 17.7347 19.6464 17.383 19.2627 17.2551C18.9749 17.0952 18.4633 17.0952 17.8877 17.0952C17.0244 17.1272 16.161 16.9993 15.3616 16.7434C13.6669 16.1359 12.4518 14.6011 12.228 12.8104C12.0681 11.3395 12.5797 9.86863 13.6669 8.8454C15.2657 7.37451 17.5999 7.15068 19.2947 7.43846C20.4138 7.59834 21.469 8.07798 22.3324 8.8454C23.0998 9.54887 23.1637 10.764 22.4603 11.5314C22.0446 11.979 21.437 12.2029 20.8295 12.1389C20.5417 12.1069 20.2539 12.011 19.9981 11.8511C19.6144 11.5314 19.1668 11.3075 18.6551 11.2116C17.6959 11.0517 15.9052 11.1157 16.0331 12.4907C16.129 12.7784 16.3529 13.0023 16.6087 13.1621C17.0244 13.2581 17.472 13.29 17.9197 13.2581C18.7511 13.29 19.8063 13.2901 20.8615 13.7697C22.5882 14.5371 23.7393 16.2318 23.7713 18.1504C23.7713 19.7812 22.9399 21.316 21.5649 22.2433C20.5417 22.8828 19.3266 23.2345 18.1116 23.2026Z" fill="#231F20"/>
<path d="M40.3667 21.3161C40.3667 22.3713 39.4714 23.2346 38.4162 23.2346C37.361 23.2346 36.4976 22.3713 36.4976 21.3161V14.3134C36.4976 12.4907 35.0267 11.0199 33.2041 11.0199C31.3815 11.0199 29.9106 12.4907 29.9106 14.3134V21.3161C29.9106 22.3713 29.0472 23.2346 27.9601 23.2346C26.9048 23.2346 26.0415 22.3713 26.0095 21.3161V2.03464C26.0095 0.979431 26.9048 0.116082 27.9601 0.0841064C29.0472 0.0841064 29.9106 0.947455 29.9106 2.03464V7.95017C33.4279 6.12755 37.7447 7.50251 39.5673 11.0199C40.0789 12.0431 40.3667 13.1622 40.3667 14.3134V21.3161Z" fill="#231F20"/>
<path d="M45.4185 4.36891C44.3313 4.36891 43.436 3.50557 43.404 2.41839V2.25851C43.404 1.17133 44.2993 0.276001 45.3865 0.276001C46.4737 0.276001 47.369 1.17133 47.369 2.25851V2.41839C47.369 3.47359 46.5057 4.33694 45.4185 4.36891ZM45.4185 23.1388C44.2993 23.1388 43.404 22.2754 43.404 21.1563V8.81356C43.436 7.72638 44.3313 6.83106 45.4185 6.86303C46.4737 6.89501 47.337 7.75836 47.369 8.81356V21.1563C47.369 22.2434 46.5057 23.1068 45.4185 23.1388Z" fill="#231F20"/>
<path d="M65.3397 15.1127V21.1562C65.3397 22.2114 64.5084 23.0747 63.4532 23.0747C62.398 23.0747 61.5346 22.2433 61.5346 21.1881V21.1562V15.1127C61.5346 12.8424 59.8719 11.0198 57.8574 11.0198C55.3633 11.0198 54.0842 13.5139 54.0842 15.7203V21.1562C54.0842 22.2114 53.2209 23.0747 52.1657 23.0747C51.1105 23.0747 50.2471 22.2114 50.2471 21.1562V8.94138C50.2471 7.88618 51.1105 7.02283 52.1657 7.02283C52.9971 7.02283 53.7005 7.56642 53.9563 8.33384C55.1075 7.56642 56.4824 7.18271 57.8574 7.18271C61.9823 7.18271 65.3397 10.732 65.3397 15.1127Z" fill="#231F20"/>
<path d="M83.2782 8.9733V21.2201C83.2782 22.2433 82.4468 23.0427 81.4556 23.0427C81.4556 23.0427 81.4556 23.0427 81.4236 23.0427C80.3684 23.0427 79.7289 22.2113 79.7289 21.2201V20.8364C78.3859 22.0514 76.6592 22.7229 74.8366 22.7229C70.5838 22.7229 67.0984 19.2695 67.0984 15.0167C67.0984 10.7639 70.5518 7.27858 74.8046 7.27858H74.8366C76.6272 7.31055 78.3539 7.95007 79.7289 9.13318V8.9733C79.7289 7.98205 80.3684 7.15067 81.4236 7.15067C82.4468 7.1187 83.2782 7.95007 83.2782 8.9733ZM78.8335 15.0167C78.8655 12.8104 77.0749 10.9878 74.8685 10.9558C72.6622 10.9238 70.8396 12.7145 70.8076 14.9208C70.7756 17.1271 72.5663 18.9498 74.7726 18.9817C74.8046 18.9817 74.8046 18.9817 74.8366 18.9817C77.0429 18.9498 78.8016 17.1911 78.8335 15.0167Z" fill="#231F20"/>
<path d="M88.8103 23.1707H88.5545C87.4674 23.1387 86.572 22.2434 86.604 21.1562V21.1242C86.572 20.005 87.4354 19.0458 88.5545 19.0138H88.8103C89.9295 19.0777 90.7929 20.005 90.7609 21.1242C90.7929 22.2114 89.9295 23.1387 88.8103 23.1707Z" fill="#231F20"/>
<path d="M101.217 23.2346C97.0602 23.2346 93.6387 19.6214 93.6387 15.2087V9.10129C93.6068 8.07806 94.4062 7.21472 95.4294 7.18274C96.5166 7.18274 97.3799 8.01411 97.4439 9.10129V15.2087C97.4439 17.5109 99.3624 19.3655 101.217 19.3655C103.391 19.3655 105.022 17.5109 105.022 15.2087V9.3571C105.022 8.26992 106.141 7.43855 107.005 7.43855C108.028 7.47052 108.859 8.3019 108.827 9.3571V15.2087C108.827 19.6214 105.406 23.2346 101.217 23.2346Z" fill="#231F20"/>
<path d="M126.926 8.9733V21.2201C126.926 22.2433 126.094 23.0427 125.103 23.0427C125.103 23.0427 125.103 23.0427 125.071 23.0427C124.016 23.0427 123.376 22.2113 123.376 21.2201V20.8364C122.033 22.0514 120.307 22.7229 118.484 22.7229C114.231 22.7229 110.746 19.2695 110.746 15.0167C110.746 10.7639 114.199 7.27858 118.452 7.27858H118.484C120.275 7.31055 122.001 7.95007 123.376 9.13318V8.9733C123.376 7.98205 124.016 7.15067 125.071 7.15067C126.062 7.1187 126.894 7.95007 126.926 8.9733ZM122.481 15.0167C122.513 12.8104 120.722 10.9878 118.516 10.9558C116.31 10.9238 114.487 12.7145 114.455 14.9208C114.423 17.1271 116.214 18.9498 118.42 18.9817C118.452 18.9817 118.452 18.9817 118.484 18.9817C120.658 18.9498 122.449 17.1911 122.481 15.0167Z" fill="#231F20"/>
</svg>
