<svg width="31" height="31" viewBox="0 0 31 31" fill="none" xmlns="http://www.w3.org/2000/svg">
<circle cx="10.0618" cy="12.6643" r="9" fill="#E1DAFA"/>
<path fill-rule="evenodd" clip-rule="evenodd" d="M26.4095 23.5686C26.4095 23.1133 26.7711 22.7449 27.217 22.7449C27.6628 22.7449 28.024 23.1133 28.024 23.5686V26.4154C28.024 26.8707 27.6624 27.2391 27.217 27.2391H10.8693C10.4229 27.2391 10.0618 26.8707 10.0618 26.4154V11.9644C10.0618 11.5106 10.4229 11.1405 10.8693 11.1407H11.9788V9.35134C11.9788 9.12419 12.1594 8.93972 12.3829 8.93972H14.6535V7.6519C14.6535 7.4236 14.8334 7.23914 15.0569 7.23914H25.3493C25.5728 7.23914 25.7529 7.4236 25.7529 7.6519V11.0891C25.7529 11.1067 25.7504 11.1232 25.748 11.1399L25.7479 11.1405H27.217C27.6624 11.1405 28.024 11.5106 28.024 11.9644V14.4339C28.024 14.8894 27.6624 15.2579 27.217 15.2579C26.7706 15.2579 26.4095 14.8894 26.4095 14.4339V12.7897H11.6758V25.5911H26.4095V23.5686ZM24.9465 8.06306H15.4603V8.9395H22.6757C22.8985 8.9395 23.0795 9.12396 23.0795 9.35112V11.1405H24.9513C24.9508 11.1357 24.9502 11.131 24.9496 11.1262C24.9481 11.114 24.9465 11.1018 24.9465 11.0891V8.06306ZM18.3389 16.2443H28.6294C29.0758 16.2443 29.4369 16.6142 29.4369 17.0696V21.2096C29.4369 21.6634 29.0758 22.0333 28.6294 22.0333H18.3389C16.7755 22.0333 15.5037 20.734 15.5037 19.1387C15.5037 17.5431 16.7755 16.2443 18.3389 16.2443ZM18.2493 20.6141C19.0777 20.6141 19.7493 19.9426 19.7493 19.1141C19.7493 18.2857 19.0777 17.6141 18.2493 17.6141C17.4209 17.6141 16.7493 18.2857 16.7493 19.1141C16.7493 19.9426 17.4209 20.6141 18.2493 20.6141Z" fill="#977AEE"/>
</svg>
