<svg width="7" height="10" viewBox="0 0 7 10" fill="none" xmlns="http://www.w3.org/2000/svg">
<path d="M2.35841 6.73114V6.28786C2.35841 6.0842 2.37838 5.9005 2.41831 5.73677C2.46224 5.56904 2.52614 5.4113 2.61 5.26354C2.69786 5.11179 2.80967 4.96603 2.94545 4.82626C3.08123 4.68249 3.24496 4.53474 3.43665 4.38298C3.60437 4.2512 3.74614 4.13339 3.86195 4.02956C3.97776 3.92573 4.07161 3.8239 4.14349 3.72406C4.21537 3.62023 4.26729 3.51241 4.29923 3.40059C4.33118 3.28878 4.34716 3.15899 4.34716 3.01123C4.34716 2.7836 4.26928 2.59591 4.11354 2.44815C3.96179 2.3004 3.72817 2.22652 3.41269 2.22652C3.13714 2.22652 2.83962 2.28442 2.52015 2.40023C2.20466 2.51604 1.8772 2.65781 1.53776 2.82554L0.926758 1.5017C1.09848 1.40187 1.28417 1.30802 1.48385 1.22016C1.68751 1.12831 1.89717 1.04845 2.11282 0.980557C2.33246 0.908675 2.55409 0.852766 2.77773 0.812832C3.00136 0.772897 3.221 0.75293 3.43665 0.75293C3.84398 0.75293 4.21138 0.802848 4.53884 0.902684C4.86631 0.998527 5.14385 1.1403 5.37148 1.32799C5.59911 1.51568 5.77282 1.74331 5.89262 2.01087C6.01642 2.27843 6.07832 2.58393 6.07832 2.92737C6.07832 3.17896 6.05037 3.40459 5.99446 3.60426C5.93855 3.79994 5.85469 3.98364 5.74287 4.15536C5.63505 4.32308 5.49727 4.48681 5.32955 4.64655C5.16581 4.8023 4.97413 4.96803 4.75449 5.14374C4.58676 5.27552 4.44899 5.39133 4.34117 5.49117C4.23734 5.58701 4.15547 5.67886 4.09557 5.76672C4.03567 5.85457 3.99373 5.94642 3.96977 6.04227C3.94981 6.13412 3.93982 6.24394 3.93982 6.37173V6.73114H2.35841ZM2.16074 8.77978C2.16074 8.59209 2.18669 8.43435 2.23861 8.30656C2.29452 8.17477 2.37039 8.06895 2.46624 7.98908C2.56208 7.90921 2.6739 7.8513 2.80169 7.81536C2.93347 7.77942 3.07324 7.76145 3.221 7.76145C3.36077 7.76145 3.49256 7.77942 3.61635 7.81536C3.74414 7.8513 3.85596 7.90921 3.9518 7.98908C4.04765 8.06895 4.12352 8.17477 4.17943 8.30656C4.23534 8.43435 4.26329 8.59209 4.26329 8.77978C4.26329 8.95949 4.23534 9.11324 4.17943 9.24103C4.12352 9.36882 4.04765 9.47464 3.9518 9.55851C3.85596 9.64237 3.74414 9.70227 3.61635 9.73821C3.49256 9.77815 3.36077 9.79811 3.221 9.79811C3.07324 9.79811 2.93347 9.77815 2.80169 9.73821C2.6739 9.70227 2.56208 9.64237 2.46624 9.55851C2.37039 9.47464 2.29452 9.36882 2.23861 9.24103C2.18669 9.11324 2.16074 8.95949 2.16074 8.77978Z" fill="black"/>
</svg>
