<svg width="29" height="30" viewBox="0 0 29 30" fill="none" xmlns="http://www.w3.org/2000/svg">
<path d="M11.7291 23.4325C11.7291 24.1543 11.5931 24.869 11.3287 25.5359C11.0643 26.2028 10.6768 26.8087 10.1884 27.3191C9.69987 27.8295 9.11995 28.2343 8.4817 28.5105C7.84346 28.7868 7.1594 28.9289 6.46857 28.9289C5.77775 28.9289 5.09368 28.7868 4.45544 28.5105C3.8172 28.2343 3.23728 27.8295 2.74879 27.3191C2.2603 26.8087 1.87281 26.2028 1.60844 25.5359C1.34408 24.869 1.20801 24.1543 1.20801 23.4325L6.46857 23.4325H11.7291Z" stroke="white" stroke-width="2" stroke-linejoin="round"/>
<path d="M27.6266 18.8039C27.6266 19.5257 27.4905 20.2404 27.2262 20.9073C26.9618 21.5742 26.5743 22.1801 26.0858 22.6905C25.5973 23.2009 25.0174 23.6057 24.3792 23.8819C23.7409 24.1582 23.0569 24.3003 22.366 24.3003C21.6752 24.3003 20.9911 24.1582 20.3529 23.8819C19.7147 23.6057 19.1347 23.2009 18.6463 22.6905C18.1578 22.1801 17.7703 21.5742 17.5059 20.9073C17.2415 20.2404 17.1055 19.5257 17.1055 18.8039L22.366 18.8039H27.6266Z" stroke="white" stroke-width="2" stroke-linejoin="round"/>
<path d="M6.46857 14.3744L11.7291 23.4325H1.20801L6.46857 14.3744Z" stroke="white" stroke-width="2" stroke-linejoin="round"/>
<path d="M22.366 9.74585L27.6266 18.804H17.1055L22.366 9.74585Z" stroke="white" stroke-width="2" stroke-linejoin="round"/>
<path d="M0.895527 14.5686C0.363678 14.7174 0.0531945 15.2692 0.202042 15.8011C0.35089 16.3329 0.902703 16.6434 1.43455 16.4946L0.895527 14.5686ZM27.8959 9.08885C28.4278 8.94 28.7383 8.38819 28.5894 7.85634C28.4406 7.32449 27.8887 7.01401 27.3569 7.16286L27.8959 9.08885ZM1.43455 16.4946L27.8959 9.08885L27.3569 7.16286L0.895527 14.5686L1.43455 16.4946Z" fill="white"/>
<path d="M15.1934 1.99298C15.1934 1.4407 14.7456 0.992981 14.1934 0.992981C13.6411 0.992981 13.1934 1.4407 13.1934 1.99298L15.1934 1.99298ZM13.1934 1.99298L13.1934 11.5625L15.1934 11.5625L15.1934 1.99298L13.1934 1.99298Z" fill="white"/>
</svg>
