<svg width="31" height="32" viewBox="0 0 31 32" fill="none" xmlns="http://www.w3.org/2000/svg">
<path d="M12.6797 24.625C12.6797 25.4047 12.5322 26.1768 12.2456 26.8972C11.959 27.6176 11.5389 28.2721 11.0093 28.8234C10.4797 29.3748 9.85099 29.8121 9.15905 30.1105C8.46712 30.4089 7.72551 30.5625 6.97656 30.5625C6.22762 30.5625 5.48601 30.4089 4.79407 30.1105C4.10214 29.8121 3.47343 29.3748 2.94384 28.8234C2.41426 28.2721 1.99417 27.6176 1.70756 26.8972C1.42095 26.1768 1.27344 25.4047 1.27344 24.625L6.97656 24.625H12.6797Z" stroke="black" stroke-width="1.6" stroke-linejoin="round"/>
<path d="M29.9141 19.625C29.9141 20.4047 29.7665 21.1768 29.4799 21.8972C29.1933 22.6176 28.7732 23.2721 28.2437 23.8234C27.7141 24.3748 27.0854 24.8121 26.3934 25.1105C25.7015 25.4089 24.9599 25.5625 24.2109 25.5625C23.462 25.5625 22.7204 25.4089 22.0284 25.1105C21.3365 24.8121 20.7078 24.3748 20.1782 23.8234C19.6486 23.2721 19.2285 22.6176 18.9419 21.8972C18.6553 21.1768 18.5078 20.4047 18.5078 19.625L24.2109 19.625H29.9141Z" stroke="black" stroke-width="1.6" stroke-linejoin="round"/>
<path d="M6.97656 14.84L12.6797 24.625H1.27344L6.97656 14.84Z" stroke="black" stroke-width="1.6" stroke-linejoin="round"/>
<path d="M24.2109 9.83997L29.9141 19.625H18.5078L24.2109 9.83997Z" stroke="black" stroke-width="1.6" stroke-linejoin="round"/>
<path d="M1.01167 15.3194C0.586079 15.4381 0.337282 15.8793 0.455965 16.3049C0.574648 16.7304 1.01587 16.9792 1.44146 16.8606L1.01167 15.3194ZM30.129 8.86056C30.5545 8.74188 30.8033 8.30066 30.6847 7.87507C30.566 7.44948 30.1248 7.20069 29.6992 7.31937L30.129 8.86056ZM1.44146 16.8606L30.129 8.86056L29.6992 7.31937L1.01167 15.3194L1.44146 16.8606Z" fill="#221D1D"/>
<path d="M16.1516 1.46497C16.1516 1.02314 15.7934 0.664966 15.3516 0.664966C14.9097 0.664966 14.5516 1.02314 14.5516 1.46497L16.1516 1.46497ZM14.5516 1.46497L14.5516 12.09L16.1516 12.09L16.1516 1.46497L14.5516 1.46497Z" fill="#221D1D"/>
</svg>
