<svg width="25" height="25" viewBox="0 0 25 25" fill="none" xmlns="http://www.w3.org/2000/svg">
<path fill-rule="evenodd" clip-rule="evenodd" d="M14.5454 2.25C14.5454 3.29089 13.8369 4.1667 12.8747 4.42365V6.67504L15.2179 4.33752C15.4463 4.10972 15.8165 4.10972 16.0449 4.33752C16.2732 4.56533 16.2732 4.93467 16.0449 5.16248L12.8747 8.32496V11.9117L12.8747 11.9167V12.079C12.9202 12.0196 12.978 11.968 13.047 11.9283L17.1779 9.54911L18.3382 5.22909C18.4218 4.9179 18.7425 4.73322 19.0544 4.81661C19.3664 4.89999 19.5515 5.21985 19.4679 5.53104L18.6102 8.72415L20.5647 7.59846C20.3067 6.63873 20.7127 5.5887 21.6164 5.06826C22.6952 4.44694 24.0746 4.81566 24.6974 5.89181C25.3202 6.96797 24.9506 8.34405 23.8718 8.96537C22.9682 9.48582 21.8536 9.3116 21.1495 8.60882L19.195 9.73452L22.3958 10.5901C22.7078 10.6735 22.8929 10.9934 22.8093 11.3045C22.7257 11.6157 22.4051 11.8004 22.0932 11.717L17.7626 10.5595L14.1472 12.6418L17.7627 14.7241L22.0932 13.5666C22.4051 13.4832 22.7258 13.6679 22.8094 13.979C22.893 14.2902 22.7078 14.6101 22.3959 14.6935L19.195 15.5491L21.1495 16.6748C21.8537 15.972 22.9683 15.7978 23.8719 16.3182C24.9507 16.9395 25.3203 18.3156 24.6974 19.3918C24.0746 20.4679 22.6952 20.8367 21.6164 20.2153C20.7128 19.6949 20.3067 18.6449 20.5648 17.6851L18.6103 16.5594L19.4679 19.7525C19.5515 20.0637 19.3664 20.3836 19.0545 20.467C18.7425 20.5504 18.4219 20.3657 18.3383 20.0545L17.1779 15.7345L13.047 13.3553C12.9781 13.3156 12.9203 13.2639 12.8747 13.2045V16.675L16.0449 19.8375C16.2733 20.0653 16.2733 20.4347 16.0449 20.6625C15.8166 20.8903 15.4463 20.8903 15.2179 20.6625L12.8747 18.325V20.5764C13.8369 20.8333 14.5455 21.7091 14.5455 22.75C14.5455 23.9926 13.5357 25 12.29 25C11.0443 25 10.0345 23.9926 10.0345 22.75C10.0345 21.7091 10.7431 20.8333 11.7052 20.5764V18.325L9.36204 20.6625C9.13368 20.8903 8.76344 20.8903 8.53508 20.6625C8.30672 20.4347 8.30672 20.0653 8.53508 19.8375L11.7052 16.675V13.498L7.82208 15.7345L6.66171 20.0545C6.57813 20.3657 6.25749 20.5504 5.94554 20.467C5.6336 20.3836 5.44848 20.0637 5.53206 19.7525L6.38973 16.5594L4.43523 17.6851C4.69326 18.6449 4.28721 19.6949 3.38358 20.2153C2.30481 20.8367 0.925383 20.4679 0.302552 19.3918C-0.320278 18.3156 0.0493371 16.9395 1.12811 16.3182C2.03174 15.7978 3.14632 15.972 3.85048 16.6748L5.80498 15.5491L2.60411 14.6935C2.29216 14.6101 2.10704 14.2902 2.19063 13.979C2.27421 13.6679 2.59485 13.4832 2.9068 13.5666L7.23732 14.7241L10.8528 12.6418L7.23737 10.5595L2.90684 11.717C2.59489 11.8004 2.27425 11.6157 2.19067 11.3045C2.10708 10.9934 2.2922 10.6735 2.60415 10.5901L5.80502 9.73452L3.85052 8.60882C3.14636 9.3116 2.03178 9.48582 1.12815 8.96537C0.0493776 8.34405 -0.320238 6.96797 0.302593 5.89181C0.925423 4.81566 2.30485 4.44694 3.38362 5.06826C4.28725 5.5887 4.6933 6.63873 4.43527 7.59846L6.38977 8.72415L5.5321 5.53104C5.44852 5.21985 5.63364 4.89999 5.94558 4.81661C6.25753 4.73322 6.57817 4.9179 6.66175 5.22909L7.82212 9.54911L11.7052 11.7856V8.32496L8.53506 5.16248C8.3067 4.93467 8.3067 4.56533 8.53506 4.33752C8.76341 4.10972 9.13366 4.10972 9.36202 4.33752L11.7052 6.67504V4.42365C10.743 4.1667 10.0345 3.29089 10.0345 2.25C10.0345 1.00736 11.0443 0 12.29 0C13.5356 0 14.5454 1.00736 14.5454 2.25ZM12.29 1.16667C11.6902 1.16667 11.204 1.65169 11.204 2.25C11.204 2.84831 11.6902 3.33333 12.29 3.33333C12.8897 3.33333 13.3759 2.84831 13.3759 2.25C13.3759 1.65169 12.8897 1.16667 12.29 1.16667ZM12.29 23.8333C12.8898 23.8333 13.376 23.3483 13.376 22.75C13.376 22.1517 12.8898 21.6667 12.29 21.6667C11.6902 21.6667 11.204 22.1517 11.204 22.75C11.204 23.3483 11.6902 23.8333 12.29 23.8333ZM23.6846 6.47515C23.9845 6.9933 23.8065 7.65585 23.2871 7.95501C22.7677 8.25416 22.1035 8.07663 21.8036 7.55848C21.5038 7.04033 21.6817 6.37777 22.2011 6.07862C22.7205 5.77947 23.3847 5.957 23.6846 6.47515ZM23.6846 18.8084C23.3847 19.3266 22.7206 19.5041 22.2012 19.205C21.6818 18.9058 21.5038 18.2433 21.8037 17.7251C22.1036 17.207 22.7677 17.0294 23.2871 17.3286C23.8065 17.6277 23.9845 18.2903 23.6846 18.8084ZM1.7129 7.95501C1.19349 7.65585 1.01553 6.9933 1.31541 6.47515C1.61529 5.957 2.27946 5.77947 2.79887 6.07862C3.31828 6.37777 3.49624 7.04033 3.19636 7.55848C2.89648 8.07663 2.23231 8.25416 1.7129 7.95501ZM2.79883 19.205C2.27942 19.5041 1.61525 19.3266 1.31537 18.8084C1.01549 18.2903 1.19345 17.6277 1.71286 17.3286C2.23227 17.0294 2.89644 17.207 3.19632 17.7251C3.4962 18.2433 3.31824 18.9058 2.79883 19.205Z" fill="#00B0FF"/>
</svg>
