<svg width="30" height="31" viewBox="0 0 30 31" fill="none" xmlns="http://www.w3.org/2000/svg">
<g clip-path="url(#clip0)">
<path d="M14.9798 7.10882C13.2953 7.10882 11.6486 7.60783 10.248 8.54273C8.84739 9.47763 7.75574 10.8064 7.11111 12.3611C6.46647 13.9158 6.29781 15.6265 6.62644 17.277C6.95507 18.9274 7.76624 20.4435 8.95737 21.6334C10.1485 22.8233 11.6661 23.6336 13.3182 23.9619C14.9704 24.2902 16.6829 24.1217 18.2392 23.4777C19.7955 22.8338 21.1256 21.7432 22.0615 20.3441C22.9974 18.9449 23.4969 17.2999 23.4969 15.6171C23.4906 13.3625 22.5913 11.202 20.9954 9.60776C19.3995 8.0135 17.2368 7.11509 14.9798 7.10882ZM14.9798 22.6919C13.5789 22.6919 12.2094 22.2769 11.0445 21.4994C9.87967 20.7219 8.97177 19.6167 8.43565 18.3238C7.89953 17.0308 7.75925 15.608 8.03256 14.2354C8.30588 12.8628 8.9805 11.6019 9.97113 10.6123C10.9618 9.6227 12.2239 8.94877 13.5979 8.67574C14.972 8.40271 16.3962 8.54284 17.6905 9.07841C18.9848 9.61398 20.0911 10.5209 20.8695 11.6846C21.6478 12.8483 22.0632 14.2163 22.0632 15.6159C22.0632 17.4929 21.3171 19.2931 19.9888 20.6207C18.6605 21.9483 16.8588 22.6947 14.9798 22.6957V22.6919ZM14.2849 3.74497V1.31011C14.2849 1.12582 14.3582 0.949072 14.4886 0.818758C14.6191 0.688444 14.796 0.615234 14.9805 0.615234C15.1649 0.615234 15.3419 0.688444 15.4723 0.818758C15.6028 0.949072 15.676 1.12582 15.676 1.31011V3.74497C15.6765 3.83628 15.6589 3.92678 15.6242 4.01123C15.5894 4.09569 15.5382 4.17242 15.4736 4.23698C15.409 4.30155 15.3322 4.35267 15.2476 4.38738C15.1631 4.4221 15.0725 4.43971 14.9811 4.43922C14.8887 4.44328 14.7964 4.42811 14.7102 4.39468C14.624 4.36124 14.5457 4.31027 14.4802 4.24499C14.4147 4.17971 14.3636 4.10156 14.3299 4.01548C14.2963 3.9294 14.281 3.83729 14.2849 3.74497ZM7.23774 3.59139C7.15391 3.42778 7.13681 3.2381 7.19002 3.06216C7.24323 2.88623 7.36261 2.73774 7.5231 2.64788C7.68359 2.55802 7.8727 2.53378 8.05069 2.58026C8.22869 2.62674 8.38173 2.74032 8.47768 2.89714L9.67887 4.98612C9.72578 5.06714 9.75597 5.15673 9.76765 5.24959C9.77933 5.34246 9.77226 5.43672 9.74686 5.52682C9.72146 5.61691 9.67824 5.701 9.61977 5.77413C9.56129 5.84726 9.48873 5.90793 9.40638 5.95258C9.30208 6.01555 9.18019 6.04315 9.0589 6.03124C8.93309 6.03498 8.8086 6.0047 8.6986 5.9436C8.58859 5.8825 8.49715 5.79285 8.43393 5.68412L7.23774 3.59139ZM5.34159 10.0481C5.27879 10.1572 5.18744 10.2472 5.07733 10.3083C4.96723 10.3695 4.84253 10.3995 4.71663 10.3953C4.59731 10.3879 4.47996 10.3614 4.36914 10.3166L2.28425 9.11665C2.12727 9.02081 2.01358 8.86792 1.96705 8.6901C1.92053 8.51229 1.94479 8.32338 2.03474 8.16306C2.12469 8.00273 2.27333 7.88347 2.44945 7.83031C2.62557 7.77716 2.81545 7.79425 2.97922 7.87799L5.06911 9.07794C5.15109 9.12345 5.22323 9.18474 5.28137 9.25826C5.3395 9.33178 5.38248 9.41608 5.40782 9.50629C5.43315 9.5965 5.44035 9.69083 5.42898 9.78384C5.41761 9.87684 5.38791 9.96667 5.34159 10.0481ZM3.13296 16.3139H0.695588C0.511107 16.3139 0.334181 16.2406 0.203733 16.1103C0.073285 15.98 0 15.8033 0 15.619C0 15.4347 0.073285 15.2579 0.203733 15.1276C0.334181 14.9973 0.511107 14.9241 0.695588 14.9241H3.13296C3.31744 14.9241 3.49437 14.9973 3.62482 15.1276C3.75526 15.2579 3.82855 15.4347 3.82855 15.619C3.82855 15.8033 3.75526 15.98 3.62482 16.1103C3.49437 16.2406 3.31744 16.3139 3.13296 16.3139ZM5.34159 21.1836C5.38851 21.2646 5.4187 21.3542 5.43038 21.447C5.44206 21.5399 5.43499 21.6342 5.40959 21.7243C5.38419 21.8144 5.34097 21.8985 5.28249 21.9716C5.22401 22.0447 5.15146 22.1054 5.06911 22.15L2.97922 23.35C2.87492 23.413 2.75303 23.4405 2.63174 23.4286C2.47497 23.4316 2.32173 23.382 2.19659 23.2876C2.07145 23.1932 1.98166 23.0596 1.9416 22.9082C1.90154 22.7567 1.91353 22.5963 1.97567 22.4524C2.0378 22.3086 2.14647 22.1898 2.28425 22.1151L4.37414 20.9151C4.4555 20.8693 4.54512 20.8399 4.63786 20.8288C4.73059 20.8177 4.82462 20.825 4.91453 20.8503C5.00444 20.8756 5.08845 20.9184 5.16174 20.9762C5.23503 21.0341 5.29616 21.1058 5.34159 21.1873V21.1836ZM9.67512 26.2506L8.47768 28.3383C8.41488 28.4474 8.32352 28.5374 8.21342 28.5985C8.10331 28.6597 7.97862 28.6897 7.85271 28.6854C7.73339 28.6781 7.61605 28.6516 7.50523 28.6068C7.42313 28.5619 7.35082 28.5011 7.29254 28.4279C7.23425 28.3548 7.19116 28.2707 7.16579 28.1807C7.14041 28.0907 7.13326 27.9966 7.14476 27.9038C7.15626 27.811 7.18617 27.7214 7.23274 27.6403L8.43393 25.5526C8.47981 25.4715 8.54123 25.4002 8.61467 25.3429C8.68812 25.2855 8.77216 25.2431 8.862 25.2182C8.95183 25.1933 9.04571 25.1863 9.13825 25.1976C9.2308 25.2089 9.32021 25.2383 9.40138 25.2841C9.48255 25.33 9.55389 25.3913 9.61132 25.4647C9.66875 25.5381 9.71116 25.622 9.73611 25.7118C9.76107 25.8015 9.76808 25.8953 9.75676 25.9877C9.74543 26.0802 9.71599 26.1695 9.67012 26.2506H9.67512ZM15.7148 27.4855V29.9204C15.7148 30.1047 15.6415 30.2814 15.5111 30.4117C15.3806 30.542 15.2037 30.6152 15.0192 30.6152C14.8347 30.6152 14.6578 30.542 14.5274 30.4117C14.3969 30.2814 14.3236 30.1047 14.3236 29.9204V27.4855C14.3231 27.3942 14.3408 27.3037 14.3755 27.2192C14.4103 27.1348 14.4614 27.0581 14.5261 26.9935C14.5907 26.9289 14.6675 26.8778 14.752 26.8431C14.8366 26.8084 14.9272 26.7908 15.0186 26.7913C15.1114 26.7871 15.2041 26.8024 15.2907 26.8362C15.3773 26.8699 15.4559 26.9213 15.5214 26.9872C15.5869 27.053 15.638 27.1318 15.6713 27.2184C15.7046 27.3051 15.7194 27.3978 15.7148 27.4905V27.4855ZM22.7619 27.6391C22.8088 27.7201 22.839 27.8097 22.8507 27.9026C22.8624 27.9954 22.8553 28.0897 22.8299 28.1798C22.8045 28.2699 22.7613 28.354 22.7028 28.4271C22.6443 28.5002 22.5718 28.5609 22.4894 28.6055C22.3786 28.6503 22.2613 28.6768 22.142 28.6842C22.0161 28.6879 21.8917 28.6577 21.7817 28.5966C21.6716 28.5355 21.5802 28.4458 21.517 28.3371L20.3158 26.2493C20.2659 26.1678 20.233 26.0771 20.2191 25.9825C20.2051 25.888 20.2104 25.7916 20.2346 25.6992C20.2588 25.6067 20.3014 25.5201 20.3598 25.4445C20.4183 25.3688 20.4915 25.3058 20.5749 25.2591C20.6584 25.2123 20.7504 25.1829 20.8455 25.1725C20.9406 25.1622 21.0368 25.1711 21.1284 25.1987C21.2199 25.2263 21.305 25.2722 21.3784 25.3334C21.4518 25.3946 21.5122 25.47 21.5557 25.5551L22.7619 27.6391ZM27.9879 23.1165C27.9251 23.2256 27.8337 23.3155 27.7236 23.3767C27.6135 23.4378 27.4888 23.4679 27.3629 23.4636C27.2436 23.4563 27.1263 23.4297 27.0155 23.3849L24.9256 22.185C24.8404 22.1415 24.7649 22.0812 24.7036 22.0078C24.6423 21.9345 24.5965 21.8495 24.5688 21.758C24.5412 21.6666 24.5322 21.5705 24.5426 21.4755C24.553 21.3805 24.5825 21.2885 24.6292 21.2052C24.676 21.1218 24.7391 21.0487 24.8148 20.9903C24.8905 20.9319 24.9772 20.8893 25.0698 20.8652C25.1623 20.841 25.2588 20.8357 25.3534 20.8497C25.4481 20.8636 25.5389 20.8965 25.6205 20.9463L27.7104 22.1463C27.7936 22.1912 27.867 22.2524 27.9261 22.3261C27.9853 22.3998 28.0291 22.4846 28.055 22.5754C28.0808 22.6663 28.0882 22.7615 28.0767 22.8552C28.0652 22.949 28.035 23.0395 27.9879 23.1215V23.1165ZM29.999 15.6146C29.9995 15.7059 29.9819 15.7964 29.9472 15.8809C29.9124 15.9653 29.8612 16.0421 29.7966 16.1066C29.732 16.1712 29.6552 16.2223 29.5706 16.257C29.4861 16.2917 29.3955 16.3094 29.3041 16.3089H26.8667C26.6822 16.3089 26.5053 16.2356 26.3749 16.1053C26.2444 15.975 26.1711 15.7983 26.1711 15.614C26.1711 15.4297 26.2444 15.253 26.3749 15.1226C26.5053 14.9923 26.6822 14.9191 26.8667 14.9191H29.3041C29.397 14.915 29.4897 14.9303 29.5763 14.9641C29.6629 14.9979 29.7415 15.0495 29.807 15.1155C29.8724 15.1815 29.9233 15.2604 29.9564 15.3472C29.9895 15.4341 30.004 15.5268 29.999 15.6196V15.6146ZM24.6581 10.0481C24.6112 9.96712 24.581 9.87754 24.5693 9.78467C24.5576 9.6918 24.5647 9.59754 24.5901 9.50745C24.6155 9.41736 24.6587 9.33326 24.7172 9.26014C24.7757 9.18701 24.8482 9.12633 24.9306 9.08169L27.0205 7.88174C27.1842 7.79799 27.3741 7.7809 27.5502 7.83406C27.7263 7.88721 27.875 8.00648 27.9649 8.1668C28.0549 8.32713 28.0791 8.51604 28.0326 8.69385C27.9861 8.87167 27.8724 9.02455 27.7154 9.1204L25.6255 10.3203C25.5212 10.3833 25.3993 10.4109 25.278 10.399C25.1537 10.3965 25.0319 10.3631 24.9237 10.3018C24.8155 10.2406 24.7242 10.1534 24.6581 10.0481ZM20.3208 4.98612L21.522 2.89839C21.6179 2.74157 21.771 2.62799 21.949 2.58151C22.127 2.53503 22.3161 2.55927 22.4766 2.64913C22.6371 2.73899 22.7564 2.88748 22.8097 3.06341C22.8629 3.23935 22.8458 3.42903 22.7619 3.59263L21.5607 5.68037C21.4979 5.78947 21.4066 5.87942 21.2965 5.94057C21.1864 6.00173 21.0617 6.03178 20.9358 6.0275C20.8165 6.02018 20.6991 5.99362 20.5883 5.94883C20.5066 5.904 20.4347 5.8433 20.3769 5.7703C20.3191 5.6973 20.2764 5.61348 20.2515 5.52378C20.2266 5.43407 20.2199 5.34029 20.2318 5.24796C20.2437 5.15562 20.2739 5.0666 20.3208 4.98612Z" fill="#FFB800"/>
</g>
<defs>
<clipPath id="clip0">
<rect width="30" height="30" fill="white" transform="translate(0 0.615234)"/>
</clipPath>
</defs>
</svg>
