<?xml version="1.0" encoding="utf-8"?><svg viewBox="0 0 36 35" xmlns="http://www.w3.org/2000/svg" xmlns:xlink="http://www.w3.org/1999/xlink"><style>:root>svg{display:none}:root>svg:target{display:block}</style><svg fill="none" viewBox="0 0 24 24" id="burger" xmlns="http://www.w3.org/2000/svg"><path d="M3.429 4.286H20.57M3.429 9.429H20.57M3.429 14.571H20.57M3.429 19.714H20.57" stroke="#0C0033" stroke-width="1.2" stroke-linecap="round"/></svg><svg fill="none" viewBox="0 0 20 20" id="calendar" xmlns="http://www.w3.org/2000/svg"><path d="M19.167 2.5h-2.5V.833a.834.834 0 00-1.667 0V2.5H5V.833a.834.834 0 00-1.667 0V2.5h-2.5A.834.834 0 000 3.333v15.834c0 .46.373.833.833.833h18.334c.46 0 .833-.373.833-.833V3.333a.834.834 0 00-.833-.833zm-17.5 15.833V9.167h11.666a.834.834 0 000-1.667H1.667V4.167h1.666V5A.834.834 0 005 5v-.833h10V5a.834.834 0 001.667 0v-.833h1.666V7.5h-1.666a.834.834 0 000 1.667h1.666v9.166H1.667z" fill="#768592"/><path d="M5 10.833h-.833a.834.834 0 000 1.667H5a.834.834 0 000-1.667zM8.75 10.833h-.833a.834.834 0 000 1.667h.833a.834.834 0 000-1.667zM12.083 10.833h-.833a.834.834 0 000 1.667h.833a.834.834 0 000-1.667zM15.833 10.833H15a.834.834 0 000 1.667h.833a.834.834 0 000-1.667zM5 14.167h-.833a.834.834 0 000 1.666H5a.834.834 0 000-1.666zM8.75 14.167h-.833a.834.834 0 000 1.666h.833a.834.834 0 000-1.666zM12.083 14.167h-.833a.834.834 0 000 1.666h.833a.834.834 0 000-1.666zM15.833 14.167H15a.834.834 0 000 1.666h.833a.834.834 0 000-1.666z" fill="#768592"/></svg><svg fill="inherit" stroke="inherit" viewBox="0 0 25 25" id="cart" xmlns="http://www.w3.org/2000/svg"><path d="M7.125 16.46h14.823c1.68 0 3.052-1.274 3.052-2.836V7.83v-.02-.042c0-.01 0-.02-.006-.03 0-.011-.005-.026-.005-.037 0-.01-.006-.02-.006-.03-.005-.01-.005-.021-.01-.037-.006-.01-.006-.02-.012-.03-.005-.01-.005-.02-.01-.031a.242.242 0 01-.017-.036c-.006-.01-.011-.02-.017-.026a4.642 4.642 0 01-.017-.03l-.016-.026c-.006-.01-.017-.02-.022-.031-.006-.01-.011-.016-.022-.026-.006-.01-.017-.015-.023-.026-.005-.01-.016-.015-.022-.025-.005-.01-.016-.016-.022-.02l-.027-.026c-.011-.006-.017-.016-.028-.021-.011-.005-.022-.015-.033-.02l-.028-.016c-.01-.005-.022-.01-.033-.02l-.033-.016a8.727 8.727 0 01-.033-.015l-.034-.016c-.01-.005-.022-.005-.033-.01a.108.108 0 00-.038-.01c-.011 0-.023-.005-.028-.005-.017-.006-.028-.006-.044-.006-.006 0-.011-.005-.022-.005L5.57 4.73V2.296c0-.026 0-.051-.005-.072 0-.005 0-.01-.006-.02 0-.016-.005-.031-.005-.047-.006-.015-.006-.025-.011-.04 0-.011-.006-.016-.006-.026l-.016-.047c0-.005-.006-.015-.006-.02a.15.15 0 00-.022-.041c-.006-.005-.006-.016-.011-.02a.107.107 0 00-.022-.032l-.017-.025-.016-.026c-.006-.01-.017-.02-.022-.03l-.017-.016-.033-.031-.017-.016c-.01-.01-.022-.02-.038-.03-.006-.006-.017-.01-.023-.016-.01-.01-.022-.015-.033-.026-.016-.01-.033-.02-.044-.025-.006-.005-.011-.005-.017-.01l-.071-.031L1.038.055C.656-.095.219.07.059.425c-.16.354.017.76.398.91l3.616 1.417V17.951c0 1.438 1.161 2.63 2.66 2.81-.271.421-.432.915-.432 1.439 0 1.546 1.355 2.8 3.013 2.8 1.66 0 3.014-1.259 3.014-2.8 0-.514-.15-1.002-.415-1.413h6.712c-.265.416-.415.899-.415 1.413 0 1.546 1.355 2.8 3.014 2.8 1.658 0 3.013-1.259 3.013-2.8 0-1.542-1.355-2.8-3.013-2.8H7.125c-.862 0-1.56-.653-1.56-1.45v-1.88c.454.247.99.39 1.56.39zm3.716 5.735c0 .78-.686 1.413-1.521 1.413-.835 0-1.52-.637-1.52-1.413s.685-1.413 1.52-1.413 1.52.632 1.52 1.413zm11.909 0c0 .78-.686 1.413-1.52 1.413-.836 0-1.521-.637-1.521-1.413s.685-1.413 1.52-1.413 1.52.632 1.52 1.413zm-.802-7.122H7.125c-.862 0-1.56-.652-1.56-1.449V6.128l17.942 2.297v5.194c0 .807-.702 1.454-1.559 1.454z"/></svg><svg fill="none" viewBox="0 0 20 20" id="clock" xmlns="http://www.w3.org/2000/svg"><g clip-path="url(#adclip0)" fill="#768592"><path d="M17.895 5.262a.833.833 0 00-.387 1.113A8.248 8.248 0 0118.333 10c0 4.595-3.738 8.333-8.333 8.333-4.595 0-8.333-3.738-8.333-8.333 0-4.595 3.738-8.333 8.333-8.333 1.904 0 3.693.621 5.173 1.798A.833.833 0 1016.21 2.16 10.016 10.016 0 0010 0C4.486 0 0 4.486 0 10s4.486 10 10 10 10-4.486 10-10a9.899 9.899 0 00-.992-4.35.832.832 0 00-1.113-.388z"/><path d="M10 3.333a.834.834 0 00-.833.834V10c0 .46.373.833.833.833h4.167a.834.834 0 000-1.666h-3.334v-5A.834.834 0 0010 3.333z"/></g><defs><clipPath id="adclip0"><path fill="#fff" d="M0 0h20v20H0z"/></clipPath></defs></svg><svg fill="none" viewBox="0 0 20 16" id="comments" xmlns="http://www.w3.org/2000/svg"><path d="M11.8 10.805c1.208-.508 2.165-1.203 2.864-2.082.7-.88 1.05-1.832 1.05-2.868 0-1.035-.35-1.992-1.05-2.867-.7-.879-1.652-1.57-2.863-2.082C10.59.398 9.277.141 7.855.141 6.434.14 5.121.395 3.91.906 2.7 1.414 1.746 2.11 1.047 2.988.352 3.868 0 4.824 0 5.856c0 .886.266 1.718.793 2.5.527.78 1.254 1.44 2.176 1.976-.074.18-.153.344-.23.492a2.973 2.973 0 01-.278.43c-.11.137-.191.246-.25.324a4.319 4.319 0 01-.29.328c-.132.14-.218.235-.257.278 0-.008-.016.007-.043.05-.031.04-.047.059-.05.055-.005-.004-.02.016-.044.055-.027.039-.039.062-.039.062l-.027.055a.225.225 0 00-.024.066c-.003.024-.003.047-.003.075 0 .027.004.05.011.074a.37.37 0 00.13.234c.07.059.148.09.23.09h.035c.37-.05.691-.113.96-.18a9.343 9.343 0 003.102-1.43c.668.118 1.325.18 1.965.18 1.41 0 2.727-.254 3.934-.765z" fill="#0C0033"/><path d="M19.207 11.219c.528-.778.793-1.614.793-2.504 0-.914-.281-1.77-.836-2.567-.558-.797-1.316-1.457-2.277-1.988.172.559.258 1.125.258 1.695 0 .996-.25 1.942-.746 2.836-.5.895-1.211 1.68-2.145 2.367A9.898 9.898 0 0111.31 12.5c-1.102.336-2.25.504-3.45.504-.222 0-.55-.016-.98-.043 1.496.98 3.25 1.473 5.27 1.473.64 0 1.293-.06 1.965-.18a9.344 9.344 0 003.101 1.43c.27.066.586.125.961.18a.34.34 0 00.246-.079.414.414 0 00.145-.246c-.004-.043 0-.07.011-.074.012-.004.008-.028-.003-.075l-.024-.066-.035-.059a.482.482 0 00-.04-.062c-.019-.027-.034-.043-.042-.055-.012-.011-.027-.03-.05-.054-.024-.028-.04-.043-.044-.051-.039-.043-.121-.137-.258-.277-.133-.141-.23-.25-.289-.329-.058-.078-.144-.187-.25-.324-.11-.136-.199-.281-.277-.43a5.823 5.823 0 01-.23-.492c.917-.539 1.644-1.195 2.171-1.972z" fill="#0C0033"/></svg><svg fill="none" viewBox="0 0 24 20" id="cup" xmlns="http://www.w3.org/2000/svg"><path d="M11.74 14.361a.923.923 0 01-.269.1c-.099.019-.2.028-.303.024v.523h.699v1.791h.753v-2.916h-.59a.603.603 0 01-.09.29.646.646 0 01-.2.188zM1.562 9.863s.305-.667-.162-1.383a2.03 2.03 0 00-1.2-.859s-.336.79.12 1.487c.455.699 1.242.755 1.242.755zM2.872 9.978s.75-.24 1.028-1.027c.277-.788-.237-1.474-.237-1.474s-.676.312-.962 1.12c-.283.807.171 1.381.171 1.381zM3.161 10.864c-.177.838.35 1.35.35 1.35s.713-.339.885-1.154c.171-.817-.428-1.43-.428-1.43s-.63.397-.807 1.234zM4.823 13.68s.678-.403.772-1.231c.096-.83-.56-1.383-.56-1.383s-.59.454-.688 1.306a1.5 1.5 0 00.476 1.308zM6.557 15.063s.534-.582.386-1.402c-.15-.822-.936-1.164-.936-1.164s-.434.605-.282 1.448c.152.843.832 1.118.832 1.118zM2.184 8.123s.625-.384.633-1.24c.008-.857-.52-1.38-.52-1.38s-.72.468-.728 1.304c-.009.833.615 1.316.615 1.316zM1.966 11.583s.095-.726-.563-1.274c-.659-.546-1.4-.466-1.4-.466s-.089.853.552 1.386c.643.533 1.411.354 1.411.354zM2.943 13.217s-.07-.732-.832-1.117c-.764-.388-1.469-.144-1.469-.144s.103.852.847 1.23c.744.375 1.454.03 1.454.03zM3.01 13.66c-.846-.139-1.443.307-1.443.307s.356.78 1.179.915c.823.135 1.396-.409 1.396-.409s-.288-.674-1.132-.813zM4.657 14.992c-.855-.036-1.396.477-1.396.477s.446.734 1.28.769c.833.035 1.336-.573 1.336-.573s-.364-.637-1.22-.673z" fill="#0C0033"/><path d="M2.38 8.586l-.398-.091c-.01.044-.928 4.374 5.265 7.567l.187-.363C1.54 12.66 2.344 8.752 2.38 8.587z" fill="#0C0033"/><path d="M15.99 17.422h-.391v-4.385h.39v-.642h-.474v-.448s-3.147-.585-3.147-1.889c0-.426.39-.896.901-1.508l.128.356.84-.302-.052-.145c1.377.08 2.516-.285 3.401-1.09 2.205-2.008 1.961-6.015 1.95-6.184l-.029-.417H16.94l.134.551c.056.24.03.437-.085.62-.276.434-.992.666-1.246.718h-.002c.003-.167.003-.338-.001-.512h.614v-.707H12v-.004H7.647v.707h.613c-.003.174-.004.345-.001.513h-.002c-.253-.052-.97-.285-1.246-.72-.115-.182-.141-.38-.085-.62L7.06.763H4.493l-.028.416c-.012.17-.256 4.176 1.949 6.185.885.805 2.024 1.171 3.4 1.09l-.051.144.84.303.128-.356c.512.613.9 1.082.9 1.508 0 1.304-3.146 1.89-3.146 1.89v.446H8.01v.643h.392v4.386H8.01v.727h-.279v1.087H12v.005h4.27v-1.088h-.28v-.727zm-.334-13.638h.621v-.349c.42-.137 1.093-.436 1.463-1.015.147-.233.232-.489.25-.76h.664c-.003 1.024-.162 3.676-1.671 5.049-.734.666-1.714.947-2.92.842.676-.921 1.352-2.116 1.593-3.767zm-8.64 2.921c-1.51-1.373-1.668-4.025-1.67-5.049h.663c.018.27.103.527.25.76.37.579 1.043.878 1.462 1.015v.349h.622c.241 1.652.916 2.847 1.593 3.768-1.206.104-2.185-.176-2.92-.843zm7.912 10.717H12v-.004H9.071V13.2H12v.004h2.928v4.217zM22.437 9.868s.787-.056 1.243-.755c.456-.698.12-1.487.12-1.487s-.733.142-1.2.86c-.47.715-.163 1.382-.163 1.382zM21.127 9.983s.456-.575.172-1.382a2.037 2.037 0 00-.962-1.12s-.515.686-.236 1.474c.276.787 1.026 1.028 1.026 1.028zM20.488 12.218s.526-.511.35-1.348c-.176-.838-.807-1.235-.807-1.235s-.599.613-.428 1.43c.17.815.885 1.153.885 1.153zM18.965 11.07s-.655.554-.56 1.383c.094.829.771 1.232.771 1.232s.573-.458.477-1.309c-.1-.851-.688-1.306-.688-1.306z" fill="#0C0033"/><path d="M17.057 13.664c-.148.822.386 1.403.386 1.403s.68-.275.833-1.117c.151-.843-.283-1.449-.283-1.449s-.788.343-.936 1.163zM21.815 8.128s.624-.483.614-1.317c-.008-.834-.726-1.304-.726-1.304s-.53.524-.52 1.38c.009.857.632 1.24.632 1.24zM23.996 9.847s-.74-.08-1.4.466c-.658.549-.563 1.275-.563 1.275s.77.179 1.411-.354c.64-.534.552-1.387.552-1.387zM21.89 12.104c-.765.387-.834 1.117-.834 1.117s.71.344 1.454-.034c.744-.377.847-1.229.847-1.229s-.705-.242-1.468.146zM20.99 13.665c-.845.14-1.133.813-1.133.813s.573.544 1.397.41c.823-.136 1.18-.916 1.18-.916s-.6-.445-1.444-.307zM18.122 15.668s.503.607 1.336.573c.833-.036 1.28-.769 1.28-.769s-.541-.513-1.395-.478a1.513 1.513 0 00-1.221.674z" fill="#0C0033"/><path d="M22.017 8.5l-.398.09c.037.165.842 4.074-5.054 7.114l.187.362c6.193-3.193 5.275-7.523 5.265-7.567z" fill="#0C0033"/></svg><svg fill="inherit" viewBox="0 0 36 35" id="disc" xmlns="http://www.w3.org/2000/svg"><path d="M18 0C8.375 0 .5 7.875.5 17.5S8.375 35 18 35s17.5-7.875 17.5-17.5S27.625 0 18 0zm0 33.833c-8.983 0-16.333-7.35-16.333-16.333C1.667 8.517 9.017 1.167 18 1.167c8.983 0 16.333 7.35 16.333 16.333 0 8.983-7.35 16.333-16.333 16.333z" stroke="transparent"/><path d="M20.333 21.583A2.34 2.34 0 0018 19.25a2.34 2.34 0 00-2.334 2.333A2.34 2.34 0 0018 23.916a2.34 2.34 0 002.333-2.333zM18 22.749a1.17 1.17 0 01-1.167-1.166A1.17 1.17 0 0118 20.416a1.17 1.17 0 011.166 1.167A1.17 1.17 0 0118 22.749zM19.75 17.5a2.34 2.34 0 002.333 2.332 2.34 2.34 0 002.334-2.332 2.34 2.34 0 00-2.334-2.333A2.34 2.34 0 0019.75 17.5zm3.5 0a1.17 1.17 0 01-1.167 1.166 1.17 1.17 0 01-1.166-1.166 1.17 1.17 0 011.166-1.167A1.17 1.17 0 0123.25 17.5zM15.666 13.416A2.34 2.34 0 0018 15.75a2.34 2.34 0 002.333-2.333A2.34 2.34 0 0018 11.083a2.34 2.34 0 00-2.334 2.333zM18 12.25a1.17 1.17 0 011.166 1.166A1.17 1.17 0 0118 14.583a1.17 1.17 0 01-1.167-1.167A1.17 1.17 0 0118 12.25zM13.917 15.167a2.34 2.34 0 00-2.333 2.333 2.34 2.34 0 002.333 2.332A2.34 2.34 0 0016.25 17.5a2.34 2.34 0 00-2.333-2.333zm0 3.499A1.17 1.17 0 0112.75 17.5a1.17 1.17 0 011.167-1.167 1.17 1.17 0 011.167 1.167 1.17 1.17 0 01-1.167 1.166zM3.417 15.283c1.633.7 3.383 1.05 5.133 1.05h1.458c.292 0 .525-.175.525-.409a7.68 7.68 0 015.775-5.775.568.568 0 00.467-.583V8.108c0-1.809-.35-3.5-1.05-5.134-.117-.233-.35-.408-.642-.35C9.075 3.791 4.233 8.633 3.067 14.641c-.059.292.116.525.35.642zM14.908 3.849c.467 1.342.759 2.742.759 4.2v.992a8.766 8.766 0 00-6.125 6.125H8.55c-1.458 0-2.858-.233-4.2-.758C5.517 9.216 9.717 5.016 14.908 3.849zM19.633 10.091a7.68 7.68 0 015.775 5.775.568.568 0 00.584.467h1.458c1.75 0 3.5-.35 5.075-1.108.233-.117.408-.35.35-.642-1.167-6.008-6.008-10.85-12.017-12.017-.291-.058-.525.117-.641.35a13.037 13.037 0 00-1.05 5.133v1.459c0 .291.175.525.466.583zm.759-1.983c0-1.459.233-2.859.758-4.2 5.192 1.166 9.333 5.308 10.5 10.5-1.342.466-2.742.758-4.2.758h-.992c-.816-2.975-3.15-5.308-6.066-6.067v-.991zM16.425 24.908a7.68 7.68 0 01-5.775-5.775.568.568 0 00-.584-.466H8.608c-1.808 0-3.5.35-5.133 1.05-.234.116-.409.35-.35.641 1.166 6.009 6.008 10.85 12.017 12.017h.116c.234 0 .409-.117.584-.292.7-1.633 1.05-3.383 1.05-5.133v-1.458a.568.568 0 00-.467-.584zm-.817 1.984c0 1.458-.233 2.858-.758 4.2-5.192-1.167-9.334-5.309-10.5-10.5 1.341-.467 2.741-.759 4.141-.817h.992a8.766 8.766 0 006.125 6.125v.992zM32.583 19.658a13.036 13.036 0 00-5.133-1.05h-1.458a.568.568 0 00-.584.467 7.68 7.68 0 01-5.775 5.775.568.568 0 00-.466.583v1.459c0 1.808.35 3.5 1.05 5.133.058.233.291.35.525.35.058 0 .116 0 .175-.058 6.008-1.167 10.85-6.009 12.016-12.017.059-.292-.116-.525-.35-.642zM21.092 31.15c-.467-1.342-.759-2.742-.759-4.2v-.992c2.975-.816 5.309-3.15 6.067-6.066h.992c1.458 0 2.858.233 4.2.758-1.167 5.192-5.309 9.333-10.5 10.5z" stroke="transparent"/></svg><svg fill="inherit" viewBox="0 0 22 22" id="filter" xmlns="http://www.w3.org/2000/svg"><path fill-rule="evenodd" clip-rule="evenodd" d="M4.4 2.2a2.2 2.2 0 11-4.4 0 2.2 2.2 0 014.4 0zm-1.32 0a.88.88 0 11-1.76 0 .88.88 0 011.76 0z"/><path d="M6.16 1.76a.88.88 0 01.88-.88h14.08a.88.88 0 010 1.76H7.04a.88.88 0 01-.88-.88z"/><path fill-rule="evenodd" clip-rule="evenodd" d="M11.129 9.68a2.2 2.2 0 100-4.4 2.2 2.2 0 000 4.4zm0-1.32a.88.88 0 100-1.76.88.88 0 000 1.76z"/><path d="M.88 6.16a.88.88 0 000 1.76h5.28a.88.88 0 000-1.76H.88zM15.84 6.16a.88.88 0 000 1.76h5.28a.88.88 0 000-1.76h-5.28z"/><path fill-rule="evenodd" clip-rule="evenodd" d="M22 13.64a2.2 2.2 0 11-4.4 0 2.2 2.2 0 014.4 0zm-1.32 0a.88.88 0 11-1.76 0 .88.88 0 011.76 0z"/><path d="M0 14.08a.88.88 0 01.88-.88h14.08a.88.88 0 010 1.76H.88a.88.88 0 01-.88-.88zM.88 18.48a.88.88 0 000 1.76h1.76a.88.88 0 000-1.76H.88zM11.44 19.36a.88.88 0 01.88-.88h8.8a.88.88 0 010 1.76h-8.8a.88.88 0 01-.88-.88z"/><path fill-rule="evenodd" clip-rule="evenodd" d="M9.68 19.8a2.2 2.2 0 11-4.4 0 2.2 2.2 0 014.4 0zm-1.32 0a.88.88 0 11-1.76 0 .88.88 0 011.76 0z"/></svg><svg fill="none" viewBox="0 0 16 16" id="kyivstar" xmlns="http://www.w3.org/2000/svg"><path fill-rule="evenodd" clip-rule="evenodd" d="M8 0c.698 0 1.263.566 1.263 1.263V5.12a1.263 1.263 0 11-2.526 0V1.263C6.737.566 7.302 0 8 0zM.068 6.001a1.263 1.263 0 011.604-.787L5.16 6.406a1.263 1.263 0 01-.816 2.39L.855 7.606A1.263 1.263 0 01.068 6zm15.864 0a1.263 1.263 0 01-.787 1.604l-3.489 1.192a1.263 1.263 0 11-.816-2.39l3.488-1.193a1.263 1.263 0 011.604.787zM6.71 10.577c.574.397.717 1.184.32 1.757l-2.155 3.12a1.263 1.263 0 11-2.079-1.435l2.156-3.12a1.263 1.263 0 011.758-.322zm2.578 0a1.263 1.263 0 011.758.321l2.156 3.12a1.263 1.263 0 01-2.079 1.437l-2.156-3.12a1.263 1.263 0 01.321-1.758z" fill="#00A0FF"/></svg><svg fill="inherit" viewBox="0 0 25 25" id="list" xmlns="http://www.w3.org/2000/svg"><path d="M0 1.846C0 .826.722 0 1.613 0h2.42c.89 0 1.612.827 1.612 1.846v3.308C5.645 6.174 4.923 7 4.032 7h-2.42C.723 7 0 6.173 0 5.154V1.846zM7.258 3.5c0-1.38.978-2.5 2.184-2.5h13.374C24.022 1 25 2.12 25 3.5S24.022 6 22.816 6H9.442C8.236 6 7.258 4.88 7.258 3.5zM7.258 12.5c0-1.38.978-2.5 2.184-2.5h13.374C24.022 10 25 11.12 25 12.5s-.978 2.5-2.184 2.5H9.442c-1.206 0-2.184-1.12-2.184-2.5zM7.258 21.5c0-1.38.978-2.5 2.184-2.5h13.374C24.022 19 25 20.12 25 21.5s-.978 2.5-2.184 2.5H9.442c-1.206 0-2.184-1.12-2.184-2.5zM0 10.846C0 9.826.722 9 1.613 9h2.42c.89 0 1.612.827 1.612 1.846v3.308c0 1.02-.722 1.846-1.613 1.846h-2.42C.723 16 0 15.173 0 14.154v-3.308zM0 19.846C0 18.826.722 18 1.613 18h2.42c.89 0 1.612.827 1.612 1.846v3.308c0 1.02-.722 1.846-1.613 1.846h-2.42C.723 25 0 24.173 0 23.154v-3.308z"/></svg><svg fill="none" viewBox="0 0 29 35" id="location" xmlns="http://www.w3.org/2000/svg"><path d="M27.9 13.593c0 5.228-3.052 10.332-6.193 14.185a48.245 48.245 0 01-4.296 4.598 42.387 42.387 0 01-1.806 1.604l-.102.083-.025.02-.006.005h-.001 0c-.521.416-1.421.416-1.942 0h0-.001l-.006-.005-.025-.02a26.873 26.873 0 01-.495-.414 48.256 48.256 0 01-5.71-5.87C4.153 23.925 1.1 18.82 1.1 13.592 1.1 6.433 7.083.6 14.5.6c7.417 0 13.4 5.834 13.4 12.993zm-21 .066c0 4.11 3.422 7.429 7.6 7.429 4.177 0 7.6-3.319 7.6-7.43 0-4.11-3.424-7.429-7.6-7.429-4.178 0-7.6 3.319-7.6 7.43z" stroke="inherit" stroke-width="1.2"/></svg><svg fill="none" viewBox="0 0 20 20" id="location-2" xmlns="http://www.w3.org/2000/svg"><path d="M13.43 14.582c.386.25.901.14 1.152-.245C16.52 11.356 17.5 9.055 17.5 7.5 17.5 3.365 14.135 0 10 0S2.5 3.365 2.5 7.5c0 3.874 6.158 11.36 6.86 12.2a.835.835 0 001.279 0c.039-.044.947-1.133 2.1-2.708a.834.834 0 00-1.345-.985 61.81 61.81 0 01-1.396 1.835C7.924 15.231 4.167 9.985 4.167 7.5A5.84 5.84 0 0110 1.667 5.84 5.84 0 0115.833 7.5c0 1.193-.94 3.3-2.648 5.93a.834.834 0 00.245 1.152z" fill="#768592"/><path d="M7.083 6.667A2.92 2.92 0 0010 9.583a2.92 2.92 0 002.917-2.916A2.92 2.92 0 0010 3.75a2.92 2.92 0 00-2.917 2.917zm4.167 0c0 .689-.56 1.25-1.25 1.25s-1.25-.561-1.25-1.25c0-.69.56-1.25 1.25-1.25s1.25.56 1.25 1.25z" fill="#768592"/></svg><svg fill="none" viewBox="0 0 25 26" id="mail" xmlns="http://www.w3.org/2000/svg"><path d="M12.14 3.43c-2.83 0-5.132 2.3-5.132 5.127a5.11 5.11 0 002.37 4.32c1.515.97 3.376 1.072 5.104.278a.732.732 0 10-.613-1.331c-1.264.581-2.612.515-3.7-.181a3.651 3.651 0 01-1.695-3.086 3.668 3.668 0 013.666-3.662 3.668 3.668 0 013.666 3.662.734.734 0 01-1.466.01v-.01a2.201 2.201 0 00-2.2-2.198 2.2 2.2 0 00-2.2 2.198 2.2 2.2 0 003.667 1.636 2.201 2.201 0 003.666-1.636A5.136 5.136 0 0012.14 3.43zm.723 5.244a.734.734 0 11.005-.201.737.737 0 00-.005.201z" fill="#0C0033"/><path d="M25 10.118a.737.737 0 00-.215-.517l-2.718-2.715V1.232A.733.733 0 0021.334.5H3.666a.733.733 0 00-.733.732v5.654L.215 9.601l-.007.008a.735.735 0 00-.208.509V23.303A2.2 2.2 0 002.2 25.5h20.6a2.2 2.2 0 002.2-2.197V10.118zm-2.933-1.16l1.163 1.161-1.163 1.162V8.958zM4.4 1.965h16.202v10.78l-3.97 3.966H8.369L4.4 12.746V1.964zM2.933 8.958v2.323L1.77 10.119l1.163-1.161zM1.466 22.999V11.887l5.563 5.556L1.466 23zm1.037 1.036l5.866-5.86h8.262l5.866 5.86H2.503zM23.533 23l-5.562-5.556 5.563-5.556V23z" fill="#0C0033"/></svg><svg fill="inherit" viewBox="0 0 22 22" id="person-key" xmlns="http://www.w3.org/2000/svg"><path fill-rule="evenodd" clip-rule="evenodd" d="M10.947 9.35c-.586.004-1.165.057-1.733.157-2.134-.24-3.735-2.038-3.735-4.14 0-2.26 1.849-4.169 4.222-4.169s4.222 1.908 4.222 4.168c0 1.845-1.232 3.455-2.976 3.985zM4.322 5.367a5.364 5.364 0 002.833 4.729c-2.767 1.108-5.044 3.392-6.146 6.416L.32 18.4c-.55 1.511.528 3.127 2.088 3.127H7.01a.59.59 0 00.579-.599.59.59 0 00-.579-.6H2.408c-.751 0-1.27-.777-1.005-1.505l.688-1.889c1.2-3.292 3.962-5.6 7.174-6.219a5.474 5.474 0 001.833-.166c.317.004.635.023.955.06.41.047.815.136 1.208.267l.833.277a.575.575 0 00.727-.388.604.604 0 00-.374-.753l-.832-.277a7.112 7.112 0 00-.572-.164 5.352 5.352 0 002.037-4.205A5.373 5.373 0 009.7 0a5.373 5.373 0 00-5.378 5.366zm10.582 8.217c.26-.406.7-.65 1.17-.65H18.2c1.689 0 3.058 1.418 3.058 3.168v2.732c0 1.749-1.37 3.167-3.058 3.167h-2.125c-.47 0-.91-.244-1.17-.65l-.846-1.317H8.77a.569.569 0 01-.41-.176L6.468 17.89a.612.612 0 01.062-.902l2.524-1.967c.1-.078.222-.12.348-.12h4.658l.845-1.318zm1.17.549a.246.246 0 00-.206.114l-1.017 1.585a.574.574 0 01-.481.268H9.594l-1.838 1.433 1.254 1.302h5.36c.193 0 .374.101.481.268l1.017 1.585a.246.246 0 00.207.115H18.2c1.05 0 1.9-.882 1.9-1.97v-2.731c0-1.088-.85-1.97-1.9-1.97h-2.125zm1.647 4.318a.985.985 0 10-.986-.983c0 .543.442.983.986.983z"/></svg><svg fill="none" viewBox="0 0 20 20" id="phone" xmlns="http://www.w3.org/2000/svg"><path d="M16.977 3.046a10.837 10.837 0 013.014 5.857.564.564 0 01-.465.656l-.01.002a.568.568 0 01-.65-.47 9.676 9.676 0 00-2.692-5.236 9.58 9.58 0 00-5.195-2.713.577.577 0 01-.47-.665.569.569 0 01.656-.468 10.699 10.699 0 015.812 3.037z" fill="#0C0033"/><path fill-rule="evenodd" clip-rule="evenodd" d="M16.842 18.944c-.643.702-1.463 1.056-2.44 1.056-.084 0-.177-.004-.266-.009-1.45-.093-2.747-.643-3.72-1.107-2.544-1.24-4.772-3-6.624-5.227-1.526-1.849-2.549-3.574-3.234-5.436-.279-.758-.642-1.917-.54-3.16A3.127 3.127 0 01.934 3.08l1.437-1.462.008-.008c.423-.409.922-.626 1.438-.626.515 0 1.006.217 1.416.626.275.256.54.528.795.792.126.137.262.273.393.405L7.576 3.97c.887.895.887 2.053 0 2.948l-.178.18-.177.182-.091.093c-.284.29-.577.59-.89.878.258.575.613 1.142 1.141 1.815 1.09 1.35 2.228 2.394 3.48 3.195.122.077.266.149.418.226l.108.056c.072.037.145.075.217.114l1.336-1.342c.427-.43.926-.656 1.446-.656.524 0 1.019.23 1.429.66l2.32 2.348c.427.426.651.933.651 1.46 0 .525-.22 1.036-.638 1.475-.182.191-.368.375-.55.55l-.058.057c-.245.238-.478.465-.681.713-.002.005-.006.008-.009.01a.041.041 0 00-.008.012zm-1.824-5.837l-.014-.015c-.232-.243-.446-.313-.618-.313-.173 0-.397.07-.65.325l-.002.001-1.336 1.342a1.12 1.12 0 01-1.328.194 9.754 9.754 0 00-.183-.096l-.12-.062-.01-.006a6.153 6.153 0 01-.49-.267l-.01-.006C8.889 13.33 7.664 12.2 6.51 10.77l-.01-.012c-.567-.723-.977-1.368-1.282-2.049a1.12 1.12 0 01.263-1.281c.29-.268.563-.546.85-.84l.095-.097.17-.174.002-.002.183-.186c.27-.272.34-.513.34-.685 0-.172-.07-.413-.34-.685L5.62 3.59a18.71 18.71 0 01-.406-.418 18.852 18.852 0 00-.772-.769c-.229-.228-.445-.3-.625-.3-.182 0-.409.073-.651.305L1.73 3.868c-.356.359-.551.777-.597 1.287-.08.99.21 1.957.477 2.68.633 1.722 1.585 3.338 3.045 5.108 1.751 2.107 3.852 3.764 6.248 4.932.943.45 2.075.917 3.297.998.087.004.151.007.203.007.66 0 1.17-.22 1.588-.666l.003-.004c.245-.299.521-.568.758-.797l.07-.07c.176-.168.348-.338.513-.512l.003-.002c.25-.264.328-.507.328-.701 0-.192-.076-.423-.322-.669l-.005-.005-2.32-2.347z" fill="#0C0033"/><path d="M10.81 4.801a5.347 5.347 0 012.916 1.525 5.445 5.445 0 011.514 2.94.568.568 0 00.562.477c.03 0 .057-.004.087-.008h.01a.575.575 0 00.47-.665 6.587 6.587 0 00-1.831-3.557 6.503 6.503 0 00-3.53-1.845.574.574 0 00-.66.469.569.569 0 00.462.664z" fill="#0C0033"/></svg><svg fill="inherit" viewBox="0 0 36 35" id="question" xmlns="http://www.w3.org/2000/svg"><path d="M17.769 19.887c-.264.647-.404 1.5-.422 2.56h1.568c0-1.626.496-2.866 1.489-3.72 1.203-1.131 2.02-2.12 2.45-2.964.43-.854.646-1.766.646-2.736 0-1.545-.44-2.767-1.317-3.666C21.313 8.454 20.123 8 18.611 8c-1.476 0-2.692.445-3.65 1.334-.957.88-1.444 2.058-1.462 3.531h1.568c.017-1.051.347-1.882.988-2.493.65-.62 1.502-.93 2.556-.93 1.045 0 1.858.323 2.437.97.589.638.883 1.519.883 2.642a4.91 4.91 0 01-.21 1.496 4.306 4.306 0 01-.58 1.2c-.246.359-.804.979-1.674 1.86-.87.87-1.436 1.63-1.7 2.277zM17.413 25.18a1.112 1.112 0 00-.277.769c0 .296.093.548.277.754.193.198.461.297.804.297.334 0 .597-.099.79-.297.202-.206.303-.458.303-.754 0-.306-.1-.562-.303-.768-.193-.216-.457-.324-.79-.324-.343 0-.61.108-.804.324z" stroke="transparent"/><path fill-rule="evenodd" clip-rule="evenodd" d="M32.5 17.5C32.5 25.508 26.008 32 18 32S3.5 25.508 3.5 17.5 9.992 3 18 3s14.5 6.492 14.5 14.5zm-1 0C31.5 24.956 25.456 31 18 31S4.5 24.956 4.5 17.5 10.544 4 18 4s13.5 6.044 13.5 13.5z" stroke="transparent"/><path fill-rule="evenodd" clip-rule="evenodd" d="M18 35c9.665 0 17.5-7.835 17.5-17.5S27.665 0 18 0 .5 7.835.5 17.5 8.335 35 18 35zm0-1.15c9.03 0 16.35-7.32 16.35-16.35 0-9.03-7.32-16.35-16.35-16.35-9.03 0-16.35 7.32-16.35 16.35 0 9.03 7.32 16.35 16.35 16.35z" stroke="transparent"/></svg><svg viewBox="-1 0 19 17" fill="inherit" id="rating-star" xmlns="http://www.w3.org/2000/svg"><path d="M17 6.5c-.2-.4-.6-.7-1-.8-.4 0-3.7-.5-4.1-.5-.2-.1-.4-.2-.4-.3-.2-.4-1.7-3.3-1.9-3.7C9.4.8 9 .6 8.5.6c-.4 0-.9.2-1.1.6-.2.4-1.6 3.3-1.8 3.7-.1.1-.3.2-.4.3-.4 0-3.7.5-4.1.5-.5.1-.9.4-1 .8-.2.5-.1.9.3 1.3.3.2 2.7 2.5 3 2.8.1.1.1.3.1.5-.1.4-.6 3.6-.7 3.9-.1.5.1.9.5 1.2.4.3.9.3 1.3.1.3-.2 3.3-1.7 3.7-1.9.1-.1.3-.1.5 0 .3.2 3.3 1.7 3.7 1.9.1.1.3.1.5.1.3 0 .5 0 .7-.2.4-.3.6-.7.5-1.2 0-.3-.6-3.5-.7-3.9 0-.2.1-.4.2-.5.2-.2 1.2-1.1 3-2.8.3-.6.4-1 .3-1.3z"/></svg><svg fill="none" viewBox="0 0 16 16" id="remove" xmlns="http://www.w3.org/2000/svg"><path d="M13.25 2H10.5v-.5A1.5 1.5 0 009 0H7a1.5 1.5 0 00-1.5 1.5V2H2.75c-.69 0-1.25.56-1.25 1.25v1a.5.5 0 00.5.5h12a.5.5 0 00.5-.5v-1c0-.69-.56-1.25-1.25-1.25zM6.5 1.5A.5.5 0 017 1h2a.5.5 0 01.5.5V2h-3v-.5zM2.449 5.75c-.09 0-.16.075-.156.164l.412 8.657A1.498 1.498 0 004.203 16h7.593c.802 0 1.46-.627 1.499-1.429l.412-8.657a.156.156 0 00-.156-.164H2.45zM10 7a.5.5 0 111 0v6.5a.5.5 0 11-1 0V7zM7.5 7a.5.5 0 111 0v6.5a.5.5 0 11-1 0V7zM5 7a.5.5 0 111 0v6.5a.5.5 0 11-1 0V7z" fill="#768592"/></svg><svg fill="none" viewBox="0 0 16 16" id="search" xmlns="http://www.w3.org/2000/svg"><path d="M10.917 9.667h-.659l-.233-.225a5.393 5.393 0 001.308-3.525 5.416 5.416 0 10-5.416 5.416 5.393 5.393 0 003.525-1.308l.225.233v.659l4.166 4.158 1.242-1.242-4.158-4.166zm-5 0a3.745 3.745 0 01-3.75-3.75 3.745 3.745 0 013.75-3.75 3.745 3.745 0 013.75 3.75 3.745 3.745 0 01-3.75 3.75z" fill="#B0BAC9"/></svg><svg fill="inherit" viewBox="0 0 36 35" id="service" xmlns="http://www.w3.org/2000/svg"><path d="M22.358 20.924a.54.54 0 00-.77 0 .555.555 0 000 .78l5.39 5.452a.54.54 0 00.769 0 .555.555 0 000-.78l-5.389-5.452z" stroke="transparent"/><path fill-rule="evenodd" clip-rule="evenodd" d="M5.525 25.75a.544.544 0 00-.454.305l-1.094 2.233a.556.556 0 00.034.55l1.364 2.076a.542.542 0 00.488.244l2.458-.157a.544.544 0 00.454-.305l1.095-2.233a.556.556 0 00-.035-.55l-1.364-2.076a.542.542 0 00-.487-.244l-2.46.157zm.583 4.289l-1.016-1.546.815-1.664 1.832-.117 1.016 1.547-.816 1.663-1.831.117z" stroke="transparent"/><path d="M24.354 11.354a.5.5 0 00-.708-.708l-13 13a.5.5 0 00.708.708l13-13z" stroke="transparent"/><path fill-rule="evenodd" clip-rule="evenodd" d="M4.304 10.446L.883 5.265 5.34.754l5.121 3.46 1.181 2.776 5.133 5.193 4.663-4.719a6.818 6.818 0 011.93-5.478A6.648 6.648 0 0130.56.468a.555.555 0 01.186.902l-2.937 2.972.272 2.472 2.443.274 2.936-2.971a.54.54 0 01.892.188c.942 2.433.443 5.307-1.501 7.275a6.646 6.646 0 01-5.414 1.952l-2.729 2.76 1.735 1.755a.554.554 0 01-.136.88 1.234 1.234 0 00-.309.228c-.46.466-.438 1.114-.105 1.452.334.337.974.36 1.435-.107a1.25 1.25 0 00.226-.312.54.54 0 01.87-.138l5.483 5.549a5.554 5.554 0 010 7.789 5.399 5.399 0 01-7.699 0l-5.483-5.548a.555.555 0 01.136-.88c.109-.056.213-.132.308-.228.46-.466.439-1.114.105-1.452-.333-.337-.974-.36-1.434.106-.095.096-.17.202-.226.312a.54.54 0 01-.87.138L17.01 24.08l-3.135 3.173a6.817 6.817 0 01-1.93 5.478 6.649 6.649 0 01-9.48 0c-2.619-2.65-2.618-6.944 0-9.593a6.646 6.646 0 015.413-1.952l4.302-4.352-5.132-5.193-2.743-1.195zm8.641 5.613l3.064-3.1-5.28-5.344-1.136-2.67-4.11-2.777-3.202 3.24 2.745 4.159 2.638 1.149 5.281 5.343zm4.834 7.242l6.159-6.23 1.29 1.304c-.816.825-.932 2.174-.106 3.01.826.835 2.16.718 2.975-.107l4.654 4.71-6.159 6.23-4.654-4.708c.815-.825.931-2.174.105-3.01-.826-.835-2.16-.718-2.974.106l-1.29-1.305zm-14.546.616c-2.192 2.219-2.193 5.816 0 8.035a5.569 5.569 0 007.941 0 5.713 5.713 0 001.589-4.822.555.555 0 01.154-.467l13.936-14.1a.54.54 0 01.461-.156A5.565 5.565 0 0032.08 10.8a5.722 5.722 0 001.51-5.258l-2.483 2.511a.54.54 0 01-.445.158l-3.135-.352a.548.548 0 01-.481-.487L26.697 4.2a.555.555 0 01.156-.45l2.482-2.511a5.568 5.568 0 00-5.196 1.527 5.713 5.713 0 00-1.588 4.822.555.555 0 01-.154.467L8.46 22.154a.54.54 0 01-.461.156 5.565 5.565 0 00-4.766 1.607zm29.903 8.69a4.318 4.318 0 01-5.75.366l6.11-6.183a4.445 4.445 0 01-.36 5.818z" stroke="transparent"/></svg><svg fill="none" viewBox="0 0 20 20" id="sort" xmlns="http://www.w3.org/2000/svg"><path d="M7.22 4.184a.781.781 0 001.108-1.102L5.946.686A2.328 2.328 0 004.29 0c-.626 0-1.214.244-1.656.685L.23 3.08a.781.781 0 101.103 1.107l2.144-2.135v15.92l-2.142-2.155a.781.781 0 00-1.108 1.102l2.381 2.396A2.328 2.328 0 004.266 20c.626 0 1.214-.244 1.656-.685l2.403-2.394a.781.781 0 00-1.103-1.107L5.04 17.988V1.99l2.18 2.194zM19.219 18.438h-7.813a.781.781 0 000 1.562h7.813a.781.781 0 000-1.563zM11.406 1.563h7.813a.781.781 0 000-1.563h-7.813a.781.781 0 000 1.563zM19.219 4.61h-7.813a.781.781 0 000 1.562h7.813a.781.781 0 000-1.563zM19.219 13.828h-7.813a.781.781 0 000 1.563h7.813a.781.781 0 100-1.563zM19.219 9.219h-7.813a.781.781 0 000 1.562h7.813a.781.781 0 100-1.562z" fill="#F44336"/></svg><svg fill="none" viewBox="0 0 16 16" id="telegram" xmlns="http://www.w3.org/2000/svg"><path d="M8 16A8 8 0 108 0a8 8 0 000 16z" fill="#039BE5"/><path d="M3.66 7.827l7.714-2.974c.358-.13.67.087.555.628l-1.313 6.187c-.097.439-.358.546-.723.339l-2-1.474-.964.93c-.107.106-.197.196-.404.196l.142-2.036 3.707-3.348c.161-.142-.036-.222-.249-.08l-4.58 2.883-1.975-.616c-.429-.136-.438-.429.09-.635z" fill="#fff"/></svg><svg fill="none" viewBox="0 0 31 30" id="telegram-2" xmlns="http://www.w3.org/2000/svg"><g clip-path="url(#awclip0)"><path d="M15.483 30c8.285 0 15-6.716 15-15 0-8.284-6.715-15-15-15-8.284 0-15 6.716-15 15 0 8.284 6.716 15 15 15z" fill="#fff"/><path d="M6.347 14.675L20.81 9.1c.671-.243 1.257.164 1.04 1.179l.001-.002-2.462 11.602c-.183.822-.672 1.022-1.355.635l-3.75-2.764-1.81 1.742c-.2.2-.368.37-.755.37l.266-3.817 6.95-6.279c.302-.266-.068-.416-.466-.151l-8.59 5.407-3.702-1.155c-.804-.255-.821-.803.17-1.19z" fill="#039BE5"/></g><defs><clipPath id="awclip0"><path fill="#fff" transform="translate(.483)" d="M0 0h30v30H0z"/></clipPath></defs></svg><svg fill="inherit" viewBox="0 0 25 25" id="tile" xmlns="http://www.w3.org/2000/svg"><path d="M0 2.77C0 1.24 1.343 0 3 0h1c1.657 0 3 1.24 3 2.77v1.46C7 5.76 5.657 7 4 7H3C1.343 7 0 5.76 0 4.23V2.77zM9 2.77C9 1.24 10.343 0 12 0h1c1.657 0 3 1.24 3 2.77v1.46C16 5.76 14.657 7 13 7h-1c-1.657 0-3-1.24-3-2.77V2.77zM21 0c-1.657 0-3 1.24-3 2.77v1.46C18 5.76 19.343 7 21 7h1c1.657 0 3-1.24 3-2.77V2.77C25 1.24 23.657 0 22 0h-1zM0 11.77C0 10.24 1.343 9 3 9h1c1.657 0 3 1.24 3 2.77v1.46C7 14.76 5.657 16 4 16H3c-1.657 0-3-1.24-3-2.77v-1.46zM12 9c-1.657 0-3 1.24-3 2.77v1.46C9 14.76 10.343 16 12 16h1c1.657 0 3-1.24 3-2.77v-1.46C16 10.24 14.657 9 13 9h-1zM18 11.77C18 10.24 19.343 9 21 9h1c1.657 0 3 1.24 3 2.77v1.46c0 1.53-1.343 2.77-3 2.77h-1c-1.657 0-3-1.24-3-2.77v-1.46zM3 18c-1.657 0-3 1.24-3 2.77v1.46C0 23.76 1.343 25 3 25h1c1.657 0 3-1.24 3-2.77v-1.46C7 19.24 5.657 18 4 18H3zM9 20.77C9 19.24 10.343 18 12 18h1c1.657 0 3 1.24 3 2.77v1.46c0 1.53-1.343 2.77-3 2.77h-1c-1.657 0-3-1.24-3-2.77v-1.46zM21 18c-1.657 0-3 1.24-3 2.77v1.46c0 1.53 1.343 2.77 3 2.77h1c1.657 0 3-1.24 3-2.77v-1.46c0-1.53-1.343-2.77-3-2.77h-1z"/></svg><svg fill="none" viewBox="0 0 13 12" id="triangle" xmlns="http://www.w3.org/2000/svg"><path d="M.048 11.25h12.045L6.07.167.048 11.25zm6.57-1.75H5.523V8.333h1.095V9.5zm0-2.333H5.523V4.833h1.095v2.334z" fill="#D74B48"/></svg><svg fill="inherit" viewBox="0 0 36 35" id="truck" xmlns="http://www.w3.org/2000/svg"><path d="M20.917 22.167c0 .35-.234.583-.584.583h-4.666c-.35 0-.584-.233-.584-.583s.234-.584.584-.584h4.666c.35 0 .584.234.584.584zM22.083 23.917h-8.166c-.35 0-.584.233-.584.583s.234.583.584.583h8.166c.35 0 .584-.233.584-.583s-.234-.583-.584-.583z" stroke="transparent"/><path fill-rule="evenodd" clip-rule="evenodd" d="M9.5 11a2 2 0 012-2h13a2 2 0 012 2v6a2 2 0 01-2 2h-13a2 2 0 01-2-2v-6zm2-1h13a1 1 0 011 1v6a1 1 0 01-1 1h-13a1 1 0 01-1-1v-6a1 1 0 011-1zM10.5 24c0-1.1-.9-2-2-2s-2 .9-2 2 .9 2 2 2 2-.9 2-2zm-2 1c-.55 0-1-.45-1-1s.45-1 1-1 1 .45 1 1-.45 1-1 1zM27.5 22c1.1 0 2 .9 2 2s-.9 2-2 2-2-.9-2-2 .9-2 2-2zm-1 2c0 .55.45 1 1 1s1-.45 1-1-.45-1-1-1-1 .45-1 1z" stroke="transparent"/><path fill-rule="evenodd" clip-rule="evenodd" d="M33.108 9.975h1.342c.583 0 1.05.467 1.05 1.05V14.7c0 .583-.467 1.05-1.05 1.05h-1.342c-.583 0-1.05-.467-1.05-1.05v-1.283h-.641v6.416H32c.35 0 .583.234.583.584v7.018l-.001.01.001.03v2.275c0 .992-.758 1.75-1.75 1.75h-.583v1.167A2.34 2.34 0 0127.917 35h-2.334a2.34 2.34 0 01-2.333-2.333V31.5h-10.5v1.167A2.34 2.34 0 0110.417 35H8.083a2.34 2.34 0 01-2.333-2.333V31.5h-.583c-.992 0-1.75-.758-1.75-1.75v-2.275V27.435v-7.018c0-.35.233-.584.583-.584h.583v-6.416h-.641V14.7c.058.583-.409 1.05-.992 1.05h-1.4C.967 15.75.5 15.283.5 14.7v-3.675c0-.583.467-1.05 1.05-1.05h1.342c.583 0 1.05.467 1.05 1.05v1.225h.641V1.75c0-.992.759-1.75 1.75-1.75h23.334c.991 0 1.75.758 1.75 1.75v10.5h.641v-1.225c0-.583.467-1.05 1.05-1.05zM1.667 14.583h1.166v-3.5H1.667v3.5zm8.75 19.25a1.17 1.17 0 001.166-1.166V31.5H6.917v1.167a1.17 1.17 0 001.166 1.166h2.334zm17.5 0a1.17 1.17 0 001.166-1.166V31.5h-4.666v1.167a1.17 1.17 0 001.166 1.166h2.334zm2.916-3.5c.35 0 .584-.233.584-.583v-1.692H4.583v1.692c0 .35.234.583.584.583h25.666zm-26.25-3.5h26.834V21h-3.5V8.05c0-.583-.467-1.05-1.05-1.05H9.133c-.583 0-1.05.467-1.05 1.05V21h-3.5v5.833zm24.5-18.783v11.783h1.167V1.75c0-.35-.233-.583-.583-.583H6.333c-.35 0-.583.233-.583.583v18.083h1.167V8.05c0-1.225.991-2.217 2.216-2.217H11v-1.75c0-.35.233-.583.583-.583s.584.233.584.583v1.75h1.75v-1.75c0-.35.233-.583.583-.583s.583.233.583.583v1.75h1.75v-1.75c0-.35.234-.583.584-.583s.583.233.583.583v1.75h1.75v-1.75c0-.35.233-.583.583-.583s.584.233.584.583v1.75h1.75v-1.75c0-.35.233-.583.583-.583s.583.233.583.583v1.75h3.034c1.225 0 2.216.992 2.216 2.217zm4.084 6.533h1.166v-3.5h-1.166v3.5z" stroke="transparent"/></svg><svg fill="inherit" viewBox="0 0 36 35" id="type" xmlns="http://www.w3.org/2000/svg"><path d="M35.5 17.383l-.003-.174c0-.08-.002-.16-.004-.239l-.001-.058c-.12-4.775-1.684-9.081-4.132-12.153C29.184 2.013 26.309.243 23.125 0H23l-.134.014A9.94 9.94 0 0022.375 0h-8.75c-3.25 0-6.224 1.584-8.517 4.198a.654.654 0 00-.16.186C2.222 7.596.5 12.292.5 17.5.5 27.125 6.375 35 13.625 35h8.75c.178 0 .355-.006.532-.016.052.006.104.012.155.016 6-.467 11-6.183 12.188-14.058l.02-.184c.15-1.057.23-2.145.23-3.258v-.117zm-20.671 9.301a.485.485 0 00-.082-.188C13.64 23.914 13 20.823 13 17.5c0-8.612 4.357-15.677 9.908-16.316C29.223 1.569 34.25 8.761 34.25 17.5c0 8.74-5.028 15.931-11.343 16.316-3.394-.386-6.306-3.123-8.078-7.132zM2.528 23.31c.136-.04.273-.124.41-.209l.812-1.167 1.312 1.225c.25.234.625.234.876 0l1.437-1.341 1.5 1.4c.25.233.625.233.875 0l1.5-1.4 1.027.857c.218 1.041.5 2.04.84 2.989L12 25.142c-.312-.175-.625-.059-.812.175l-.813 1.166-1.312-1.225a.634.634 0 00-.875 0L6.75 26.6l-1.438-1.342a.634.634 0 00-.875 0l-.902.843a19.353 19.353 0 01-1.007-2.792zm-.775-5.522l1.56.821a.7.7 0 00.75-.116L5.5 17.15 7 18.492c.25.233.625.233.875 0l1.5-1.4 2.392 1.35c.03.839.1 1.662.207 2.466l-.474-.375c-.25-.175-.625-.116-.812.059L9.25 21.933l-1.437-1.341a.634.634 0 00-.876 0L5.5 21.933l-1.438-1.341a.74.74 0 00-.5-.175c-.187 0-.375.116-.5.233l-.878 1.23a22.01 22.01 0 01-.431-4.093zM3.794 8.35l1.393.867c.188.116.5.116.688 0l1.5-.934 1.562.992c.188.117.5.117.688 0l1.562-.992 1.992.903a22.44 22.44 0 00-.826 2.81l-.79-.738a.635.635 0 00-.876 0L9.25 12.6l-1.438-1.342a.634.634 0 00-.875 0L5.5 12.6l-1.438-1.342a.587.587 0 00-.437-.175.587.587 0 00-.438.175l-.735.71A19.209 19.209 0 013.794 8.35zm2.013-3.133L9.75 4.142l1.625.991c.188.117.5.117.688 0l1.562-.991 1.743.79c-.67.958-1.264 2.03-1.766 3.195l-2.29-1.069c-.187-.058-.437-.058-.624.059l-1.5.933-1.5-.933a.719.719 0 00-.688 0l-1.5.933-1.14-.753c.438-.75.922-1.446 1.447-2.08zm3.755 10.65a.7.7 0 00-.75.116l-1.437 1.342-1.438-1.342a.634.634 0 00-.875 0L3.5 17.442l-1.728-.929c.038-.872.126-1.726.26-2.557a.663.663 0 00.218-.13l1.375-1.343 1.437 1.342c.25.233.625.233.876 0l1.437-1.342 1.438 1.342c.25.233.625.233.875 0l1.437-1.342.813.759a.659.659 0 00.15.106 25.3 25.3 0 00-.334 3.745l-2.192-1.226zm9.782-14.7c-1.198.687-2.3 1.65-3.27 2.834l-2.199-1.026c-.188-.058-.438-.058-.625.058l-1.5.934-1.5-.934c-.188-.116-.375-.116-.562-.116l-2.166.577c1.783-1.476 3.87-2.327 6.103-2.327h5.719zM4.088 27.218l.787-.735 1.438 1.342c.25.233.624.233.875 0l1.437-1.342 1.438 1.342c.124.117.25.175.437.175.25 0 .438-.117.5-.292l.938-1.341 1.805.842a17.718 17.718 0 001.62 2.86l-1.176.731-1.5-.933a.719.719 0 00-.687 0l-1.5.933-1.5-.933a.719.719 0 00-.688 0l-1.544.96c-1.026-1.001-1.931-2.221-2.68-3.609zm9.537 6.615c-2.17 0-4.204-.804-5.954-2.206l.954-.594 1.563.934c.187.116.5.116.687 0l1.5-.934 1.438.992c.187.117.5.117.687 0l1.598-.994c.97 1.17 2.07 2.122 3.268 2.802h-5.741z" stroke="transparent"/><path d="M23.625 4.666c-3.236 0-5.949 3.379-7.015 8.225a21.39 21.39 0 00-.1.487c-.01.046-.018.093-.027.14a19.316 19.316 0 00-.198 1.29 20.408 20.408 0 00-.055.507l-.017.176c-.011.13-.022.26-.031.392l-.01.148-.02.349-.005.102c-.006.146-.01.293-.014.44l-.003.114a22.89 22.89 0 00.018 1.48c0 .035.003.068.005.102.005.117.012.234.02.35l.009.147.031.392.017.176a22.633 22.633 0 00.17 1.32 19.76 19.76 0 00.083.478l.026.139c.026.135.054.268.082.401l.019.086c1.066 4.846 3.779 8.225 7.015 8.225 4.187 0 7.5-5.658 7.5-12.833s-3.313-12.833-7.5-12.833zm-6.167 14.678l-.01-.108-.012-.161a18.85 18.85 0 01-.017-.228l-.008-.129a21.88 21.88 0 01-.018-.356l-.002-.065a20.712 20.712 0 01-.013-1.128c.035-2.176.411-4.23 1.03-5.976.917 1.461 1.467 3.77 1.467 6.306s-.55 4.844-1.467 6.306a18.395 18.395 0 01-.95-4.461zm6.167 9.822c-1.838 0-3.528-1.593-4.686-4.06 1.324-1.52 2.186-4.412 2.186-7.607 0-3.195-.862-6.088-2.186-7.606 1.158-2.468 2.848-4.06 4.686-4.06 3.375 0 6.25 5.366 6.25 11.666 0 6.3-2.875 11.667-6.25 11.667z" stroke="transparent"/></svg><svg fill="none" viewBox="0 0 16 16" id="vodaphone" xmlns="http://www.w3.org/2000/svg"><path d="M11.466.788C9.994.997 8.855 2.37 8.826 4.04c2.037.375 3.575 1.743 3.575 4.183 0 2.355-1.956 4.259-4.401 4.259-2.43.005-4.401-2.132-4.401-4.9 0-3.817 3.39-6.984 7.677-6.884A8.025 8.025 0 008 0a8 8 0 103.466.788z" fill="#F91600"/></svg></svg>