<svg width="21" height="25" viewBox="0 0 21 25" fill="none" xmlns="http://www.w3.org/2000/svg">
    <path fill-rule="evenodd" clip-rule="evenodd" d="M11.8745 24.1042C11.8745 24.1042 20.3824 17.2467 20.3824 9.84224C20.3824 4.73524 16.1686 0.595215 10.9706 0.595215C5.7727 0.595215 1.55893 4.73524 1.55884 9.84224C1.55884 17.2467 10.0667 24.1042 10.0667 24.1042C10.5638 24.5049 11.3774 24.5049 11.8745 24.1042ZM6.2643 9.88681C6.2643 12.4484 8.37529 14.5325 10.9702 14.5325C13.5651 14.5325 15.6761 12.4483 15.6761 9.88672C15.6761 7.3251 13.565 5.24101 10.9702 5.24101C8.37539 5.24101 6.2643 7.3252 6.2643 9.88681Z" fill="#F44336"/>
    <path fill-rule="evenodd" clip-rule="evenodd" d="M10.9707 1.19048C6.0812 1.19048 2.14726 5.08042 2.14717 9.84228C2.14717 13.3322 4.16419 16.7616 6.26878 19.3738C7.31183 20.6684 8.35633 21.7377 9.1403 22.4833C9.53192 22.8558 9.85757 23.1466 10.0843 23.3434C10.1976 23.4417 10.2861 23.5166 10.3456 23.5663C10.3637 23.5814 10.3791 23.5941 10.3917 23.6046C10.3999 23.6113 10.4069 23.6171 10.4127 23.6219L10.429 23.6352L10.4327 23.6382C10.7153 23.8659 11.2254 23.8664 11.508 23.6387L11.5124 23.6352L11.5287 23.6219C11.5434 23.6098 11.566 23.5912 11.5958 23.5663C11.6553 23.5166 11.7438 23.4417 11.8572 23.3434C12.0838 23.1466 12.4095 22.8558 12.8011 22.4833C13.5851 21.7377 14.6296 20.6684 15.6726 19.3738C17.7772 16.7616 19.7942 13.3322 19.7942 9.84227C19.7942 5.08043 15.8603 1.19048 10.9707 1.19048ZM0.970703 9.84226C0.970804 4.3901 5.46439 0 10.9707 0C16.4771 0 20.9707 4.39009 20.9707 9.84227C20.9707 13.7567 18.7338 17.4583 16.5845 20.126C15.5005 21.4714 14.4181 22.5792 13.6068 23.3508C13.2008 23.7369 12.8618 24.0397 12.6232 24.2469C12.5039 24.3505 12.4096 24.4302 12.3446 24.4845C12.312 24.5117 12.2868 24.5325 12.2694 24.5468L12.2492 24.5633L12.2436 24.5678L12.242 24.5691C12.242 24.5691 12.2411 24.5698 11.9646 24.2186L12.2411 24.5698C11.5295 25.1434 10.4119 25.1434 9.70028 24.5698L9.97677 24.2186C9.70027 24.5698 9.70028 24.5698 9.70028 24.5698L9.6978 24.5678L9.69222 24.5633L9.67203 24.5468C9.65461 24.5325 9.62938 24.5117 9.59685 24.4845C9.53179 24.4302 9.43751 24.3505 9.31819 24.2469C9.07959 24.0397 8.74057 23.7369 8.33458 23.3508C7.52333 22.5792 6.44086 21.4714 5.35695 20.126C3.20761 17.4583 0.970703 13.7567 0.970703 9.84226ZM10.9705 5.83622C8.68682 5.83622 6.85286 7.66767 6.85286 9.88679C6.85286 12.1059 8.68672 13.9373 10.9705 13.9373C13.2543 13.9373 15.0882 12.1058 15.0882 9.8867C15.0882 7.66759 13.2542 5.83622 10.9705 5.83622ZM5.67639 9.88679C5.67639 6.98267 8.06461 4.64574 10.9705 4.64574C13.8764 4.64574 16.2646 6.98256 16.2646 9.8867C16.2646 12.7908 13.8765 15.1277 10.9705 15.1277C8.06452 15.1277 5.67639 12.7909 5.67639 9.88679Z" fill="#0C0033"/>
</svg>
