<svg width="25" height="26" viewBox="0 0 25 26" fill="none" xmlns="http://www.w3.org/2000/svg">
<path d="M9.37683 2.7822L9.36869 2.76589L8.85206 0.770756C8.75965 0.438935 8.95286 0.111313 9.28048 0.0231072C9.61231 -0.0692989 9.93993 0.123914 10.0281 0.451535L10.5448 2.45087C10.633 2.78269 10.4398 3.11031 10.1121 3.19852C9.90212 3.26572 9.66691 3.16911 9.5283 3.02631C9.46504 2.95909 9.42039 2.86955 9.37683 2.7822Z" fill="#FFB800"/>
<path d="M5.79429 5.60947C5.55907 5.84469 5.18105 5.83629 4.95003 5.60107L3.49254 4.10578C3.25732 3.86636 3.26572 3.49253 3.50094 3.26152C3.74035 3.0263 4.11418 3.0347 4.34519 3.26992L5.80269 4.76522C6.0379 5.00463 6.0295 5.37846 5.79429 5.60947Z" fill="#FFB800"/>
<path d="M15.0601 3.23212C15.3877 3.33292 15.7195 3.14811 15.8161 2.82049L16.379 0.833759C16.4798 0.506138 16.2949 0.174316 15.9673 0.0777094C15.6397 -0.0230973 15.3079 0.161715 15.2113 0.489336L14.6484 2.48027C14.577 2.69028 14.6652 2.9255 14.8081 3.06831C14.8753 3.13971 14.9425 3.21112 15.0601 3.23212Z" fill="#FFB800"/>
<path d="M2.45087 14.3923C2.78269 14.2998 3.11031 14.4931 3.19852 14.8207C3.28672 15.1525 3.09771 15.4759 2.76589 15.5725L0.766556 16.0892C0.556542 16.1564 0.321327 16.0598 0.182718 15.917C0.119462 15.8497 0.0748117 15.7602 0.0312549 15.6729L0.0231072 15.6565C-0.0692989 15.3247 0.123914 14.9971 0.451535 14.9089L2.45087 14.3923Z" fill="#FFB800"/>
<path d="M0.535521 9.72575L2.52225 10.2886C2.84987 10.3894 3.1817 10.2046 3.2783 9.87696C3.37491 9.54933 3.16909 9.19231 2.86247 9.12091L0.879944 8.55807C0.552323 8.45726 0.220501 8.64207 0.123894 8.9697C0.0524896 9.17971 0.140695 9.41493 0.283505 9.55774C0.350709 9.62914 0.417914 9.70055 0.535521 9.72575Z" fill="#FFB800"/>
<path d="M12.4139 6.37393C13.9605 6.37393 15.371 6.95639 16.438 7.91393L17.4294 6.94191C16.1094 5.7286 14.3482 4.98783 12.4139 4.98783C8.31955 4.98783 5.00042 8.30697 5.00042 12.4013C5.00042 14.283 5.70144 16.0009 6.85655 17.3081L7.84794 16.3361C6.93721 15.2803 6.38651 13.9051 6.38651 12.4013C6.38651 9.07248 9.08507 6.37393 12.4139 6.37393Z" fill="#FFB800"/>
<path fill-rule="evenodd" clip-rule="evenodd" d="M23.553 13.3716C23.8932 13.4598 24.1998 13.6404 24.4476 13.8924C24.9223 14.3797 25.1071 15.0937 24.9391 15.7574C24.6661 16.7948 23.5992 17.4165 22.5575 17.1435C22.2173 17.051 21.9065 16.8746 21.6629 16.6226C21.3436 16.295 21.1672 15.8624 21.1294 15.4171L18.2228 14.6023L20.008 17.7777C20.1466 18.0213 20.0584 18.3363 19.8105 18.4749C19.6047 18.5925 19.3527 18.5505 19.1931 18.3867C19.1637 18.3573 19.1343 18.3237 19.1133 18.2817L16.8283 14.2117L13.2035 13.1952L14.136 16.841L18.1514 19.2226C18.3992 19.3612 18.4791 19.6804 18.332 19.924C18.185 20.1677 17.87 20.2475 17.6264 20.1046L14.493 18.2439L15.2238 21.1085C15.7321 21.1211 16.2235 21.3227 16.5889 21.6966C16.8241 21.9402 16.9964 22.2426 17.0804 22.5744C17.2106 23.0742 17.1308 23.5993 16.8661 24.0487C16.6015 24.4981 16.1731 24.8132 15.6733 24.9434C15.0012 25.1114 14.283 24.914 13.7957 24.4141C13.5605 24.1705 13.3883 23.8681 13.3043 23.5363C13.1741 23.0322 13.2497 22.5072 13.5143 22.0578C13.6907 21.7638 13.9386 21.5327 14.2326 21.3647L13.4975 18.4959L11.6368 21.6294C11.494 21.873 11.179 21.9528 10.9354 21.81C10.8976 21.7848 10.8598 21.7554 10.8304 21.726C10.6707 21.5621 10.6329 21.3101 10.7547 21.1043L13.1363 17.0889L12.2038 13.443L9.51146 16.0724L9.45686 20.7389C9.45266 21.0245 9.22165 21.2513 8.93603 21.2471C8.65041 21.2429 8.42359 21.0119 8.42779 20.7263L8.4698 17.0847L6.31505 19.189C6.43686 19.4536 6.49987 19.735 6.49147 20.029C6.47466 20.5541 6.26045 21.0371 5.88243 21.3941C5.11378 22.125 3.88729 22.0998 3.14805 21.3437L3.12704 21.3227C2.77002 20.9447 2.58101 20.4491 2.59361 19.9282C2.61041 19.4074 2.82462 18.9244 3.20265 18.5673C3.88309 17.9205 4.92476 17.8701 5.66821 18.3951L6.91569 17.1771C6.90387 17.1632 6.89211 17.1493 6.88041 17.1354L17.7692 6.62596L17.7352 6.60612L18.6387 5.7229C18.5253 5.46248 18.4581 5.17687 18.4665 4.88285C18.4833 4.35781 18.6975 3.87478 19.0755 3.51776C19.8483 2.79111 21.0748 2.81631 21.8141 3.57236C22.5743 4.37461 22.5365 5.60949 21.7595 6.34874C21.0748 6.99559 20.0374 7.04599 19.2939 6.52095L17.2064 8.55809L20.848 8.60009C21.1336 8.60429 21.3604 8.83531 21.3562 9.12093C21.352 9.40654 21.121 9.63336 20.8354 9.62916L16.1689 9.57456L13.4765 12.2039L17.0972 13.2204L21.163 10.9312C21.4108 10.7926 21.7259 10.8808 21.8645 11.1287C22.0031 11.3723 21.9149 11.6873 21.6671 11.8259L18.4917 13.611L21.2974 14.3965C21.4655 14.0563 21.7301 13.7664 22.0703 13.569C22.5239 13.3086 23.049 13.2372 23.553 13.3716ZM19.4934 4.89545C19.4924 4.89965 19.4913 4.90385 19.4913 4.90805C19.4829 5.15586 19.5753 5.38688 19.7391 5.57169L19.3863 5.93712L19.7517 5.58009C19.8357 5.6683 19.9366 5.7355 20.0458 5.78171C20.3734 5.92031 20.7724 5.86571 21.0454 5.60529C21.3268 5.33648 21.4024 4.92905 21.2638 4.58883C21.2218 4.48382 21.163 4.38721 21.079 4.29901C20.8858 4.10159 20.6296 4.01339 20.3734 4.02599C20.1592 4.03019 19.945 4.1058 19.7769 4.26541C19.6047 4.42502 19.5081 4.64763 19.4955 4.88285C19.4955 4.88705 19.4945 4.89125 19.4934 4.89545ZM5.17678 20.6507C5.34899 20.4869 5.4456 20.2685 5.4582 20.0332C5.4582 20.0206 5.4624 20.0164 5.4708 20.008C5.4792 19.7602 5.38679 19.5292 5.21878 19.3486C5.12638 19.2562 5.02137 19.1848 4.91216 19.1386C4.58034 19 4.18551 19.0546 3.9125 19.315C3.73188 19.4872 3.63108 19.714 3.62268 19.9618C3.61848 20.092 3.64368 20.2139 3.68988 20.3315C3.73608 20.4365 3.79489 20.5373 3.87469 20.6213L3.51767 20.9867L3.88309 20.6297C4.06791 20.8187 4.32412 20.9027 4.57614 20.8943C4.79035 20.8859 5.00877 20.8103 5.17678 20.6507ZM14.4659 22.4969C14.4389 22.5231 14.4118 22.5492 14.3922 22.5828C14.2662 22.7928 14.2326 23.0406 14.2956 23.2801C14.3712 23.5699 14.6022 23.7841 14.8752 23.8933C15.0474 23.9563 15.2322 23.9899 15.4171 23.9437C15.5977 23.8975 15.7489 23.7841 15.8707 23.6455C15.8836 23.6293 15.8984 23.6144 15.9134 23.5993C15.9374 23.5751 15.9618 23.5505 15.9799 23.5195C16.1059 23.3095 16.1437 23.0616 16.0807 22.8222C16.0429 22.6626 15.9631 22.5198 15.8497 22.4064C15.7489 22.3056 15.6271 22.2342 15.4969 22.188C15.3288 22.1292 15.1398 22.1124 14.9592 22.1586C14.7786 22.2048 14.6274 22.3182 14.5056 22.4568C14.493 22.4708 14.4795 22.4839 14.4659 22.4969ZM23.4606 16.0682C23.6874 15.9548 23.8722 15.7574 23.9436 15.4885C23.973 15.3751 23.973 15.2575 23.9604 15.1483C23.9394 14.9467 23.8596 14.7619 23.7126 14.6107C23.5992 14.4889 23.4522 14.4049 23.2926 14.3629C23.0532 14.2957 22.8053 14.3293 22.5911 14.4553C22.4861 14.5141 22.3979 14.5939 22.3265 14.6863C22.2509 14.7829 22.1921 14.8963 22.1585 15.0181C22.0955 15.2659 22.1543 15.5263 22.2887 15.7406C22.4105 15.9296 22.5911 16.085 22.8179 16.1438C23.0406 16.2026 23.2674 16.1648 23.4606 16.0682Z" fill="#00B0FF"/>
</svg>
