<svg width="17" height="11" viewBox="0 0 17 11" fill="none" xmlns="http://www.w3.org/2000/svg">
<path d="M15.6142 4.62738H4.02415L6.32415 2.33738C6.41739 2.24414 6.49135 2.13345 6.54181 2.01163C6.59227 1.88981 6.61825 1.75924 6.61825 1.62738C6.61825 1.49552 6.59227 1.36496 6.54181 1.24313C6.49135 1.12131 6.41739 1.01062 6.32415 0.917383C6.23092 0.824144 6.12023 0.750184 5.9984 0.699723C5.87658 0.649263 5.74601 0.623291 5.61415 0.623291C5.4823 0.623291 5.35173 0.649263 5.22991 0.699723C5.10808 0.750184 4.99739 0.824144 4.90415 0.917383L0.904154 4.91738C0.813114 5.01249 0.741749 5.12463 0.694154 5.24738C0.594136 5.49084 0.594136 5.76392 0.694154 6.00738C0.741749 6.13013 0.813114 6.24228 0.904154 6.33738L4.90415 10.3374C4.99712 10.4311 5.10772 10.5055 5.22958 10.5563C5.35144 10.607 5.48214 10.6332 5.61415 10.6332C5.74617 10.6332 5.87687 10.607 5.99873 10.5563C6.12059 10.5055 6.23119 10.4311 6.32415 10.3374C6.41788 10.2444 6.49228 10.1338 6.54305 10.012C6.59381 9.8901 6.61995 9.75939 6.61995 9.62738C6.61995 9.49537 6.59381 9.36467 6.54305 9.24281C6.49228 9.12095 6.41788 9.01035 6.32415 8.91738L4.02415 6.62738H15.6142C15.8794 6.62738 16.1337 6.52203 16.3213 6.33449C16.5088 6.14695 16.6142 5.8926 16.6142 5.62738C16.6142 5.36217 16.5088 5.10781 16.3213 4.92028C16.1337 4.73274 15.8794 4.62738 15.6142 4.62738Z" fill="#F44336"/>
</svg>
