<svg width="20" height="20" viewBox="0 0 20 20" fill="none" xmlns="http://www.w3.org/2000/svg">
<path d="M19.1667 2.5H16.6667V0.833333C16.6667 0.373332 16.2933 0 15.8333 0C15.3733 0 15 0.373332 15 0.833333V2.5H5V0.833333C5 0.373332 4.62667 0 4.16667 0C3.70667 0 3.33333 0.373332 3.33333 0.833333V2.5H0.833333C0.373332 2.5 0 2.87333 0 3.33333V19.1667C0 19.6267 0.373332 20 0.833333 20H19.1667C19.6267 20 20 19.6267 20 19.1667V3.33333C20 2.87333 19.6267 2.5 19.1667 2.5ZM1.66667 18.3333V9.16667H13.3333C13.7933 9.16667 14.1667 8.79333 14.1667 8.33333C14.1667 7.87333 13.7933 7.5 13.3333 7.5H1.66667V4.16667H3.33333V5C3.33333 5.46 3.70667 5.83333 4.16667 5.83333C4.62667 5.83333 5 5.46 5 5V4.16667H15V5C15 5.46 15.3733 5.83333 15.8333 5.83333C16.2933 5.83333 16.6667 5.46 16.6667 5V4.16667H18.3333V7.5H16.6667C16.2067 7.5 15.8333 7.87333 15.8333 8.33333C15.8333 8.79333 16.2067 9.16667 16.6667 9.16667H18.3333V18.3333H1.66667Z" fill="#768592"/>
<path d="M5.00001 10.8333H4.16668C3.70668 10.8333 3.33334 11.2066 3.33334 11.6666C3.33334 12.1266 3.70668 12.5 4.16668 12.5H5.00001C5.46001 12.5 5.83334 12.1266 5.83334 11.6666C5.83334 11.2066 5.46001 10.8333 5.00001 10.8333Z" fill="#768592"/>
<path d="M8.75004 10.8333H7.91671C7.45671 10.8333 7.08337 11.2066 7.08337 11.6666C7.08337 12.1266 7.45671 12.5 7.91671 12.5H8.75004C9.21004 12.5 9.58337 12.1266 9.58337 11.6666C9.58337 11.2066 9.21004 10.8333 8.75004 10.8333Z" fill="#768592"/>
<path d="M12.0833 10.8333H11.25C10.79 10.8333 10.4166 11.2066 10.4166 11.6666C10.4166 12.1266 10.79 12.5 11.25 12.5H12.0833C12.5433 12.5 12.9166 12.1266 12.9166 11.6666C12.9166 11.2066 12.5433 10.8333 12.0833 10.8333Z" fill="#768592"/>
<path d="M15.8333 10.8333H15C14.54 10.8333 14.1666 11.2066 14.1666 11.6666C14.1666 12.1266 14.54 12.5 15 12.5H15.8333C16.2933 12.5 16.6666 12.1266 16.6666 11.6666C16.6666 11.2066 16.2933 10.8333 15.8333 10.8333Z" fill="#768592"/>
<path d="M5.00001 14.1667H4.16668C3.70668 14.1667 3.33334 14.54 3.33334 15C3.33334 15.46 3.70668 15.8334 4.16668 15.8334H5.00001C5.46001 15.8334 5.83334 15.46 5.83334 15C5.83334 14.54 5.46001 14.1667 5.00001 14.1667Z" fill="#768592"/>
<path d="M8.75004 14.1667H7.91671C7.45671 14.1667 7.08337 14.54 7.08337 15C7.08337 15.46 7.45671 15.8334 7.91671 15.8334H8.75004C9.21004 15.8334 9.58337 15.46 9.58337 15C9.58337 14.54 9.21004 14.1667 8.75004 14.1667Z" fill="#768592"/>
<path d="M12.0833 14.1667H11.25C10.79 14.1667 10.4166 14.54 10.4166 15C10.4166 15.46 10.79 15.8334 11.25 15.8334H12.0833C12.5433 15.8334 12.9166 15.46 12.9166 15C12.9166 14.54 12.5433 14.1667 12.0833 14.1667Z" fill="#768592"/>
<path d="M15.8333 14.1667H15C14.54 14.1667 14.1666 14.54 14.1666 15C14.1666 15.46 14.54 15.8334 15 15.8334H15.8333C16.2933 15.8334 16.6666 15.46 16.6666 15C16.6666 14.54 16.2933 14.1667 15.8333 14.1667Z" fill="#768592"/>
</svg>
