<svg width="42" height="37" viewBox="0 0 42 37" fill="none" xmlns="http://www.w3.org/2000/svg">
<g clip-path="url(#clip0_275_786)">
<path d="M14.0578 27.2956H28.8808C30.5616 27.2956 31.9327 26.0213 31.9327 24.4594V18.6637C31.9327 18.6586 31.9327 18.6483 31.9327 18.6431C31.9327 18.6277 31.9327 18.6175 31.9327 18.602C31.9327 18.5918 31.9327 18.5815 31.9272 18.5712C31.9272 18.5609 31.9217 18.5455 31.9217 18.5352C31.9217 18.525 31.9162 18.5147 31.9162 18.5044C31.9106 18.4941 31.9106 18.4839 31.9051 18.4685C31.8996 18.4582 31.8996 18.4479 31.894 18.4376C31.8885 18.4273 31.8885 18.4171 31.883 18.4068C31.8774 18.3965 31.8719 18.3862 31.8664 18.3708C31.8609 18.3606 31.8553 18.3503 31.8498 18.3451C31.8443 18.3349 31.8387 18.3246 31.8332 18.3143C31.8277 18.304 31.8222 18.2989 31.8166 18.2886C31.8111 18.2783 31.8 18.2681 31.7945 18.2578C31.789 18.2475 31.7835 18.2424 31.7724 18.2321C31.7669 18.2218 31.7558 18.2167 31.7503 18.2064C31.7448 18.1961 31.7337 18.191 31.7282 18.1807C31.7226 18.1704 31.7116 18.1653 31.7061 18.1602C31.695 18.1499 31.6895 18.1448 31.6784 18.1345C31.6674 18.1293 31.6618 18.1191 31.6508 18.1139C31.6397 18.1088 31.6286 18.0985 31.6176 18.0934C31.6065 18.0882 31.601 18.0831 31.5899 18.078C31.5789 18.0728 31.5678 18.0677 31.5568 18.0574C31.5457 18.0523 31.5347 18.0471 31.5236 18.042C31.5125 18.0369 31.5015 18.0317 31.4904 18.0266C31.4794 18.0214 31.4683 18.0163 31.4573 18.0112C31.4462 18.006 31.4351 18.006 31.4241 18.0009C31.413 17.9958 31.3964 17.9906 31.3854 17.9906C31.3743 17.9906 31.3633 17.9855 31.3577 17.9855C31.3411 17.9803 31.3301 17.9803 31.3135 17.9803C31.308 17.9803 31.3024 17.9752 31.2914 17.9752L12.5042 15.5655V13.13C12.5042 13.1044 12.5042 13.0787 12.4986 13.0581C12.4986 13.053 12.4986 13.0478 12.4931 13.0376C12.4931 13.0222 12.4876 13.0067 12.4876 12.9913C12.482 12.9759 12.482 12.9656 12.4765 12.9502C12.4765 12.9399 12.471 12.9348 12.471 12.9245C12.4654 12.9091 12.4599 12.8937 12.4544 12.8783C12.4544 12.8731 12.4489 12.8629 12.4489 12.8577C12.4433 12.8423 12.4378 12.832 12.4267 12.8166C12.4212 12.8115 12.4212 12.8012 12.4157 12.7961C12.4102 12.7858 12.4046 12.7755 12.3936 12.7653C12.388 12.755 12.3825 12.7498 12.377 12.7396C12.3715 12.7293 12.3659 12.7241 12.3604 12.7139C12.3549 12.7036 12.3438 12.6933 12.3383 12.683C12.3328 12.6779 12.3272 12.6728 12.3217 12.6676C12.3106 12.6574 12.2996 12.6471 12.2885 12.6368C12.283 12.6317 12.2775 12.6265 12.2719 12.6214C12.2609 12.6111 12.2498 12.6008 12.2332 12.5906C12.2277 12.5854 12.2166 12.5803 12.2111 12.5751C12.2001 12.5649 12.189 12.5597 12.1779 12.5495C12.1614 12.5392 12.1448 12.5289 12.1337 12.5238C12.1282 12.5186 12.1227 12.5186 12.1171 12.5135C12.095 12.5032 12.0674 12.4929 12.0453 12.4827L7.97045 10.8899C7.58895 10.7409 7.15217 10.9053 6.99183 11.2598C6.83149 11.6143 7.00842 12.0202 7.38991 12.1692L11.0058 13.5873V16.7318V17.2302V21.0529V24.4697V28.7856C11.0058 30.2242 12.1669 31.4163 13.6652 31.5961C13.3943 32.0174 13.234 32.5107 13.234 33.0347C13.234 34.5813 14.5886 35.835 16.2472 35.835C17.9059 35.835 19.2605 34.5761 19.2605 33.0347C19.2605 32.5209 19.1112 32.0328 18.8458 31.6218H25.5579C25.2925 32.038 25.1432 32.5209 25.1432 33.0347C25.1432 34.5813 26.4978 35.835 28.1565 35.835C29.8152 35.835 31.1698 34.5761 31.1698 33.0347C31.1698 31.4933 29.8152 30.2345 28.1565 30.2345H14.0578C13.1953 30.2345 12.4986 29.582 12.4986 28.7856V26.9051C12.952 27.1517 13.4883 27.2956 14.0578 27.2956ZM17.7732 33.0296C17.7732 33.8106 17.0876 34.4426 16.2528 34.4426C15.4179 34.4426 14.7323 33.8054 14.7323 33.0296C14.7323 32.2538 15.4179 31.6166 16.2528 31.6166C17.0876 31.6166 17.7732 32.2486 17.7732 33.0296ZM29.6825 33.0296C29.6825 33.8106 28.9969 34.4426 28.162 34.4426C27.3272 34.4426 26.6416 33.8054 26.6416 33.0296C26.6416 32.2538 27.3272 31.6166 28.162 31.6166C28.9969 31.6166 29.6825 32.2486 29.6825 33.0296ZM28.8808 25.9083H14.0578C13.1953 25.9083 12.4986 25.2558 12.4986 24.4594V21.0426V17.2199V16.963L30.4399 19.2597V24.4542C30.4399 25.2609 29.7378 25.9083 28.8808 25.9083Z" fill="#0C0033" stroke="#022344" stroke-width="0.2"/>
<circle cx="32.054" cy="13.918" r="8.73307" fill="white" stroke="#0C0033" stroke-width="1.7"/>
<path d="M30.5569 8.64683C30.3654 8.21824 29.8627 8.02608 29.4341 8.21763C29.0055 8.40917 28.8133 8.91189 29.0049 9.34048L30.5569 8.64683ZM32.2213 14.4541L31.4453 14.801C31.5821 15.1071 31.8861 15.3041 32.2213 15.3041V14.4541ZM37.3093 15.3041C37.7787 15.3041 38.1593 14.9236 38.1593 14.4541C38.1593 13.9847 37.7787 13.6041 37.3093 13.6041V15.3041ZM29.0049 9.34048L31.4453 14.801L32.9974 14.1073L30.5569 8.64683L29.0049 9.34048ZM32.2213 15.3041H37.3093V13.6041H32.2213V15.3041Z" fill="#022344"/>
<circle cx="32.0539" cy="13.918" r="1.4483" fill="#022344"/>
</g>
<defs>
<clipPath id="clip0_275_786">
<rect width="41" height="36" fill="white" transform="translate(0.637085 0.195312)"/>
</clipPath>
</defs>
</svg>
