<svg width="25" height="25" viewBox="0 0 25 25" fill="inherit" stroke="inherit" xmlns="http://www.w3.org/2000/svg">
<path d="M7.12504 16.4606H21.948C23.6288 16.4606 25 15.1864 25 13.6244V7.82874C25 7.8236 25 7.81332 25 7.80818C25 7.79277 25 7.78249 25 7.76708C25 7.7568 25 7.74653 24.9945 7.73625C24.9945 7.72598 24.9889 7.71056 24.9889 7.70028C24.9889 7.69001 24.9834 7.67973 24.9834 7.66946C24.9779 7.65918 24.9779 7.6489 24.9724 7.63349C24.9668 7.62321 24.9668 7.61294 24.9613 7.60266C24.9558 7.59239 24.9558 7.58211 24.9502 7.57183C24.9447 7.56156 24.9392 7.55128 24.9337 7.53587C24.9281 7.52559 24.9226 7.51532 24.9171 7.51018C24.9115 7.4999 24.906 7.48963 24.9005 7.47935C24.895 7.46907 24.8894 7.46394 24.8839 7.45366C24.8784 7.44338 24.8673 7.43311 24.8618 7.42283C24.8562 7.41256 24.8507 7.40742 24.8397 7.39714C24.8341 7.38687 24.8231 7.38173 24.8175 7.37145C24.812 7.36118 24.801 7.35604 24.7954 7.34576C24.7899 7.33548 24.7788 7.33035 24.7733 7.32521C24.7623 7.31493 24.7567 7.3098 24.7457 7.29952C24.7346 7.29438 24.7291 7.28411 24.718 7.27897C24.707 7.27383 24.6959 7.26355 24.6849 7.25842C24.6738 7.25328 24.6683 7.24814 24.6572 7.243C24.6462 7.23786 24.6351 7.23273 24.624 7.22245C24.613 7.21731 24.6019 7.21217 24.5909 7.20703C24.5798 7.2019 24.5687 7.19676 24.5577 7.19162C24.5466 7.18648 24.5356 7.18134 24.5245 7.17621C24.5135 7.17107 24.5024 7.17107 24.4913 7.16593C24.4803 7.16079 24.4637 7.15565 24.4526 7.15565C24.4416 7.15565 24.4305 7.15052 24.425 7.15052C24.4084 7.14538 24.3973 7.14538 24.3808 7.14538C24.3752 7.14538 24.3697 7.14024 24.3586 7.14024L5.57141 4.73051V2.29509C5.57141 2.2694 5.57141 2.24371 5.56588 2.22316C5.56588 2.21802 5.56588 2.21288 5.56035 2.2026C5.56035 2.18719 5.55483 2.17178 5.55483 2.15636C5.5493 2.14095 5.5493 2.13067 5.54377 2.11526C5.54377 2.10498 5.53824 2.09984 5.53824 2.08957C5.53271 2.07415 5.52718 2.05874 5.52165 2.04333C5.52165 2.03819 5.51612 2.02791 5.51612 2.02277C5.51059 2.00736 5.50507 1.99708 5.49401 1.98167C5.48848 1.97653 5.48848 1.96626 5.48295 1.96112C5.47742 1.95084 5.47189 1.94057 5.46083 1.93029C5.45531 1.92001 5.44978 1.91488 5.44425 1.9046C5.43872 1.89432 5.43319 1.88919 5.42766 1.87891C5.42213 1.86863 5.41107 1.85836 5.40555 1.84808C5.40002 1.84294 5.39449 1.8378 5.38896 1.83267C5.3779 1.82239 5.36684 1.81211 5.35579 1.80184C5.35026 1.7967 5.34473 1.79156 5.3392 1.78642C5.32814 1.77615 5.31708 1.76587 5.3005 1.7556C5.29497 1.75046 5.28391 1.74532 5.27838 1.74018C5.26732 1.72991 5.25627 1.72477 5.24521 1.71449C5.22862 1.70422 5.21203 1.69394 5.20098 1.6888C5.19545 1.68366 5.18992 1.68366 5.18439 1.67853C5.16227 1.66825 5.13463 1.65797 5.11251 1.6477L1.03771 0.0549126C0.656213 -0.09409 0.219429 0.0703266 0.0590902 0.42485C-0.101248 0.779373 0.075677 1.18528 0.457172 1.33428L4.07308 2.75237V5.89684V6.39523V10.2179V13.6347V17.9506C4.07308 19.3893 5.23415 20.5813 6.73248 20.7611C6.46157 21.1824 6.30123 21.6757 6.30123 22.1998C6.30123 23.7463 7.65581 25 9.31448 25C10.9732 25 12.3277 23.7412 12.3277 22.1998C12.3277 21.686 12.1785 21.1979 11.9131 20.7868H18.6252C18.3598 21.203 18.2105 21.686 18.2105 22.1998C18.2105 23.7463 19.5651 25 21.2238 25C22.8824 25 24.237 23.7412 24.237 22.1998C24.237 20.6584 22.8824 19.3996 21.2238 19.3996H7.12504C6.26253 19.3996 5.56588 18.747 5.56588 17.9506V16.0701C6.01925 16.3167 6.55556 16.4606 7.12504 16.4606ZM10.8405 22.1946C10.8405 22.9756 10.1549 23.6076 9.32001 23.6076C8.48515 23.6076 7.79956 22.9705 7.79956 22.1946C7.79956 21.4188 8.48515 20.7817 9.32001 20.7817C10.1549 20.7817 10.8405 21.4137 10.8405 22.1946ZM22.7497 22.1946C22.7497 22.9756 22.0641 23.6076 21.2293 23.6076C20.3944 23.6076 19.7088 22.9705 19.7088 22.1946C19.7088 21.4188 20.3944 20.7817 21.2293 20.7817C22.0641 20.7817 22.7497 21.4137 22.7497 22.1946ZM21.948 15.0733H7.12504C6.26253 15.0733 5.56588 14.4208 5.56588 13.6244V10.2076V6.38495V6.12805L23.5072 8.42474V13.6193C23.5072 14.426 22.805 15.0733 21.948 15.0733Z" fill="inherit"/>
</svg>
