<svg width="20" height="20" viewBox="0 0 20 20" fill="none" xmlns="http://www.w3.org/2000/svg">
<g clip-path="url(#clip0)">
<path d="M17.8955 5.26245C17.4813 5.46285 17.3079 5.9613 17.5083 6.37533C18.0558 7.50631 18.3333 8.72538 18.3333 10C18.3333 14.5949 14.5949 18.3333 10 18.3333C5.40507 18.3333 1.66667 14.5949 1.66667 10C1.66667 5.40507 5.40507 1.66667 10 1.66667C11.9041 1.66667 13.6928 2.28841 15.1733 3.46456C15.5324 3.75122 16.0575 3.6912 16.3442 3.33089C16.6309 2.97078 16.5708 2.44629 16.2103 2.16003C14.4576 0.767008 12.252 0 10 0C4.48629 0 0 4.48629 0 10C0 15.5137 4.48629 20 10 20C15.5137 20 20 15.5137 20 10C20 8.47209 19.6663 7.00785 19.0084 5.64962C18.8084 5.23458 18.3083 5.06165 17.8955 5.26245Z" fill="#768592"/>
<path d="M9.99996 3.33331C9.53996 3.33331 9.16663 3.70664 9.16663 4.16665V9.99998C9.16663 10.46 9.53996 10.8333 9.99996 10.8333H14.1666C14.6266 10.8333 15 10.46 15 9.99998C15 9.53998 14.6266 9.16665 14.1666 9.16665H10.8333V4.16665C10.8333 3.70664 10.46 3.33331 9.99996 3.33331Z" fill="#768592"/>
</g>
<defs>
<clipPath id="clip0">
<rect width="20" height="20" fill="white"/>
</clipPath>
</defs>
</svg>
