<svg width="20" height="16" viewBox="0 0 20 16" fill="none" xmlns="http://www.w3.org/2000/svg">
<path d="M11.8008 10.8047C13.0078 10.2969 13.9648 9.60159 14.6641 8.72269C15.3633 7.84378 15.7148 6.89066 15.7148 5.8555C15.7148 4.82034 15.3633 3.86331 14.6641 2.98831C13.9648 2.10941 13.0117 1.418 11.8008 0.906281C10.5898 0.398468 9.27734 0.140656 7.85547 0.140656C6.43359 0.140656 5.12109 0.394562 3.91016 0.906281C2.69922 1.41409 1.74609 2.10941 1.04688 2.98831C0.351562 3.86722 0 4.82425 0 5.8555C0 6.74222 0.265625 7.57425 0.792969 8.3555C1.32031 9.13675 2.04688 9.79691 2.96875 10.3321C2.89453 10.5118 2.81641 10.6758 2.73828 10.8242C2.66016 10.9727 2.56641 11.1172 2.46094 11.2539C2.35156 11.3907 2.26953 11.5 2.21094 11.5782C2.15234 11.6563 2.05469 11.7657 1.92188 11.9063C1.78906 12.0469 1.70312 12.1407 1.66406 12.1836C1.66406 12.1758 1.64844 12.1914 1.62109 12.2344C1.58984 12.2735 1.57422 12.293 1.57031 12.2891C1.56641 12.2852 1.55078 12.3047 1.52734 12.3438C1.5 12.3828 1.48828 12.4063 1.48828 12.4063L1.46094 12.461C1.44922 12.4844 1.44141 12.5039 1.4375 12.5274C1.43359 12.5508 1.43359 12.5742 1.43359 12.6016C1.43359 12.6289 1.4375 12.6524 1.44531 12.6758C1.46094 12.7735 1.50391 12.8516 1.57422 12.9102C1.64453 12.9688 1.72266 13 1.80469 13H1.83984C2.21094 12.9493 2.53125 12.8867 2.80078 12.8203C3.94531 12.5235 4.98047 12.0469 5.90234 11.3907C6.57031 11.5078 7.22656 11.5703 7.86719 11.5703C9.27734 11.5703 10.5938 11.3164 11.8008 10.8047Z" fill="#0C0033"/>
<path d="M19.2073 11.2187C19.7346 10.4413 20.0002 9.60538 20.0002 8.71475C20.0002 7.80069 19.719 6.94522 19.1643 6.14835C18.6057 5.35147 17.8479 4.69131 16.887 4.16006C17.0588 4.71866 17.1448 5.28506 17.1448 5.85538C17.1448 6.85147 16.8948 7.79678 16.3987 8.69131C15.8987 9.58585 15.1877 10.371 14.2541 11.0585C13.3909 11.6835 12.4104 12.164 11.3088 12.4999C10.2073 12.8358 9.05884 13.0038 7.85962 13.0038C7.63696 13.0038 7.30884 12.9882 6.87915 12.9608C8.37524 13.9413 10.1291 14.4335 12.1487 14.4335C12.7893 14.4335 13.4416 14.3749 14.1135 14.2538C15.0354 14.9101 16.0706 15.3866 17.2151 15.6835C17.4846 15.7499 17.801 15.8085 18.176 15.8632C18.2659 15.871 18.3479 15.8437 18.4221 15.7851C18.4963 15.7265 18.5432 15.6444 18.5666 15.539C18.5627 15.496 18.5666 15.4687 18.5784 15.4648C18.5901 15.4608 18.5862 15.4374 18.5745 15.3905C18.5588 15.3476 18.551 15.3241 18.551 15.3241L18.5159 15.2655C18.5081 15.2499 18.4963 15.2304 18.4768 15.203C18.4573 15.1757 18.4416 15.1601 18.4338 15.1483C18.4221 15.1366 18.4065 15.1171 18.3831 15.0937C18.3596 15.0663 18.344 15.0507 18.3401 15.0429C18.301 14.9999 18.219 14.9062 18.0823 14.7655C17.9495 14.6249 17.8518 14.5155 17.7932 14.4374C17.7346 14.3593 17.6487 14.2499 17.5432 14.1132C17.4338 13.9765 17.344 13.8319 17.2659 13.6835C17.1877 13.5351 17.1096 13.371 17.0354 13.1913C17.9534 12.6523 18.6799 11.996 19.2073 11.2187Z" fill="#0C0033"/>
</svg>
