<svg width="24" height="20" viewBox="0 0 24 20" fill="none" xmlns="http://www.w3.org/2000/svg">
<path d="M11.7407 14.3611C11.6599 14.4079 11.5693 14.4403 11.4712 14.4615C11.3723 14.4796 11.2711 14.4894 11.1677 14.4849V15.008H11.8667V16.7993H12.6201V13.8825H12.0306C12.0223 13.9972 11.9921 14.0931 11.9407 14.1724C11.8879 14.2493 11.8215 14.312 11.7407 14.3611Z" fill="#0C0033"/>
<path d="M1.56216 9.86329C1.56216 9.86329 1.86713 9.19597 1.39986 8.48034C0.932584 7.7632 0.200347 7.62128 0.200347 7.62128C0.200347 7.62128 -0.136331 8.41013 0.320373 9.1084C0.774813 9.80667 1.56216 9.86329 1.56216 9.86329Z" fill="#0C0033"/>
<path d="M2.87204 9.97835C2.87204 9.97835 3.6224 9.73754 3.90019 8.95095C4.17724 8.16285 3.66316 7.47742 3.66316 7.47742C3.66316 7.47742 2.98678 7.78918 2.70144 8.59616C2.4176 9.40388 2.87204 9.97835 2.87204 9.97835Z" fill="#0C0033"/>
<path d="M3.16102 10.8645C2.98437 11.7024 3.51052 12.2135 3.51052 12.2135C3.51052 12.2135 4.22389 11.8753 4.396 11.06C4.56736 10.2432 3.96798 9.63025 3.96798 9.63025C3.96798 9.63025 3.33841 10.0266 3.16102 10.8645Z" fill="#0C0033"/>
<path d="M4.82315 13.6798C4.82315 13.6798 5.50104 13.2774 5.5954 12.4486C5.69052 11.6189 5.03528 11.0656 5.03528 11.0656C5.03528 11.0656 4.44571 11.5201 4.34682 12.3716C4.24944 13.2223 4.82315 13.6798 4.82315 13.6798Z" fill="#0C0033"/>
<path d="M6.5572 15.0632C6.5572 15.0632 7.0909 14.4812 6.94295 13.6606C6.79348 12.8393 6.00689 12.4966 6.00689 12.4966C6.00689 12.4966 5.57283 13.102 5.72457 13.9452C5.87705 14.7877 6.5572 15.0632 6.5572 15.0632Z" fill="#0C0033"/>
<path d="M2.18442 8.12348C2.18442 8.12348 2.80871 7.73925 2.81701 6.88246C2.82532 6.02642 2.29614 5.50253 2.29614 5.50253C2.29614 5.50253 1.57749 5.97131 1.56919 6.80697C1.56013 7.64036 2.18442 8.12348 2.18442 8.12348Z" fill="#0C0033"/>
<path d="M1.96618 11.5833C1.96618 11.5833 2.06054 10.8571 1.40304 10.3091C0.744022 9.76256 0.00348188 9.84258 0.00348188 9.84258C0.00348188 9.84258 -0.0855943 10.6956 0.555302 11.2293C1.19771 11.7615 1.96618 11.5833 1.96618 11.5833Z" fill="#0C0033"/>
<path d="M2.94322 13.2169C2.94322 13.2169 2.87377 12.4854 2.11058 12.0997C1.34664 11.7117 0.642334 11.9562 0.642334 11.9562C0.642334 11.9562 0.744998 12.8078 1.48931 13.1852C2.23287 13.5611 2.94322 13.2169 2.94322 13.2169Z" fill="#0C0033"/>
<path d="M3.00972 13.6604C2.16425 13.5215 1.56714 13.9669 1.56714 13.9669C1.56714 13.9669 1.92269 14.7467 2.74551 14.8825C3.56909 15.0169 4.14205 14.4734 4.14205 14.4734C4.14205 14.4734 3.85443 13.7993 3.00972 13.6604Z" fill="#0C0033"/>
<path d="M4.65652 14.9924C3.80199 14.9562 3.26074 15.4687 3.26074 15.4687C3.26074 15.4687 3.70688 16.2025 4.54102 16.238C5.37441 16.2727 5.87716 15.665 5.87716 15.665C5.87716 15.665 5.51256 15.0279 4.65652 14.9924Z" fill="#0C0033"/>
<path d="M2.38013 8.58624L1.98155 8.4949C1.97174 8.53869 1.0538 12.8687 7.24686 16.0619L7.43407 15.6995C1.53919 12.6596 2.34314 8.75081 2.38013 8.58624Z" fill="#0C0033"/>
<path d="M15.9896 17.4222H15.5986V13.0371H15.9896V12.3947H15.5148V11.947C15.5148 11.947 12.3684 11.362 12.3684 10.0583C12.3684 9.63182 12.7572 9.16228 13.269 8.55007L13.3966 8.90638L14.2368 8.60367L14.1854 8.45948C15.5616 8.5395 16.7015 8.17414 17.5862 7.36943C19.7912 5.36069 19.5474 1.35377 19.5353 1.18467L19.5074 0.767979H16.9392L17.0729 1.31904C17.1295 1.5591 17.1038 1.75612 16.9883 1.93805C16.712 2.37286 15.9956 2.60537 15.742 2.65745H15.7405C15.7435 2.48987 15.7428 2.31926 15.739 2.14489H16.3527V1.43832H12V1.43379H7.64663V2.14111H8.26035C8.25658 2.31474 8.25582 2.48609 8.25884 2.65368H8.25733C8.00445 2.60159 7.28731 2.36909 7.01102 1.93427C6.89628 1.75159 6.86986 1.55457 6.92647 1.31376L7.05933 0.762695H4.49273L4.4648 1.17939C4.45272 1.34848 4.20889 5.3554 6.41391 7.36415C7.29863 8.16885 8.4385 8.53497 9.81466 8.4542L9.76257 8.59838L10.6035 8.90109L10.7311 8.54479C11.2429 9.15775 11.6317 9.62653 11.6317 10.053C11.6317 11.3567 8.48531 11.9425 8.48531 11.9425V12.3894H8.01049V13.0318H8.40152V17.4177H8.01049V18.1446H7.73118V19.2324H11.9993V19.237H16.2689V18.1492H15.9896V17.4222ZM15.6559 3.78374H16.2772V3.43498C16.6977 3.29759 17.3703 2.99866 17.7402 2.41966C17.8874 2.18716 17.9719 1.93125 17.9908 1.66025H18.6536C18.6513 2.68387 18.492 5.33578 16.983 6.70891C16.2493 7.37547 15.2687 7.65553 14.0639 7.55061C14.7395 6.62965 15.4151 5.43467 15.6559 3.78374ZM7.0163 6.70514C5.50654 5.332 5.34801 2.6801 5.34575 1.65648H6.00854C6.02665 1.92673 6.11195 2.18339 6.25916 2.41589C6.62829 2.99488 7.30165 3.29382 7.72137 3.43121V3.77996H8.34339C8.5842 5.43165 9.25906 6.62663 9.93619 7.54759C8.72989 7.65176 7.75081 7.3717 7.0163 6.70514ZM14.9275 17.4222H12V17.4177H9.0711V13.2009H11.9985V13.2054H14.9275V17.4222Z" fill="#0C0033"/>
<path d="M22.4373 9.86834C22.4373 9.86834 23.2239 9.81247 23.6798 9.11346C24.1358 8.41519 23.7991 7.62634 23.7991 7.62634C23.7991 7.62634 23.0668 7.76826 22.5996 8.4854C22.1308 9.20102 22.4373 9.86834 22.4373 9.86834Z" fill="#0C0033"/>
<path d="M21.1269 9.98282C21.1269 9.98282 21.5828 9.40836 21.299 8.60063C21.0136 7.79291 20.3372 7.48114 20.3372 7.48114C20.3372 7.48114 19.8224 8.16657 20.101 8.95467C20.3773 9.74201 21.1269 9.98282 21.1269 9.98282Z" fill="#0C0033"/>
<path d="M20.4881 12.218C20.4881 12.218 21.0142 11.7069 20.8376 10.8697C20.6617 10.0318 20.0313 9.63474 20.0313 9.63474C20.0313 9.63474 19.432 10.2477 19.6033 11.0645C19.7739 11.8798 20.4881 12.218 20.4881 12.218Z" fill="#0C0033"/>
<path d="M18.9648 11.0701C18.9648 11.0701 18.3096 11.6242 18.4047 12.453C18.4991 13.2819 19.1762 13.685 19.1762 13.685C19.1762 13.685 19.7492 13.2268 19.6525 12.376C19.5536 11.5245 18.9648 11.0701 18.9648 11.0701Z" fill="#0C0033"/>
<path d="M17.0572 13.6644C16.9092 14.4864 17.4429 15.0669 17.4429 15.0669C17.4429 15.0669 18.1231 14.7922 18.2756 13.9497C18.4273 13.1065 17.9932 12.5011 17.9932 12.5011C17.9932 12.5011 17.2051 12.8438 17.0572 13.6644Z" fill="#0C0033"/>
<path d="M21.8151 8.12794C21.8151 8.12794 22.4386 7.64482 22.4295 6.81143C22.4212 5.97653 21.7034 5.50699 21.7034 5.50699C21.7034 5.50699 21.1734 6.03088 21.1825 6.88691C21.1915 7.7437 21.8151 8.12794 21.8151 8.12794Z" fill="#0C0033"/>
<path d="M23.9958 9.847C23.9958 9.847 23.2553 9.76774 22.5962 10.3135C21.938 10.8616 22.0331 11.5878 22.0331 11.5878C22.0331 11.5878 22.8023 11.7667 23.444 11.2337C24.0841 10.7 23.9958 9.847 23.9958 9.847Z" fill="#0C0033"/>
<path d="M21.8891 12.1041C21.1251 12.4906 21.0557 13.2206 21.0557 13.2206C21.0557 13.2206 21.7653 13.5648 22.5096 13.1873C23.2539 12.8099 23.3566 11.9584 23.3566 11.9584C23.3566 11.9584 22.6523 11.7161 21.8891 12.1041Z" fill="#0C0033"/>
<path d="M20.9897 13.6654C20.145 13.8043 19.8574 14.4784 19.8574 14.4784C19.8574 14.4784 20.4304 15.0219 21.254 14.8875C22.0775 14.7524 22.4331 13.9719 22.4331 13.9719C22.4331 13.9719 21.8345 13.5272 20.9897 13.6654Z" fill="#0C0033"/>
<path d="M18.1218 15.6676C18.1218 15.6676 18.6246 16.2753 19.458 16.2406C20.2914 16.2051 20.7383 15.4721 20.7383 15.4721C20.7383 15.4721 20.197 14.9588 19.3425 14.9943C18.4879 15.0313 18.1218 15.6676 18.1218 15.6676Z" fill="#0C0033"/>
<path d="M22.0175 8.49942L21.6189 8.59076C21.6559 8.75533 22.4613 12.6641 16.5649 15.704L16.7522 16.0664C22.9452 12.8732 22.0273 8.5432 22.0175 8.49942Z" fill="#0C0033"/>
</svg>
