<svg width="36" height="35" viewBox="0 0 36 35" fill="inherit" stroke="none" xmlns="http://www.w3.org/2000/svg">
<path d="M18 0C8.375 0 0.5 7.875 0.5 17.5C0.5 27.125 8.375 35 18 35C27.625 35 35.5 27.125 35.5 17.5C35.5 7.875 27.625 0 18 0ZM18 33.8333C9.01669 33.8333 1.66669 26.4833 1.66669 17.5C1.66669 8.51669 9.01669 1.16669 18 1.16669C26.9833 1.16669 34.3333 8.51669 34.3333 17.5C34.3333 26.4833 26.9833 33.8333 18 33.8333Z" fill="inherit" stroke="transparent"/>
<path d="M20.333 21.5828C20.333 20.2998 19.283 19.2501 17.9997 19.2501C16.7164 19.2501 15.6664 20.2998 15.6664 21.5828C15.6664 22.8659 16.7164 23.9156 17.9997 23.9156C19.283 23.9157 20.333 22.8659 20.333 21.5828ZM17.9997 22.7493C17.358 22.7493 16.833 22.2244 16.833 21.5828C16.833 20.9413 17.358 20.4164 17.9997 20.4164C18.6414 20.4164 19.1664 20.9413 19.1664 21.5828C19.1664 22.2244 18.6414 22.7493 17.9997 22.7493Z" fill="inherit" stroke="transparent"/>
<path d="M19.75 17.4995C19.75 18.7825 20.8 19.8323 22.0833 19.8323C23.3666 19.8323 24.4166 18.7825 24.4166 17.4995C24.4166 16.2165 23.3666 15.1667 22.0833 15.1667C20.8 15.1667 19.75 16.2165 19.75 17.4995ZM23.25 17.4995C23.25 18.1411 22.725 18.6659 22.0833 18.6659C21.4416 18.6659 20.9166 18.1411 20.9166 17.4995C20.9166 16.858 21.4416 16.3331 22.0833 16.3331C22.725 16.3331 23.25 16.858 23.25 17.4995Z" fill="inherit" stroke="transparent"/>
<path d="M15.6664 13.4161C15.6664 14.6992 16.7164 15.7489 17.9997 15.7489C19.283 15.7489 20.333 14.6992 20.333 13.4161C20.333 12.1331 19.283 11.0834 17.9997 11.0834C16.7164 11.0833 15.6664 12.1331 15.6664 13.4161ZM17.9997 12.2497C18.6414 12.2497 19.1664 12.7746 19.1664 13.4161C19.1664 14.0577 18.6414 14.5826 17.9997 14.5826C17.358 14.5826 16.833 14.0577 16.833 13.4161C16.833 12.7746 17.358 12.2497 17.9997 12.2497Z" fill="inherit" stroke="transparent"/>
<path d="M13.9168 15.1667C12.6335 15.1667 11.5835 16.2165 11.5835 17.4995C11.5835 18.7825 12.6335 19.8323 13.9168 19.8323C15.2001 19.8323 16.2501 18.7825 16.2501 17.4995C16.2501 16.2165 15.2001 15.1667 13.9168 15.1667ZM13.9168 18.6659C13.2751 18.6659 12.7501 18.1411 12.7501 17.4995C12.7501 16.858 13.2751 16.3331 13.9168 16.3331C14.5585 16.3331 15.0835 16.858 15.0835 17.4995C15.0835 18.1411 14.5584 18.6659 13.9168 18.6659Z" fill="inherit" stroke="transparent"/>
<path d="M3.41672 15.2827C5.05004 15.9827 6.80004 16.3327 8.55004 16.3327H10.0083C10.3 16.3327 10.5333 16.1577 10.5333 15.9244C11.175 13.066 13.45 10.791 16.3083 10.1494C16.6 10.091 16.775 9.85767 16.775 9.56605V8.10774C16.775 6.29943 16.425 4.60774 15.725 2.97443C15.6083 2.74112 15.375 2.56612 15.0833 2.62443C9.07504 3.79105 4.23335 8.63267 3.06672 14.641C3.00835 14.9327 3.18335 15.166 3.41672 15.2827ZM14.9083 3.84936C15.375 5.19105 15.6667 6.59105 15.6667 8.04936V9.04105C12.6917 9.85774 10.3583 12.191 9.54166 15.166H8.55004C7.09172 15.166 5.69172 14.9327 4.35004 14.4077C5.51672 9.21605 9.71673 5.01605 14.9083 3.84936Z" fill="inherit" stroke="transparent"/>
<path d="M19.6334 10.0912C22.4917 10.7329 24.7667 13.0079 25.4084 15.8662C25.4667 16.1579 25.7001 16.3329 25.9917 16.3329H27.45C29.2 16.3329 30.95 15.9829 32.525 15.2245C32.7583 15.1079 32.9333 14.8745 32.875 14.5829C31.7083 8.57455 26.8667 3.73286 20.8583 2.56617C20.5666 2.50786 20.3333 2.68286 20.2166 2.91617C19.5166 4.54948 19.1666 6.29948 19.1666 8.04948V9.50779C19.1668 9.79948 19.3418 10.0328 19.6334 10.0912ZM20.3918 8.10779C20.3918 6.64948 20.6251 5.24948 21.1501 3.90779C26.3418 5.07448 30.4834 9.2161 31.6501 14.4078C30.3084 14.8745 28.9084 15.1661 27.4501 15.1661H26.4584C25.6417 12.1911 23.3084 9.85779 20.3917 9.09941L20.3918 8.10779Z" fill="inherit" stroke="transparent"/>
<path d="M16.4247 24.9083C13.5664 24.2666 11.2914 21.9916 10.6497 19.1333C10.5914 18.8416 10.358 18.6666 10.0664 18.6666H8.6081C6.79978 18.6666 5.1081 19.0166 3.47478 19.7166C3.24147 19.8333 3.06647 20.0666 3.12478 20.3583C4.29147 26.3666 9.13309 31.2083 15.1415 32.375C15.1998 32.375 15.1998 32.375 15.2582 32.375C15.4915 32.375 15.6665 32.2583 15.8415 32.0833C16.5415 30.45 16.8915 28.7 16.8915 26.95V25.4917C16.8914 25.2 16.7164 24.9667 16.4247 24.9083ZM15.608 26.8917C15.608 28.35 15.3747 29.75 14.8497 31.0917C9.65803 29.925 5.51641 25.7834 4.34972 20.5917C5.69141 20.125 7.09141 19.8334 8.49141 19.775H9.4831C10.2998 22.75 12.6331 25.0833 15.6081 25.9L15.608 26.8917Z" fill="inherit" stroke="transparent"/>
<path d="M32.5832 19.6582C30.9499 18.9582 29.1999 18.6082 27.4499 18.6082H25.9916C25.6999 18.6082 25.4666 18.7832 25.4083 19.0749C24.7666 21.9332 22.4916 24.2082 19.6333 24.8499C19.3416 24.9082 19.1666 25.1416 19.1666 25.4332V26.8916C19.1666 28.6999 19.5166 30.3916 20.2166 32.0249C20.2749 32.2582 20.5083 32.3749 20.7416 32.3749C20.7999 32.3749 20.8583 32.3749 20.9166 32.3166C26.9249 31.1499 31.7666 26.3082 32.9333 20.2999C32.9916 20.0082 32.8166 19.7749 32.5832 19.6582ZM21.0916 31.1499C20.6249 29.8082 20.3333 28.4082 20.3333 26.9499V25.9582C23.3083 25.1416 25.6416 22.8082 26.4 19.8916H27.3917C28.85 19.8916 30.25 20.1249 31.5917 20.6499C30.4249 25.8416 26.2832 29.9832 21.0916 31.1499Z" fill="inherit" stroke="transparent"/>
</svg>
