<svg width="16" height="15" viewBox="0 0 16 15" fill="none" xmlns="http://www.w3.org/2000/svg">
<path fill-rule="evenodd" clip-rule="evenodd" d="M15.1372 0.194854C14.8769 -0.0649513 14.4555 -0.0649513 14.1952 0.194854L11.4899 2.90013C10.417 2.32089 9.2192 2.01176 8 1.99948C3.2861 1.99948 0.230166 6.77471 0.102168 6.97804C-0.0340561 7.19486 -0.0340561 7.47054 0.102168 7.68736C0.975126 8.99014 2.0718 10.1281 3.34143 11.0486L1.5288 12.8613C1.35139 13.0276 1.27865 13.2774 1.33903 13.513C1.39941 13.7486 1.58331 13.9327 1.81887 13.9932C2.05444 14.0538 2.30429 13.9812 2.47078 13.8039L15.1372 1.1375C15.3974 0.877173 15.3974 0.455181 15.1372 0.194854ZM5.33339 7.3327C5.33339 5.85997 6.52727 4.66609 8 4.66609C8.47368 4.66858 8.93761 4.80094 9.3413 5.04875L5.71605 8.67334C5.46863 8.26971 5.33631 7.80611 5.33339 7.3327ZM13.7099 4.45076C14.5431 5.19732 15.2783 6.04652 15.8978 6.97804C16.0341 7.19486 16.0341 7.47054 15.8978 7.68736C15.7698 7.89069 12.7139 12.6659 8 12.6659C7.26747 12.6613 6.54003 12.5437 5.84338 12.3173L13.7099 4.45076Z" fill="#B0BAC9"/>
</svg>
