<svg width="22" height="22" viewBox="0 0 22 22" fill="inherit" xmlns="http://www.w3.org/2000/svg">
    <path fill-rule="evenodd" clip-rule="evenodd" d="M4.4 2.2C4.4 3.41503 3.41503 4.4 2.2 4.4C0.984974 4.4 0 3.41503 0 2.2C0 0.984974 0.984974 0 2.2 0C3.41503 0 4.4 0.984974 4.4 2.2ZM3.08 2.2C3.08 2.68601 2.68601 3.08 2.2 3.08C1.71399 3.08 1.32 2.68601 1.32 2.2C1.32 1.71399 1.71399 1.32 2.2 1.32C2.68601 1.32 3.08 1.71399 3.08 2.2Z" fill="inherit"/>
    <path d="M6.16 1.76C6.16 1.27399 6.55399 0.88 7.04 0.88H21.12C21.606 0.88 22 1.27399 22 1.76C22 2.24601 21.606 2.64 21.12 2.64H7.04C6.55399 2.64 6.16 2.24601 6.16 1.76Z" fill="inherit"/>
    <path fill-rule="evenodd" clip-rule="evenodd" d="M11.1288 9.68C12.3438 9.68 13.3288 8.69503 13.3288 7.48C13.3288 6.26497 12.3438 5.28 11.1288 5.28C9.91377 5.28 8.9288 6.26497 8.9288 7.48C8.9288 8.69503 9.91377 9.68 11.1288 9.68ZM11.1288 8.36C11.6148 8.36 12.0088 7.96601 12.0088 7.48C12.0088 6.99399 11.6148 6.6 11.1288 6.6C10.6428 6.6 10.2488 6.99399 10.2488 7.48C10.2488 7.96601 10.6428 8.36 11.1288 8.36Z" fill="inherit"/>
    <path d="M0.88 6.16C0.393989 6.16 0 6.55399 0 7.04C0 7.52601 0.393989 7.92 0.88 7.92H6.16C6.64601 7.92 7.04 7.52601 7.04 7.04C7.04 6.55399 6.64601 6.16 6.16 6.16H0.88Z" fill="inherit"/>
    <path d="M15.84 6.16C15.354 6.16 14.96 6.55399 14.96 7.04C14.96 7.52601 15.354 7.92 15.84 7.92H21.12C21.606 7.92 22 7.52601 22 7.04C22 6.55399 21.606 6.16 21.12 6.16H15.84Z" fill="inherit"/>
    <path fill-rule="evenodd" clip-rule="evenodd" d="M22 13.64C22 14.855 21.015 15.84 19.8 15.84C18.585 15.84 17.6 14.855 17.6 13.64C17.6 12.425 18.585 11.44 19.8 11.44C21.015 11.44 22 12.425 22 13.64ZM20.68 13.64C20.68 14.126 20.286 14.52 19.8 14.52C19.314 14.52 18.92 14.126 18.92 13.64C18.92 13.154 19.314 12.76 19.8 12.76C20.286 12.76 20.68 13.154 20.68 13.64Z" fill="inherit"/>
    <path d="M0 14.08C0 13.594 0.393989 13.2 0.88 13.2H14.96C15.446 13.2 15.84 13.594 15.84 14.08C15.84 14.566 15.446 14.96 14.96 14.96H0.88C0.39399 14.96 0 14.566 0 14.08Z" fill="inherit"/>
    <path d="M0.88 18.48C0.393989 18.48 0 18.874 0 19.36C0 19.846 0.393989 20.24 0.88 20.24H2.64C3.12601 20.24 3.52 19.846 3.52 19.36C3.52 18.874 3.12601 18.48 2.64 18.48H0.88Z" fill="inherit"/>
    <path d="M11.44 19.36C11.44 18.874 11.834 18.48 12.32 18.48H21.12C21.606 18.48 22 18.874 22 19.36C22 19.846 21.606 20.24 21.12 20.24H12.32C11.834 20.24 11.44 19.846 11.44 19.36Z" fill="inherit"/>
    <path fill-rule="evenodd" clip-rule="evenodd" d="M9.68 19.8C9.68 21.015 8.69503 22 7.48 22C6.26497 22 5.28 21.015 5.28 19.8C5.28 18.585 6.26497 17.6 7.48 17.6C8.69503 17.6 9.68 18.585 9.68 19.8ZM8.36 19.8C8.36 20.286 7.96601 20.68 7.48 20.68C6.99399 20.68 6.6 20.286 6.6 19.8C6.6 19.314 6.99399 18.92 7.48 18.92C7.96601 18.92 8.36 19.314 8.36 19.8Z" fill="inherit"/>
</svg>
