<svg width="16" height="16" viewBox="0 0 16 16" fill="none" xmlns="http://www.w3.org/2000/svg">
<path fill-rule="evenodd" clip-rule="evenodd" d="M8 0C8.69759 0 9.2631 0.565531 9.2631 1.26315V5.12016C9.2631 5.81778 8.69759 6.38331 8 6.38331C7.30241 6.38331 6.7369 5.81778 6.7369 5.12016V1.26315C6.7369 0.565531 7.30241 0 8 0ZM0.0681743 6.00123C0.293702 5.34108 1.01167 4.98875 1.6718 5.21429L5.16037 6.40617C5.82051 6.6317 6.17282 7.3497 5.94729 8.00985C5.72177 8.67001 5.0038 9.02233 4.34367 8.7968L0.855093 7.60492C0.194962 7.37938 -0.157353 6.66139 0.0681743 6.00123ZM15.9318 6.00123C16.1574 6.66139 15.805 7.37938 15.1449 7.60492L11.6563 8.7968C10.9962 9.02233 10.2782 8.67001 10.0527 8.00985C9.82718 7.3497 10.1795 6.6317 10.8396 6.40617L14.3282 5.21429C14.9883 4.98875 15.7063 5.34108 15.9318 6.00123ZM6.71068 10.5772C7.28459 10.9737 7.42836 11.7605 7.0318 12.3344L4.87574 15.4548C4.47918 16.0287 3.69245 16.1725 3.11854 15.7759C2.54463 15.3794 2.40086 14.5926 2.79742 14.0187L4.95348 10.8983C5.35004 10.3244 6.13677 10.1806 6.71068 10.5772ZM9.28932 10.5772C9.86324 10.1806 10.65 10.3244 11.0465 10.8983L13.2026 14.0187C13.5991 14.5926 13.4554 15.3794 12.8815 15.7759C12.3075 16.1725 11.5208 16.0287 11.1243 15.4548L8.96821 12.3344C8.57164 11.7605 8.71541 10.9737 9.28932 10.5772Z" fill="#00A0FF"/>
</svg>
