<svg width="25" height="25" viewBox="0 0 25 25" fill="inherit" xmlns="http://www.w3.org/2000/svg">
<path d="M0 1.84615C0 0.826552 0.722121 0 1.6129 0H4.03226C4.92304 0 5.64516 0.826551 5.64516 1.84615V5.15384C5.64516 6.17345 4.92304 7 4.03226 7H1.6129C0.722121 7 0 6.17345 0 5.15385V1.84615Z" fill="inherit"/>
<path d="M7.25806 3.5C7.25806 2.11929 8.23594 1 9.4422 1H22.8159C24.0221 1 25 2.11929 25 3.5C25 4.88071 24.0221 6 22.8159 6H9.4422C8.23594 6 7.25806 4.88071 7.25806 3.5Z" fill="inherit"/>
<path d="M7.25806 12.5C7.25806 11.1193 8.23594 10 9.4422 10H22.8159C24.0221 10 25 11.1193 25 12.5C25 13.8807 24.0221 15 22.8159 15H9.4422C8.23594 15 7.25806 13.8807 7.25806 12.5Z" fill="inherit"/>
<path d="M7.25806 21.5C7.25806 20.1193 8.23594 19 9.4422 19H22.8159C24.0221 19 25 20.1193 25 21.5C25 22.8807 24.0221 24 22.8159 24H9.4422C8.23594 24 7.25806 22.8807 7.25806 21.5Z" fill="inherit"/>
<path d="M0 10.8462C0 9.82655 0.722121 9 1.6129 9H4.03226C4.92304 9 5.64516 9.82655 5.64516 10.8462V14.1538C5.64516 15.1734 4.92304 16 4.03226 16H1.6129C0.722121 16 0 15.1734 0 14.1538V10.8462Z" fill="inherit"/>
<path d="M0 19.8462C0 18.8266 0.722121 18 1.6129 18H4.03226C4.92304 18 5.64516 18.8266 5.64516 19.8462V23.1538C5.64516 24.1734 4.92304 25 4.03226 25H1.6129C0.722121 25 0 24.1734 0 23.1538V19.8462Z" fill="inherit"/>
</svg>
