<svg width="20" height="20" viewBox="0 0 20 20" fill="none" xmlns="http://www.w3.org/2000/svg">
<path d="M13.4296 14.5825C13.8155 14.8326 14.3313 14.7229 14.5825 14.3372C16.5188 11.3558 17.5 9.05538 17.5 7.5C17.5 3.36466 14.1353 0 10 0C5.86466 0 2.5 3.36466 2.5 7.5C2.5 11.3737 8.65824 18.8601 9.36035 19.7009C9.51884 19.8899 9.75301 20 9.99959 20H10C10.2466 20 10.4808 19.8903 10.6392 19.7013C10.6775 19.6558 11.5863 18.5667 12.7393 16.992C13.0109 16.6205 12.9301 16.0988 12.5588 15.827C12.1863 15.555 11.665 15.6362 11.3938 16.0075C10.8529 16.7466 10.3617 17.3824 9.99756 17.8424C7.92379 15.2305 4.16667 9.98494 4.16667 7.5C4.16667 4.28324 6.78324 1.66667 10 1.66667C13.2168 1.66667 15.8333 4.28324 15.8333 7.5C15.8333 8.69324 14.8926 10.7992 13.1846 13.4296C12.9338 13.8155 13.0438 14.3317 13.4296 14.5825Z" fill="#768592"/>
<path d="M7.08333 6.66667C7.08333 8.27454 8.39172 9.58333 9.99999 9.58333C11.6079 9.58333 12.9167 8.27454 12.9167 6.66667C12.9167 5.0588 11.6079 3.75 9.99999 3.75C8.39172 3.75 7.08333 5.0588 7.08333 6.66667ZM11.25 6.66667C11.25 7.35575 10.6891 7.91667 9.99999 7.91667C9.31091 7.91667 8.74999 7.35575 8.74999 6.66667C8.74999 5.97758 9.31091 5.41667 9.99999 5.41667C10.6891 5.41667 11.25 5.97758 11.25 6.66667Z" fill="#768592"/>
</svg>
