<svg width="18" height="18" viewBox="0 0 18 18" fill="none" xmlns="http://www.w3.org/2000/svg">
<path d="M14.6195 12.1325C14.548 12.1081 14.4725 12.0982 14.3973 12.1034C14.3221 12.1086 14.2486 12.1288 14.1812 12.1629C14.1137 12.1969 14.0536 12.2441 14.0043 12.3017C13.9551 12.3594 13.9176 12.4263 13.8941 12.4986C13.8706 12.571 13.8616 12.6473 13.8675 12.7231C13.8734 12.799 13.8941 12.873 13.9285 12.9407C13.9629 13.0085 14.0103 13.0687 14.0678 13.1178C14.1254 13.167 14.1921 13.2041 14.264 13.2271C15.5693 13.6591 16.1536 14.1749 16.1536 14.4939C16.1536 15.2966 13.1948 16.5099 8.73541 16.5099C4.27597 16.5099 1.31722 15.2966 1.31722 14.4939C1.31722 14.1749 1.90151 13.6591 3.20687 13.2271C3.27876 13.2041 3.34542 13.167 3.40299 13.1178C3.46057 13.0687 3.50792 13.0085 3.54231 12.9407C3.5767 12.873 3.59744 12.799 3.60335 12.7231C3.60925 12.6473 3.6002 12.571 3.5767 12.4986C3.55321 12.4263 3.51575 12.3594 3.46649 12.3017C3.41722 12.2441 3.35713 12.1969 3.28968 12.1629C3.22223 12.1288 3.14877 12.1086 3.07354 12.1034C2.9983 12.0982 2.92279 12.1081 2.85137 12.1325C0.64016 12.8643 0.175964 13.8206 0.175964 14.4939C0.175964 16.5734 4.48188 17.6619 8.73541 17.6619C12.9889 17.6619 17.2948 16.5734 17.2948 14.4939C17.2948 13.8206 16.8307 12.8643 14.6195 12.1325Z" fill="#231D4F"/>
<path d="M6.27896 5.89491V5.89493V5.89495C6.27896 6.54983 6.53663 7.17882 6.99677 7.64331C7.45707 8.10796 8.08238 8.36987 8.7354 8.36989H8.73541C9.2223 8.36989 9.69786 8.22413 10.1019 7.9516C10.506 7.67911 10.8201 7.29229 11.0055 6.84061C11.1908 6.38898 11.2393 5.89227 11.1448 5.41312C11.0504 4.93394 10.8173 4.49315 10.4741 4.14673C10.1309 3.80026 9.69299 3.56377 9.2156 3.4679C8.73817 3.37202 8.24335 3.42125 7.79391 3.60915C7.34452 3.79702 6.96118 4.11487 6.69181 4.52177C6.42247 4.92862 6.27898 5.40647 6.27896 5.89491ZM8.73541 14.8579C8.72052 14.8579 8.70549 14.8528 8.69282 14.8426L8.37905 15.2319L8.69344 14.8431C8.60586 14.7723 7.36416 13.7563 6.1483 12.1334C4.92767 10.5041 3.77375 8.31742 3.77374 5.89493C3.77374 4.56388 4.29761 3.28828 5.22863 2.3485C6.15949 1.40888 7.42101 0.881866 8.7354 0.881866C10.0498 0.881866 11.3113 1.40888 12.2422 2.3485C13.1732 3.28828 13.6971 4.56388 13.6971 5.89493C13.6971 8.31742 12.5431 10.5041 11.3225 12.1334C10.109 13.7532 8.86974 14.7684 8.77788 14.8427C8.76523 14.8528 8.75025 14.8579 8.73541 14.8579Z" stroke="black"/>
</svg>
