<svg width="29" height="35" viewBox="0 0 29 35" fill="none" xmlns="http://www.w3.org/2000/svg">
<path d="M27.9 13.5931C27.9 18.8214 24.8483 23.9255 21.7072 27.7782C20.1462 29.693 18.5836 31.2738 17.4111 32.3759C16.8252 32.9265 16.3376 33.3568 15.9977 33.6484C15.8277 33.7943 15.6947 33.9054 15.6048 33.9796C15.5599 34.0167 15.5257 34.0445 15.5031 34.0628L15.478 34.0831L15.4721 34.0878L15.4708 34.0888L15.4707 34.0889C14.95 34.5037 14.05 34.5037 13.5293 34.0889L13.5292 34.0888L13.5279 34.0878L13.522 34.0831L13.4969 34.0628C13.4743 34.0445 13.4401 34.0167 13.3952 33.9796C13.3053 33.9054 13.1723 33.7943 13.0023 33.6484C12.6624 33.3568 12.1748 32.9265 11.5889 32.3759C10.4164 31.2738 8.85384 29.693 7.29275 27.7782C4.15171 23.9255 1.1 18.8214 1.1 13.5931C1.10013 6.43376 7.08269 0.6 14.5 0.6C21.9174 0.6 27.9 6.43376 27.9 13.5931ZM6.89937 13.6587C6.89937 17.7695 10.3222 21.0879 14.4994 21.0879C18.6766 21.0879 22.0994 17.7693 22.0994 13.6585C22.0994 9.54768 18.6764 6.22932 14.4994 6.22932C10.3223 6.22932 6.89937 9.54783 6.89937 13.6587Z" stroke="inherit" stroke-width="1.2"/>
</svg>
