<svg width="25" height="26" viewBox="0 0 25 26" fill="none" xmlns="http://www.w3.org/2000/svg">
    <path d="M12.1402 3.42969C9.31013 3.42969 7.00766 5.72964 7.00766 8.55664C7.00766 10.3117 7.89369 11.9265 9.37779 12.8763C10.8933 13.8462 12.7535 13.9493 14.4823 13.1548C14.8501 12.9857 15.0112 12.5508 14.8419 12.1833C14.6727 11.8159 14.2373 11.655 13.8694 11.824C12.6053 12.405 11.2565 12.3389 10.1689 11.6429C9.10767 10.9638 8.47411 9.81001 8.47411 8.55664C8.47411 6.53735 10.1187 4.89453 12.1402 4.89453C14.1617 4.89453 15.8064 6.53735 15.8064 8.55664C15.8064 8.9605 15.4774 9.28906 15.0731 9.28906C14.7037 9.28906 14.3586 9.00918 14.34 8.56777C14.34 8.56406 14.3399 8.56035 14.3399 8.55664C14.3399 7.34507 13.3531 6.35938 12.1402 6.35938C10.9273 6.35938 9.94056 7.34507 9.94056 8.55664C9.94056 9.76821 10.9273 10.7539 12.1402 10.7539C12.7032 10.7539 13.2171 10.5414 13.6066 10.1927C13.9961 10.5414 14.5102 10.7539 15.0731 10.7539C16.286 10.7539 17.2728 9.76821 17.2728 8.55664C17.2728 5.72964 14.9703 3.42969 12.1402 3.42969ZM12.8631 8.67412C12.8065 9.02222 12.5044 9.28906 12.1402 9.28906C11.7359 9.28906 11.407 8.9605 11.407 8.55664C11.407 8.15278 11.7359 7.82422 12.1402 7.82422C12.5162 7.82422 12.8265 8.1084 12.8683 8.4729C12.8574 8.53945 12.8556 8.60718 12.8631 8.67412Z" fill="#0C0033"/>
    <path d="M25 10.118C24.9998 9.92856 24.9234 9.73926 24.7852 9.60122L22.0671 6.88608V1.23242C22.0671 0.82793 21.7388 0.5 21.3339 0.5H3.66612C3.26118 0.5 2.9329 0.82793 2.9329 1.23242V6.88608L0.214786 9.60122C0.212244 9.60376 0.210093 9.60659 0.2076 9.60918C0.070194 9.75059 0.000342144 9.93677 4.88547e-05 10.118L0 10.1194V23.3027C0 24.5159 0.98819 25.5 2.19967 25.5H22.8003C24.0145 25.5 25 24.5133 25 23.3027V10.1194L25 10.118ZM22.0671 8.95767L23.2299 10.1191L22.0671 11.2806V8.95767ZM4.39934 1.96484H20.6007V12.7455L16.6308 16.7109H8.36916L4.39934 12.7455V1.96484ZM2.9329 8.95767V11.2806L1.77015 10.1191L2.9329 8.95767ZM1.46645 22.9994V11.8874L7.02854 17.4434L1.46645 22.9994ZM2.50342 24.0352L8.36916 18.1758H16.6308L22.4966 24.0352H2.50342ZM23.5336 22.9994L17.9715 17.4434L23.5336 11.8874V22.9994Z" fill="#0C0033"/>
</svg>
