<svg width="22" height="22" viewBox="0 0 22 22" fill="inherit" xmlns="http://www.w3.org/2000/svg">
<path fill-rule="evenodd" clip-rule="evenodd" d="M10.9467 9.3506C10.3606 9.35377 9.78155 9.40686 9.21448 9.50683C7.07983 9.26723 5.47873 7.46902 5.47873 5.36618C5.47873 3.10641 7.3277 1.19844 9.70084 1.19844C12.074 1.19844 13.923 3.10641 13.923 5.36618C13.923 7.21105 12.6906 8.82146 10.9467 9.3506ZM4.32164 5.36618C4.32164 7.41118 5.46835 9.18901 7.15532 10.0947C4.38824 11.2035 2.11107 13.4873 1.00885 16.5111L0.320435 18.3996C-0.230639 19.9114 0.847941 21.5273 2.40812 21.5273H7.01013C7.32965 21.5273 7.58868 21.259 7.58868 20.928C7.58868 20.5971 7.32965 20.3288 7.01013 20.3288H2.40812C1.65692 20.3288 1.1376 19.5508 1.40294 18.8229L2.09135 16.9344C3.29132 13.6424 6.05296 11.334 9.26465 10.715C9.40853 10.7265 9.554 10.7324 9.70084 10.7324C10.1843 10.7324 10.6528 10.6687 11.0985 10.5494C11.4149 10.5527 11.7335 10.5723 12.0533 10.6089C12.4636 10.6557 12.8682 10.7452 13.2611 10.8758L14.0936 11.1527C14.3978 11.2538 14.7236 11.0804 14.8213 10.7653C14.919 10.4502 14.7515 10.1127 14.4473 10.0116L13.6148 9.73477C13.4265 9.67213 13.2358 9.61746 13.0434 9.57088C14.2843 8.58786 15.08 7.06972 15.08 5.36618C15.08 2.40252 12.6717 0 9.70084 0C6.72999 0 4.32164 2.40252 4.32164 5.36618ZM14.9044 13.5833C15.1648 13.1774 15.6041 12.9334 16.0746 12.9334H18.1999C19.8888 12.9334 21.2579 14.3515 21.2579 16.1007V18.8327C21.2579 20.582 19.8888 22 18.1999 22H16.0746C15.6041 22 15.1648 21.7561 14.9044 21.3502L14.0594 20.033H8.7696C8.61584 20.033 8.4684 19.9696 8.35984 19.8568L6.4669 17.8897C6.34874 17.7669 6.28771 17.5971 6.29958 17.4242C6.31145 17.2513 6.39506 17.0921 6.52881 16.9879L9.05273 15.0209C9.153 14.9427 9.27509 14.9004 9.40058 14.9004H14.0594L14.9044 13.5833ZM16.0746 14.1319C15.9916 14.1319 15.9141 14.1749 15.8681 14.2465L14.8514 15.8313C14.7442 15.9984 14.5633 16.0989 14.3696 16.0989H9.59394L7.75581 17.5315L9.0098 18.8345H14.3696C14.5633 18.8345 14.7442 18.935 14.8514 19.1021L15.8681 20.6869C15.9141 20.7585 15.9916 20.8016 16.0746 20.8016H18.1999C19.2497 20.8016 20.1008 19.9201 20.1008 18.8327V16.1007C20.1008 15.0133 19.2497 14.1319 18.1999 14.1319H16.0746ZM17.7214 18.4504C18.2659 18.4504 18.7073 18.0101 18.7073 17.4669C18.7073 16.9237 18.2659 16.4834 17.7214 16.4834C17.1769 16.4834 16.7355 16.9237 16.7355 17.4669C16.7355 18.0101 17.1769 18.4504 17.7214 18.4504Z" fill="inherit"/>
</svg>
