<svg width="20" height="20" viewBox="0 0 20 20" fill="none" xmlns="http://www.w3.org/2000/svg">
<path d="M16.9773 3.04609C18.5752 4.65634 19.6151 6.6798 19.9913 8.90347C20.0463 9.21444 19.8349 9.51264 19.5263 9.5595C19.5229 9.55993 19.5196 9.56036 19.5162 9.56078C19.4865 9.56457 19.4595 9.56802 19.4291 9.56802C19.1543 9.56802 18.9134 9.37206 18.8669 9.09091C18.5329 7.10579 17.6029 5.29532 16.1741 3.85547C14.7453 2.41988 12.9487 1.47844 10.9788 1.14191C10.666 1.08653 10.4589 0.792592 10.5096 0.477358C10.5646 0.166384 10.8562 -0.0466114 11.1648 0.00876754C13.3715 0.3879 15.3794 1.43584 16.9773 3.04609Z" fill="#0C0033"/>
<path fill-rule="evenodd" clip-rule="evenodd" d="M16.8419 18.9435C16.1993 19.6464 15.3792 20 14.4027 20C14.3182 20 14.2252 19.9957 14.1364 19.9915C12.6865 19.8978 11.3887 19.3482 10.4164 18.8839C7.87163 17.6443 5.64387 15.8849 3.79233 13.657C2.26629 11.8082 1.2433 10.0829 0.558483 8.22134C0.279484 7.46307 -0.0840596 6.30438 0.0173945 5.06048C0.0850306 4.28944 0.39362 3.62489 0.934709 3.07962L2.37197 1.61847L2.38043 1.60995C2.80315 1.201 3.30197 0.983742 3.8177 0.983742C4.33342 0.983742 4.82378 1.201 5.23383 1.60995C5.5086 1.86554 5.77491 2.13818 6.02855 2.40229C6.15537 2.53861 6.29064 2.67493 6.42168 2.80699L7.57572 3.96994C8.46345 4.86452 8.46345 6.02322 7.57572 6.9178C7.51653 6.97745 7.45734 7.03816 7.39816 7.09887C7.33898 7.15957 7.27981 7.22026 7.22063 7.27989L7.12986 7.37269C6.8456 7.66338 6.55311 7.96248 6.23991 8.25116C6.49777 8.82624 6.85286 9.39281 7.38127 10.0659C8.4719 11.4163 9.60903 12.46 10.8603 13.2608C10.9829 13.3375 11.1266 13.4099 11.2788 13.4866C11.3144 13.5052 11.3505 13.5239 11.3869 13.5427L11.3876 13.5431C11.459 13.58 11.5317 13.6176 11.6043 13.657L12.9401 12.3151C13.3671 11.8849 13.8659 11.6591 14.3858 11.6591C14.91 11.6591 15.4046 11.8891 15.8146 12.3194L18.1354 14.6666C18.5624 15.0926 18.7864 15.5995 18.7864 16.1277C18.7864 16.6517 18.5666 17.1629 18.1481 17.6017C17.9663 17.7934 17.7803 17.9765 17.5985 18.1512L17.5395 18.2087C17.2948 18.4472 17.0623 18.6738 16.8588 18.9222C16.8567 18.9265 16.8535 18.9297 16.8503 18.9329C16.8471 18.9361 16.844 18.9393 16.8419 18.9435ZM15.0182 13.1068L15.0039 13.0921C14.7718 12.8486 14.5584 12.7791 14.3858 12.7791C14.2129 12.7791 13.9886 12.8486 13.7351 13.104L13.7339 13.1053L12.398 14.4472C12.0475 14.7993 11.5069 14.8784 11.0701 14.6414C11.0063 14.6068 10.9509 14.5781 10.887 14.5451C10.8508 14.5264 10.8118 14.5063 10.7671 14.4829L10.7561 14.4774C10.6177 14.4077 10.4337 14.315 10.2664 14.2104L10.2565 14.2041C8.88857 13.3286 7.66405 12.1986 6.50995 10.7696L6.50032 10.7575C5.93301 10.0349 5.52314 9.39005 5.21794 8.70939C5.02094 8.27004 5.1268 7.75394 5.48085 7.42761C5.77143 7.15978 6.04354 6.88158 6.33081 6.58786L6.42561 6.49097C6.48072 6.43544 6.53645 6.37832 6.59623 6.31701L6.59777 6.31542C6.6559 6.2558 6.71803 6.19208 6.78072 6.1289C7.05096 5.85656 7.12152 5.61595 7.12152 5.44387C7.12152 5.27179 7.05096 5.03118 6.78072 4.75885L5.62109 3.59026C5.49558 3.46379 5.35209 3.31919 5.2148 3.1719C4.96585 2.91274 4.71953 2.66119 4.471 2.43001C4.46148 2.42116 4.45212 2.41214 4.44292 2.40296C4.21398 2.17463 3.99849 2.10374 3.8177 2.10374C3.63567 2.10374 3.40931 2.17595 3.16669 2.40768L1.72972 3.86854C1.37441 4.22659 1.1788 4.64533 1.1334 5.15505C1.05353 6.14506 1.34368 7.1119 1.60959 7.83459C2.2431 9.5567 3.19479 11.1734 4.65491 12.9426C6.40643 15.0498 8.50709 16.7073 10.903 17.8751C11.8457 18.3251 12.9782 18.7924 14.1998 18.8732C14.2871 18.8774 14.3511 18.88 14.4027 18.88C15.0632 18.88 15.5728 18.6591 15.9912 18.2138L15.9944 18.21C16.2395 17.9112 16.5155 17.6425 16.7516 17.4126L16.8225 17.3436C16.998 17.1749 17.1703 17.0051 17.3354 16.831L17.3376 16.8286C17.5886 16.5655 17.6664 16.3216 17.6664 16.1277C17.6664 15.9363 17.5903 15.7049 17.3443 15.4594L17.3389 15.4541L15.0182 13.1068Z" fill="#0C0033"/>
<path d="M10.8096 4.80119C11.9171 4.98863 12.9232 5.51686 13.7264 6.32624C14.5296 7.13563 15.0495 8.14949 15.2398 9.26558C15.2863 9.54674 15.5272 9.7427 15.802 9.7427C15.8324 9.7427 15.8594 9.73925 15.8891 9.73546L15.8992 9.73418C16.212 9.68306 16.4192 9.38486 16.3684 9.06963C16.1402 7.71924 15.5061 6.48812 14.538 5.5126C13.57 4.53708 12.3483 3.89809 11.0083 3.66806C10.6955 3.61694 10.4038 3.82567 10.3488 4.13665C10.2939 4.44762 10.4968 4.75007 10.8096 4.80119Z" fill="#0C0033"/>
</svg>
