<svg width="36" height="35" viewBox="0 0 36 35" fill="inherit" stroke="none" xmlns="http://www.w3.org/2000/svg">
<path d="M17.7688 19.8868C17.5053 20.5337 17.3647 21.3872 17.3472 22.4474H18.915C18.915 20.8212 19.4113 19.5813 20.4038 18.7278C21.6072 17.5957 22.424 16.6074 22.8544 15.7628C23.2848 14.9093 23.5 13.9973 23.5 13.027C23.5 11.4816 23.0608 10.2597 22.1825 9.36119C21.3129 8.45373 20.1227 8 18.612 8C17.1364 8 15.9199 8.44474 14.9625 9.33423C14.0051 10.2147 13.5176 11.3917 13.5 12.8652H15.0679C15.0854 11.814 15.4148 10.9829 16.056 10.372C16.706 9.75202 17.558 9.44205 18.612 9.44205C19.6572 9.44205 20.4697 9.7655 21.0494 10.4124C21.6379 11.0503 21.9321 11.9308 21.9321 13.0539C21.9321 13.611 21.8619 14.1096 21.7213 14.5499C21.5896 14.9811 21.3964 15.381 21.1416 15.7493C20.8957 16.1087 20.3379 16.7287 19.4684 17.6092C18.5988 18.4807 18.0323 19.2399 17.7688 19.8868Z" fill="inherit" stroke="transparent"/>
<path d="M17.413 25.1806C17.2286 25.3872 17.1364 25.6433 17.1364 25.9488C17.1364 26.2453 17.2286 26.4969 17.413 26.7035C17.6063 26.9012 17.8742 27 18.2167 27C18.5505 27 18.814 26.9012 19.0072 26.7035C19.2093 26.4969 19.3103 26.2453 19.3103 25.9488C19.3103 25.6433 19.2093 25.3872 19.0072 25.1806C18.814 24.965 18.5505 24.8571 18.2167 24.8571C17.8742 24.8571 17.6063 24.965 17.413 25.1806Z" fill="inherit" stroke="transparent"/>
<path fill-rule="evenodd" clip-rule="evenodd" d="M32.5 17.5C32.5 25.5081 26.0081 32 18 32C9.99187 32 3.5 25.5081 3.5 17.5C3.5 9.49187 9.99187 3 18 3C26.0081 3 32.5 9.49187 32.5 17.5ZM31.5 17.5C31.5 24.9558 25.4558 31 18 31C10.5442 31 4.5 24.9558 4.5 17.5C4.5 10.0442 10.5442 4 18 4C25.4558 4 31.5 10.0442 31.5 17.5Z" fill="inherit" stroke="transparent"/>
<path fill-rule="evenodd" clip-rule="evenodd" d="M18 35C27.665 35 35.5 27.165 35.5 17.5C35.5 7.83502 27.665 0 18 0C8.33502 0 0.5 7.83502 0.5 17.5C0.5 27.165 8.33502 35 18 35ZM18 33.85C27.0299 33.85 34.35 26.5299 34.35 17.5C34.35 8.47014 27.0299 1.15 18 1.15C8.97014 1.15 1.65 8.47014 1.65 17.5C1.65 26.5299 8.97014 33.85 18 33.85Z" fill="inherit" stroke="transparent"/>
</svg>
