<svg width="19" height="17" viewBox="-1 0 19 17" fill="inherit" stroke="none" xmlns="http://www.w3.org/2000/svg">
    <path d="M17 6.5C16.8 6.1 16.4 5.8 16 5.7 15.6 5.7 12.3 5.2 11.9 5.2 11.7 5.1 11.5 5 11.5 4.9 11.3 4.5 9.8 1.6 9.6 1.2 9.4 0.8 9 0.6 8.5 0.6 8.1 0.6 7.6 0.8 7.4 1.2 7.2 1.6 5.8 4.5 5.6 4.9 5.5 5 5.3 5.1 5.2 5.2 4.8 5.2 1.5 5.7 1.1 5.7 0.6 5.8 0.2 6.1 0.1 6.5 -0.1 7 0 7.4 0.4 7.8 0.7 8 3.1 10.3 3.4 10.6 3.5 10.7 3.5 10.9 3.5 11.1 3.4 11.5 2.9 14.7 2.8 15 2.7 15.5 2.9 15.9 3.3 16.2 3.7 16.5 4.2 16.5 4.6 16.3 4.9 16.1 7.9 14.6 8.3 14.4 8.4 14.3 8.6 14.3 8.8 14.4 9.1 14.6 12.1 16.1 12.5 16.3 12.6 16.4 12.8 16.4 13 16.4 13.3 16.4 13.5 16.4 13.7 16.2 14.1 15.9 14.3 15.5 14.2 15 14.2 14.7 13.6 11.5 13.5 11.1 13.5 10.9 13.6 10.7 13.7 10.6 13.9 10.4 14.9 9.5 16.7 7.8 17 7.2 17.1 6.8 17 6.5Z"/>
</svg>
