<svg width="16" height="16" viewBox="0 0 16 16" fill="none" xmlns="http://www.w3.org/2000/svg">
<path d="M13.25 2H10.5V1.5C10.5 0.671562 9.82844 0 9 0H7C6.17156 0 5.5 0.671562 5.5 1.5V2H2.75C2.05966 2 1.5 2.55966 1.5 3.25V4.25C1.5 4.52616 1.72384 4.75 2 4.75H14C14.2762 4.75 14.5 4.52616 14.5 4.25V3.25C14.5 2.55966 13.9403 2 13.25 2ZM6.5 1.5C6.5 1.22438 6.72437 1 7 1H9C9.27563 1 9.5 1.22438 9.5 1.5V2H6.5V1.5Z" fill="#768592"/>
<path d="M2.44885 5.75C2.35963 5.75 2.28853 5.82456 2.29278 5.91369L2.70528 14.5712C2.74341 15.3725 3.40153 16 4.20341 16H11.7965C12.5984 16 13.2565 15.3725 13.2947 14.5712L13.7072 5.91369C13.7114 5.82456 13.6403 5.75 13.5511 5.75H2.44885ZM9.99997 7C9.99997 6.72375 10.2237 6.5 10.5 6.5C10.7762 6.5 11 6.72375 11 7V13.5C11 13.7762 10.7762 14 10.5 14C10.2237 14 9.99997 13.7762 9.99997 13.5V7ZM7.49997 7C7.49997 6.72375 7.72372 6.5 7.99997 6.5C8.27622 6.5 8.49997 6.72375 8.49997 7V13.5C8.49997 13.7762 8.27622 14 7.99997 14C7.72372 14 7.49997 13.7762 7.49997 13.5V7ZM4.99997 7C4.99997 6.72375 5.22372 6.5 5.49997 6.5C5.77622 6.5 5.99997 6.72375 5.99997 7V13.5C5.99997 13.7762 5.77622 14 5.49997 14C5.22372 14 4.99997 13.7762 4.99997 13.5V7Z" fill="#768592"/>
</svg>
