<svg width="36" height="35" viewBox="0 0 36 35" fill="inherit" stroke="none" xmlns="http://www.w3.org/2000/svg">
<path d="M22.358 20.9243C22.1455 20.7092 21.8008 20.7092 21.5882 20.9243C21.3756 21.1394 21.3756 21.4881 21.5882 21.7032L26.9771 27.1556C27.1897 27.3707 27.5343 27.3707 27.7469 27.1556C27.9595 26.9405 27.9595 26.5918 27.7469 26.3767L22.358 20.9243Z" fill="inherit" stroke="transparent"/>
<path fill-rule="evenodd" clip-rule="evenodd" d="M5.52478 25.75C5.33068 25.7624 5.15788 25.8787 5.07146 26.0549L3.97662 28.2881C3.89019 28.4643 3.90328 28.6739 4.01095 28.8377L5.37495 30.9136C5.48262 31.0775 5.66852 31.1708 5.86261 31.1584L8.32145 31.0012C8.51554 30.9887 8.68835 30.8725 8.77477 30.6962L9.86961 28.4631C9.95603 28.2868 9.94295 28.0773 9.83527 27.9134L8.47127 25.8375C8.3636 25.6737 8.17771 25.5804 7.98362 25.5928L5.52478 25.75ZM6.1076 30.039L5.09159 28.4927L5.90711 26.8293L7.73863 26.7122L8.75463 28.2585L7.93912 29.9219L6.1076 30.039Z" fill="inherit" stroke="transparent"/>
<path d="M24.3536 11.3536C24.5488 11.1583 24.5488 10.8417 24.3536 10.6464C24.1583 10.4512 23.8417 10.4512 23.6464 10.6464L10.6464 23.6464C10.4512 23.8417 10.4512 24.1583 10.6464 24.3536C10.8417 24.5488 11.1583 24.5488 11.3536 24.3536L24.3536 11.3536Z" fill="inherit" stroke="transparent"/>
<path fill-rule="evenodd" clip-rule="evenodd" d="M4.30358 10.4462L0.882786 5.26502L5.34142 0.753853L10.4623 4.21494L11.6433 6.99028L16.7756 12.183L21.4393 7.46427C21.2453 5.51006 21.8882 3.48482 23.3691 1.9865C25.3135 0.0191876 28.1543 -0.486144 30.5587 0.467171C30.7297 0.534968 30.8554 0.685441 30.893 0.867338C30.9305 1.04924 30.8749 1.23803 30.745 1.36943L27.8082 4.34089L28.0796 6.81266L30.5226 7.08729L33.4594 4.11583C33.5893 3.98444 33.7759 3.92816 33.9557 3.96616C34.1355 4.00416 34.2842 4.13132 34.3512 4.30434C35.2934 6.7371 34.794 9.61138 32.8496 11.5787C31.3687 13.077 29.367 13.7275 27.4356 13.5312L24.7075 16.2913L26.442 18.0462C26.565 18.1706 26.6218 18.347 26.5948 18.5209C26.5679 18.6948 26.4605 18.8452 26.3057 18.9256C26.1967 18.9822 26.0921 19.0582 25.9973 19.1541C25.5367 19.6201 25.5588 20.2683 25.8923 20.6057C26.2258 20.9431 26.8665 20.9655 27.327 20.4995C27.4218 20.4035 27.4969 20.2977 27.5529 20.1874C27.6323 20.0308 27.781 19.9221 27.9528 19.8949C28.1247 19.8676 28.299 19.9251 28.422 20.0496L33.9056 25.5978C36.0315 27.7486 36.0315 31.2359 33.9056 33.3868C31.7798 35.5377 28.3331 35.5377 26.2072 33.3868L20.7237 27.8387C20.6007 27.7142 20.5439 27.5378 20.5708 27.3639C20.5977 27.1901 20.7051 27.0397 20.8599 26.9593C20.9688 26.9027 21.0734 26.8267 21.1683 26.7308C21.6288 26.2648 21.6067 25.6166 21.2733 25.2792C20.9398 24.9417 20.2991 24.9194 19.8386 25.3854C19.7437 25.4813 19.6687 25.5872 19.6127 25.6974C19.5332 25.854 19.3846 25.9627 19.2128 25.9899C19.0409 26.0171 18.8666 25.9597 18.7436 25.8352L17.0092 24.0804L13.8737 27.2528C14.0677 29.207 13.4249 31.2323 11.944 32.7306C9.32603 35.3794 5.0815 35.3794 2.46349 32.7306C-0.154525 30.0817 -0.154466 25.7872 2.46349 23.1384C3.94436 21.6401 5.94602 20.9896 7.87747 21.1859L12.1789 16.8339L7.04659 11.6411L4.30358 10.4462ZM12.945 16.0587L16.0094 12.9582L10.7289 7.61541L9.59295 4.94593L5.4832 2.16822L2.28069 5.40846L5.02605 9.56663L7.66445 10.716L12.945 16.0587ZM17.779 23.3015L23.9377 17.0702L25.2275 18.3752C24.4125 19.1998 24.2964 20.5488 25.1224 21.3846C25.9485 22.2204 27.2818 22.103 28.0968 21.2784L32.7509 25.9872L26.5922 32.2185L21.9382 27.5096C22.7531 26.685 22.8691 25.336 22.0431 24.5003C21.217 23.6645 19.8838 23.7819 19.0688 24.6064L17.779 23.3015ZM3.23333 23.9173C1.04053 26.1359 1.04049 29.733 3.23333 31.9517C5.42616 34.1703 8.98135 34.1703 11.1741 31.9517C12.4729 30.6376 13.0028 28.8405 12.7626 27.1303C12.7385 26.9588 12.7955 26.7859 12.9166 26.6634L26.853 12.5628C26.9741 12.4403 27.145 12.3826 27.3145 12.4069C29.0048 12.65 30.781 12.1138 32.0797 10.7998C33.4895 9.37338 33.9935 7.37649 33.5896 5.54193L31.1074 8.05338C30.9905 8.17169 30.8268 8.22981 30.6624 8.21133L27.5266 7.8588C27.2735 7.83035 27.0738 7.62825 27.0456 7.37222L26.6972 4.19944C26.679 4.03314 26.7364 3.86747 26.8533 3.74916L29.3355 1.23771C27.5223 0.829087 25.5487 1.33901 24.1389 2.76541C22.8402 4.07946 22.3102 5.87656 22.5505 7.58675C22.5746 7.75824 22.5175 7.93122 22.3965 8.0537L8.46004 22.1543C8.33898 22.2768 8.16802 22.3345 7.99852 22.3101C6.30825 22.0671 4.53207 22.6032 3.23333 23.9173ZM33.1358 32.6079C31.5655 34.1967 29.0942 34.3185 27.3858 32.9733L33.4969 26.7902C34.8265 28.5188 34.7061 31.0191 33.1358 32.6079Z" fill="inherit" stroke="transparent"/>
</svg>
