<svg width="20" height="20" viewBox="0 0 20 20" fill="none" xmlns="http://www.w3.org/2000/svg">
<path d="M7.21937 4.18355C7.52355 4.48957 8.01816 4.49105 8.32421 4.18691C8.63023 3.88273 8.63175 3.38809 8.32757 3.08207L5.94648 0.686484C5.50382 0.243789 4.91523 0 4.28921 0C3.66315 0 3.0746 0.243789 2.63296 0.68543L0.229912 3.07934C-0.0757519 3.38383 -0.0767285 3.87852 0.227803 4.18418C0.380459 4.33742 0.58085 4.41406 0.781318 4.41406C0.980733 4.41406 1.18022 4.33816 1.33269 4.18629L3.47659 2.05051V17.9707L1.33538 15.8164C1.0312 15.5104 0.536553 15.5089 0.230537 15.8131C-0.0754785 16.1173 -0.077002 16.6119 0.227178 16.9179L2.60827 19.3135C3.05097 19.7562 3.63952 20 4.26554 20C4.89159 20 5.48015 19.7562 5.92179 19.3146L8.32483 16.9207C8.6305 16.6162 8.63148 16.1215 8.32694 15.8158C8.02245 15.5102 7.5278 15.5092 7.2221 15.8137L5.03909 17.9884V1.99L7.21937 4.18355Z" fill="#F44336"/>
<path d="M19.2188 18.4375H11.4062C10.9748 18.4375 10.625 18.7873 10.625 19.2188C10.625 19.6502 10.9748 20 11.4062 20H19.2188C19.6502 20 20 19.6502 20 19.2188C20 18.7873 19.6502 18.4375 19.2188 18.4375Z" fill="#F44336"/>
<path d="M11.4062 1.5625H19.2188C19.6502 1.5625 20 1.21273 20 0.78125C20 0.349766 19.6502 0 19.2188 0H11.4062C10.9748 0 10.625 0.349766 10.625 0.78125C10.625 1.21273 10.9748 1.5625 11.4062 1.5625Z" fill="#F44336"/>
<path d="M19.2188 4.60938H11.4062C10.9748 4.60938 10.625 4.95914 10.625 5.39062C10.625 5.82211 10.9748 6.17188 11.4062 6.17188H19.2188C19.6502 6.17188 20 5.82211 20 5.39062C20 4.95914 19.6502 4.60938 19.2188 4.60938Z" fill="#F44336"/>
<path d="M19.2188 13.8281H11.4062C10.9748 13.8281 10.625 14.1779 10.625 14.6094C10.625 15.0409 10.9748 15.3906 11.4062 15.3906H19.2188C19.6502 15.3906 20 15.0409 20 14.6094C20 14.1779 19.6502 13.8281 19.2188 13.8281Z" fill="#F44336"/>
<path d="M19.2188 9.21875H11.4062C10.9748 9.21875 10.625 9.56852 10.625 10C10.625 10.4315 10.9748 10.7812 11.4062 10.7812H19.2188C19.6502 10.7812 20 10.4315 20 10C20 9.56852 19.6502 9.21875 19.2188 9.21875Z" fill="#F44336"/>
</svg>
