<svg width="24" height="22" viewBox="0 0 24 22" fill="none" xmlns="http://www.w3.org/2000/svg">
<path fill-rule="evenodd" clip-rule="evenodd" d="M17.6789 20.7877C17.9997 21.0252 18.4132 21.0845 18.7819 20.9387C19.1505 20.7918 19.4215 20.4627 19.5032 20.0637C20.3691 15.8095 22.4695 5.04183 23.2576 1.17204C23.3174 0.880375 23.2177 0.57725 22.9985 0.382458C22.7793 0.187667 22.4754 0.131417 22.2044 0.236625C18.0266 1.85329 5.16039 6.90017 -0.0984833 8.93454C-0.43227 9.06371 -0.64948 9.39912 -0.63852 9.76683C-0.626563 10.1356 -0.389425 10.4554 -0.0476681 10.5627C2.31076 11.3002 5.4065 12.3262 5.4065 12.3262C5.4065 12.3262 6.85324 16.8939 7.6075 19.2168C7.70215 19.5085 7.92036 19.7377 8.20831 19.8168C8.49527 19.895 8.80215 19.8127 9.01637 19.6012C10.228 18.4054 12.1012 16.5564 12.1012 16.5564C12.1012 16.5564 15.6602 19.2845 17.6789 20.7877ZM6.70876 11.7491L8.38168 17.5179L8.75333 13.8647C8.75333 13.8647 15.2168 7.76996 18.9014 4.296C19.009 4.19392 19.024 4.02308 18.9343 3.90329C18.8456 3.7835 18.6822 3.75537 18.5597 3.83662C14.2892 6.68767 6.70876 11.7491 6.70876 11.7491Z" fill="white"/>
</svg>
