<svg width="16" height="16" viewBox="0 0 16 16" fill="none" xmlns="http://www.w3.org/2000/svg">
<path d="M8 16C12.4183 16 16 12.4183 16 8C16 3.58172 12.4183 0 8 0C3.58172 0 0 3.58172 0 8C0 12.4183 3.58172 16 8 16Z" fill="#039BE5"/>
<path d="M3.6606 7.82681L11.3739 4.8528C11.7319 4.72347 12.0446 4.94014 11.9286 5.48147L11.9293 5.48081L10.6159 11.6681C10.5186 12.1068 10.2579 12.2135 9.89326 12.0068L7.89326 10.5328L6.9286 11.4621C6.82193 11.5688 6.73193 11.6588 6.52526 11.6588L6.66726 9.62348L10.3739 6.27481C10.5353 6.13281 10.3379 6.05281 10.1253 6.19414L5.5446 9.07814L3.56993 8.46214C3.14126 8.32614 3.13193 8.03347 3.6606 7.82681Z" fill="white"/>
</svg>
