<svg width="31" height="30" viewBox="0 0 31 30" fill="none" xmlns="http://www.w3.org/2000/svg">
    <g clip-path="url(#clip0)">
        <path d="M15.4834 30C23.7677 30 30.4834 23.2843 30.4834 15C30.4834 6.71573 23.7677 0 15.4834 0C7.19913 0 0.483398 6.71573 0.483398 15C0.483398 23.2843 7.19913 30 15.4834 30Z" fill="white"/>
        <path d="M6.34723 14.6751L20.8097 9.09883C21.481 8.85633 22.0672 9.26258 21.8497 10.2776L21.851 10.2763L19.3885 21.8776C19.206 22.7001 18.7172 22.9001 18.0335 22.5126L14.2835 19.7488L12.4747 21.4913C12.2747 21.6913 12.106 21.8601 11.7185 21.8601L11.9847 18.0438L18.9347 11.7651C19.2372 11.4988 18.8672 11.3488 18.4685 11.6138L9.87973 17.0213L6.17723 15.8663C5.37348 15.6113 5.35598 15.0626 6.34723 14.6751Z" fill="#039BE5"/>
    </g>
    <defs>
        <clipPath id="clip0">
            <rect width="30" height="30" fill="white" transform="translate(0.483398)"/>
        </clipPath>
    </defs>
</svg>
