<svg width="25" height="25" viewBox="0 0 25 25" fill="inherit" xmlns="http://www.w3.org/2000/svg">
<path d="M0 2.76923C0 1.23983 1.34315 0 3 0H4C5.65685 0 7 1.23983 7 2.76923V4.23077C7 5.76017 5.65685 7 4 7H3C1.34315 7 0 5.76017 0 4.23077V2.76923Z" fill="inherit"/>
<path d="M9 2.76923C9 1.23983 10.3431 0 12 0H13C14.6569 0 16 1.23983 16 2.76923V4.23077C16 5.76017 14.6569 7 13 7H12C10.3431 7 9 5.76017 9 4.23077V2.76923Z" fill="inherit"/>
<path d="M21 0C19.3431 0 18 1.23983 18 2.76923V4.23077C18 5.76017 19.3431 7 21 7H22C23.6569 7 25 5.76017 25 4.23077V2.76923C25 1.23983 23.6569 0 22 0H21Z" fill="inherit"/>
<path d="M0 11.7692C0 10.2398 1.34315 9 3 9H4C5.65685 9 7 10.2398 7 11.7692V13.2308C7 14.7602 5.65685 16 4 16H3C1.34315 16 0 14.7602 0 13.2308V11.7692Z" fill="inherit"/>
<path d="M12 9C10.3431 9 9 10.2398 9 11.7692V13.2308C9 14.7602 10.3431 16 12 16H13C14.6569 16 16 14.7602 16 13.2308V11.7692C16 10.2398 14.6569 9 13 9H12Z" fill="inherit"/>
<path d="M18 11.7692C18 10.2398 19.3431 9 21 9H22C23.6569 9 25 10.2398 25 11.7692V13.2308C25 14.7602 23.6569 16 22 16H21C19.3431 16 18 14.7602 18 13.2308V11.7692Z" fill="inherit"/>
<path d="M3 18C1.34315 18 0 19.2398 0 20.7692V22.2308C0 23.7602 1.34315 25 3 25H4C5.65685 25 7 23.7602 7 22.2308V20.7692C7 19.2398 5.65685 18 4 18H3Z" fill="inherit"/>
<path d="M9 20.7692C9 19.2398 10.3431 18 12 18H13C14.6569 18 16 19.2398 16 20.7692V22.2308C16 23.7602 14.6569 25 13 25H12C10.3431 25 9 23.7602 9 22.2308V20.7692Z" fill="inherit"/>
<path d="M21 18C19.3431 18 18 19.2398 18 20.7692V22.2308C18 23.7602 19.3431 25 21 25H22C23.6569 25 25 23.7602 25 22.2308V20.7692C25 19.2398 23.6569 18 22 18H21Z" fill="inherit"/>
</svg>
