<svg width="36" height="35" viewBox="0 0 36 35" fill="inherit" stroke="none" xmlns="http://www.w3.org/2000/svg">
<path d="M20.9166 22.1667C20.9166 22.5167 20.6833 22.75 20.3333 22.75H15.6666C15.3166 22.75 15.0833 22.5167 15.0833 22.1667C15.0833 21.8167 15.3166 21.5834 15.6666 21.5834H20.3333C20.6833 21.5834 20.9166 21.8167 20.9166 22.1667Z" fill="inherit" stroke="transparent"/>
<path d="M22.0833 23.9167H13.9167C13.5667 23.9167 13.3334 24.15 13.3334 24.5C13.3334 24.85 13.5667 25.0833 13.9167 25.0833H22.0834C22.4334 25.0833 22.6667 24.85 22.6667 24.5C22.6667 24.15 22.4333 23.9167 22.0833 23.9167Z" fill="inherit" stroke="transparent"/>
<path fill-rule="evenodd" clip-rule="evenodd" d="M9.5 11C9.5 9.89543 10.3954 9 11.5 9H24.5C25.6046 9 26.5 9.89543 26.5 11V17C26.5 18.1046 25.6046 19 24.5 19H11.5C10.3954 19 9.5 18.1046 9.5 17V11ZM11.5 10H24.5C25.0523 10 25.5 10.4477 25.5 11V17C25.5 17.5523 25.0523 18 24.5 18H11.5C10.9477 18 10.5 17.5523 10.5 17V11C10.5 10.4477 10.9477 10 11.5 10Z" fill="inherit" stroke="transparent"/>
<path fill-rule="evenodd" clip-rule="evenodd" d="M10.5 24C10.5 22.9 9.59999 22 8.5 22C7.40001 22 6.5 22.9 6.5 24C6.5 25.1 7.40001 26 8.5 26C9.59999 26.0001 10.5 25.1 10.5 24ZM8.5 25C7.94998 25 7.49997 24.55 7.49997 24C7.49997 23.45 7.94998 23 8.5 23C9.05002 23 9.50003 23.45 9.50003 24C9.50003 24.55 9.05002 25 8.5 25Z" fill="inherit" stroke="transparent"/>
<path fill-rule="evenodd" clip-rule="evenodd" d="M27.5 22C28.6 22 29.5 22.9 29.5 24C29.5 25.1 28.6 26.0001 27.5 26C26.4 26 25.5 25.1 25.5 24C25.5 22.9 26.4 22 27.5 22ZM26.5 24C26.5 24.55 26.95 25 27.5 25C28.05 25 28.5 24.55 28.5 24C28.5 23.45 28.05 23 27.5 23C26.95 23 26.5 23.45 26.5 24Z" fill="inherit" stroke="transparent"/>
<path fill-rule="evenodd" clip-rule="evenodd" d="M33.1083 9.975H34.45C35.0333 9.975 35.5 10.4417 35.4999 11.0249V14.6999C35.4999 15.2832 35.0332 15.7499 34.4499 15.7499H33.1082C32.5249 15.7499 32.0582 15.2832 32.0582 14.6999V13.4166H31.4166V19.8333H31.9999C32.3499 19.8333 32.5832 20.0666 32.5832 20.4166V27.4166C32.5832 27.4228 32.5828 27.4288 32.5825 27.4348L32.5819 27.4458C32.5823 27.4556 32.5832 27.4651 32.5832 27.475V29.75C32.5832 30.7417 31.8249 31.5 30.8332 31.5H30.2499V32.6667C30.2499 33.95 29.1999 35 27.9166 35H25.5832C24.2999 35 23.2499 33.95 23.2499 32.6667V31.5H12.7499V32.6667C12.7499 33.95 11.6999 35 10.4166 35H8.08331C6.8 35 5.75 33.95 5.75 32.6668V31.5001H5.16669C4.175 31.5001 3.41669 30.7418 3.41669 29.7501V27.4751C3.41669 27.4689 3.41703 27.4629 3.41737 27.457L3.41792 27.4459L3.41737 27.4348C3.41703 27.4288 3.41669 27.4228 3.41669 27.4167V20.4167C3.41669 20.0667 3.65 19.8334 4 19.8334H4.58338V13.4167H3.94169V14.7C4 15.2833 3.53331 15.75 2.95 15.75H1.55C0.966689 15.75 0.5 15.2833 0.5 14.7V11.025C0.5 10.4417 0.966689 9.975 1.55 9.975H2.89162C3.47493 9.975 3.94162 10.4417 3.94162 11.025V12.25H4.58331V1.75C4.58331 0.758311 5.34162 0 6.33331 0H29.6666C30.6583 0 31.4166 0.758311 31.4166 1.75V12.25H32.0583V11.025C32.0583 10.4417 32.525 9.975 33.1083 9.975ZM1.66669 14.5833H2.83331L2.83338 11.0833H1.66669V14.5833ZM10.4166 33.8334C11.0583 33.8334 11.5833 33.3084 11.5833 32.6667V31.5H6.91662V32.6667C6.91662 33.3084 7.44162 33.8334 8.08331 33.8334H10.4166ZM27.9166 33.8334C28.5583 33.8334 29.0833 33.3084 29.0833 32.6667V31.5H24.4166V32.6667C24.4166 33.3084 24.9416 33.8334 25.5833 33.8334H27.9166ZM30.8334 30.3333C31.1834 30.3333 31.4167 30.1 31.4167 29.75V28.0583H4.58338V29.75C4.58338 30.1 4.81669 30.3333 5.16669 30.3333H30.8334ZM4.58331 26.8333H31.4167L31.4166 21H27.9166V8.05C27.9166 7.46669 27.4499 7 26.8666 7H9.13331C8.55 7 8.08331 7.46669 8.08331 8.05V21H4.58331V26.8333ZM29.0833 8.05V19.8333H30.2499V1.75C30.2499 1.4 30.0166 1.16669 29.6666 1.16669H6.33331C5.98331 1.16669 5.75 1.4 5.75 1.75V19.8333H6.91676V8.05C6.91676 6.825 7.90845 5.83331 9.13345 5.83331H11.0001V4.08331C11.0001 3.73331 11.2334 3.5 11.5834 3.5C11.9334 3.5 12.1668 3.73331 12.1668 4.08331V5.83331H13.9168V4.08331C13.9168 3.73331 14.1501 3.5 14.5001 3.5C14.8501 3.5 15.0834 3.73331 15.0834 4.08331V5.83331H16.8334V4.08331C16.8334 3.73331 17.0667 3.5 17.4167 3.5C17.7667 3.5 18 3.73331 18 4.08331V5.83331H19.7501V4.08331C19.7501 3.73331 19.9834 3.5 20.3334 3.5C20.6834 3.5 20.9167 3.73331 20.9167 4.08331V5.83331H22.6667V4.08331C22.6667 3.73331 22.9 3.5 23.25 3.5C23.6 3.5 23.8333 3.73331 23.8333 4.08331V5.83331H26.8666C28.0916 5.83331 29.0833 6.825 29.0833 8.05ZM33.1666 14.5833H34.3333V11.0833H33.1666V14.5833Z" fill="inherit" stroke="transparent"/>
</svg>
