<svg width="36" height="35" viewBox="0 0 36 35" fill="inherit" stroke="none" xmlns="http://www.w3.org/2000/svg">
<path d="M35.5 17.3833C35.4996 17.325 35.498 17.2671 35.4972 17.2089C35.4963 17.1293 35.4952 17.0497 35.4934 16.9704C35.493 16.9507 35.4922 16.9312 35.4917 16.9116C35.3724 12.1365 33.808 7.83063 31.36 4.75863C29.1839 2.01332 26.3089 0.243154 23.125 0C23.0625 0 23.0625 0 23 0C22.9553 0.00369141 22.911 0.0090918 22.8664 0.0135352C22.7033 0.00546875 22.5396 0 22.375 0H13.625C10.3743 0 7.40052 1.58402 5.10826 4.19829C5.04307 4.25031 4.98917 4.31286 4.94852 4.38354C2.2209 7.5965 0.5 12.2916 0.5 17.5C0.5 27.125 6.37498 35 13.625 35H22.3751C22.5533 35 22.7304 34.9938 22.9069 34.9844C22.9588 34.9897 23.0105 34.9957 23.0625 35C29.0625 34.5333 34.0625 28.8167 35.25 20.9417C35.2569 20.8808 35.2636 20.8191 35.2705 20.7577C35.4206 19.7014 35.5 18.6126 35.5 17.5V17.3833ZM14.8286 26.6842C14.8154 26.6165 14.7876 26.5527 14.7473 26.496C13.6398 23.9141 13 20.8225 13 17.5001C13 8.88809 17.3567 1.82349 22.9083 1.18398C29.2228 1.56939 34.25 8.76142 34.25 17.5C34.25 26.2391 29.2223 33.4315 22.9072 33.8162C19.5132 33.4296 16.6005 30.693 14.8286 26.6842ZM2.52771 23.3093C2.66431 23.2695 2.80091 23.185 2.9375 23.1L3.74998 21.9333L5.06248 23.1583C5.31246 23.3916 5.68746 23.3916 5.93751 23.1583L7.37503 21.8166L8.87504 23.2166C9.12501 23.4499 9.50001 23.4499 9.75006 23.2166L11.2501 21.8166L12.2771 22.6743C12.495 23.715 12.7769 24.7146 13.1168 25.6627L12.0001 25.1416C11.6876 24.9666 11.3752 25.0833 11.1877 25.3166L10.3752 26.4833L9.06268 25.2583C8.81271 25.025 8.43771 25.025 8.18766 25.2583L6.74998 26.6L5.31246 25.2583C5.06248 25.025 4.68748 25.025 4.43743 25.2583L3.53509 26.1005C3.13782 25.2217 2.79951 24.2878 2.52771 23.3093ZM1.75266 17.7871L3.3125 18.6084C3.56248 18.7251 3.875 18.6667 4.0625 18.4917L5.50003 17.15L7.00003 18.4917C7.25001 18.725 7.62501 18.725 7.87506 18.4917L9.37506 17.0917L11.7674 18.4418C11.7975 19.2807 11.8671 20.1043 11.9744 20.908L11.5 20.5334C11.2501 20.3584 10.8751 20.4167 10.6876 20.5917L9.25004 21.9334L7.81251 20.5917C7.56253 20.3584 7.18753 20.3584 6.93748 20.5917L5.49996 21.9334L4.06243 20.5917C3.93741 20.475 3.74991 20.4167 3.56241 20.4167C3.37491 20.4167 3.18741 20.5334 3.06238 20.65L2.18443 21.8791C1.91958 20.5724 1.77046 19.2009 1.75266 17.7871ZM3.79429 8.34982L5.18743 9.21669C5.37493 9.33338 5.68746 9.33338 5.87496 9.21669L7.37496 8.28338L8.93744 9.27507C9.12494 9.39176 9.43746 9.39176 9.62496 9.27507L11.1874 8.28338L13.179 9.1862C12.8503 10.0799 12.573 11.0193 12.3528 11.9961L11.5624 11.2584C11.3124 11.0251 10.9374 11.0251 10.6873 11.2584L9.24982 12.6001L7.81229 11.2584C7.56231 11.0251 7.18731 11.0251 6.93726 11.2584L5.49996 12.6L4.06243 11.2583C3.93741 11.1416 3.81246 11.0833 3.62496 11.0833C3.43746 11.0833 3.31243 11.1416 3.18748 11.2583L2.45242 11.9681C2.79073 10.68 3.24351 9.46593 3.79429 8.34982ZM5.80677 5.21746L9.74999 4.14169L11.375 5.13338C11.5625 5.25007 11.875 5.25007 12.0625 5.13338L13.625 4.14169L15.3683 4.93199C14.6979 5.89019 14.1045 6.96268 13.6019 8.12677L11.3125 7.05838C11.125 7.00007 10.8751 7.00007 10.6876 7.11669L9.18756 8.05L7.68756 7.11669C7.50006 7 7.18753 7 7.00003 7.11669L5.50003 8.05L4.36053 7.29668C4.79771 6.54698 5.2817 5.85088 5.80677 5.21746ZM9.56249 15.8667C9.31251 15.75 8.99999 15.8084 8.81249 15.9834L7.37496 17.3251L5.93743 15.9834C5.68746 15.7501 5.31246 15.7501 5.06241 15.9834L3.49993 17.4417L1.77229 16.5133C1.81038 15.641 1.89841 14.7867 2.03281 13.9556C2.11038 13.9264 2.18787 13.883 2.24998 13.8251L3.62496 12.4834L5.06248 13.825C5.31246 14.0583 5.68746 14.0583 5.93751 13.825L7.37503 12.4833L8.81256 13.825C9.06254 14.0583 9.43754 14.0583 9.68758 13.825L11.1251 12.4833L11.9376 13.2416C11.9842 13.2851 12.0351 13.3204 12.0888 13.3477C11.8886 14.5541 11.7735 15.8076 11.7535 17.0935L9.56249 15.8667ZM19.344 1.16669C18.1462 1.85391 17.0448 2.81729 16.0737 4.00107L13.875 2.975C13.6875 2.91669 13.4375 2.91669 13.25 3.03331L11.75 3.96662L10.25 3.03331C10.0625 2.91662 9.87501 2.91662 9.68751 2.91662L7.52166 3.49419C9.30489 2.01797 11.3924 1.16662 13.625 1.16662L19.344 1.16669ZM4.08763 27.2182L4.87498 26.4833L6.31251 27.825C6.56248 28.0583 6.93748 28.0583 7.18753 27.825L8.62499 26.4833L10.0625 27.825C10.1875 27.9417 10.3125 28 10.5 28C10.75 28 10.9375 27.8833 11 27.7083L11.9375 26.3666L13.7426 27.209C14.2127 28.2449 14.7562 29.2034 15.3634 30.0683L14.1874 30.8L12.6874 29.8667C12.4999 29.75 12.1874 29.75 11.9999 29.8667L10.5 30.8L8.99999 29.8667C8.81249 29.75 8.49996 29.75 8.31246 29.8667L6.76793 30.8278C5.7421 29.8259 4.83682 28.6059 4.08763 27.2182ZM13.625 33.8333C11.4543 33.8333 9.42069 33.0286 7.67057 31.6272L8.62499 31.0333L10.1875 31.9666C10.375 32.0833 10.6875 32.0833 10.875 31.9666L12.375 31.0333L13.8125 32.025C14 32.1417 14.3125 32.1417 14.5 32.025L16.0978 31.0308C17.0679 32.201 18.1682 33.1528 19.3657 33.8334L13.625 33.8333Z" fill="inherit" stroke="transparent"/>
<path d="M23.625 4.66562C20.3891 4.66562 17.6763 8.0449 16.6101 12.8914C16.6038 12.9198 16.5975 12.9483 16.5913 12.9768C16.5627 13.1096 16.5352 13.2434 16.5091 13.3782C16.5001 13.4244 16.4917 13.4709 16.4831 13.5173C16.4654 13.6121 16.4484 13.7074 16.432 13.8032C16.421 13.8671 16.4101 13.931 16.3998 13.9952C16.3825 14.1022 16.3661 14.2099 16.3504 14.3181C16.341 14.3832 16.3318 14.4485 16.323 14.5139C16.3098 14.6112 16.2973 14.709 16.2854 14.8072C16.2758 14.8864 16.2667 14.9659 16.258 15.0455C16.2482 15.1349 16.2388 15.2245 16.2301 15.3146C16.2244 15.3734 16.2186 15.4321 16.2133 15.491C16.2017 15.6211 16.1913 15.7519 16.182 15.8833C16.1785 15.9323 16.1755 15.9814 16.1724 16.0305C16.1649 16.1464 16.1583 16.2628 16.1526 16.3797C16.151 16.4137 16.1489 16.4474 16.1475 16.4815C16.1409 16.6278 16.1363 16.775 16.1326 16.9228C16.1316 16.9607 16.1309 16.9985 16.1301 17.0364C16.127 17.1899 16.1249 17.344 16.1249 17.499C16.1249 17.654 16.127 17.8081 16.1301 17.9616C16.1308 17.9995 16.1316 18.0373 16.1326 18.0752C16.1363 18.223 16.141 18.3702 16.1475 18.5165C16.1489 18.5505 16.151 18.5843 16.1526 18.6183C16.1583 18.7352 16.1649 18.8516 16.1724 18.9674C16.1755 19.0165 16.1785 19.0657 16.182 19.1147C16.1913 19.2461 16.2017 19.3769 16.2133 19.507C16.2185 19.5659 16.2244 19.6246 16.2301 19.6834C16.2389 19.7735 16.2482 19.8631 16.258 19.9524C16.2667 20.0321 16.2758 20.1116 16.2854 20.1909C16.2973 20.289 16.3098 20.3868 16.323 20.4841C16.3318 20.5495 16.341 20.6148 16.3504 20.6799C16.3661 20.788 16.3825 20.8956 16.3998 21.0026C16.4102 21.0669 16.4211 21.1309 16.4321 21.1949C16.4485 21.2906 16.4655 21.3858 16.4831 21.4806C16.4917 21.527 16.5001 21.5735 16.5091 21.6197C16.5351 21.7546 16.5627 21.8883 16.5912 22.021C16.5974 22.0496 16.6037 22.0781 16.61 22.1066C17.6761 26.9531 20.389 30.3323 23.6249 30.3323C27.8124 30.3323 31.1249 24.674 31.1249 17.499C31.1249 10.324 27.8125 4.66562 23.625 4.66562ZM17.4582 19.3439C17.455 19.3079 17.4514 19.272 17.4483 19.2359C17.4438 19.1824 17.4399 19.1286 17.4357 19.0748C17.4299 18.9991 17.4244 18.9234 17.4195 18.8474C17.4168 18.8045 17.4138 18.7615 17.4113 18.7185C17.4044 18.6 17.3981 18.4812 17.3931 18.3618C17.3922 18.3402 17.3916 18.3183 17.3908 18.2966C17.3867 18.1912 17.3835 18.0855 17.381 17.9794C17.3802 17.9454 17.3795 17.9114 17.3788 17.8773C17.3765 17.7515 17.3749 17.6255 17.3749 17.499C17.3749 17.3888 17.3763 17.2789 17.3778 17.169C17.4125 14.9932 17.789 12.9395 18.4076 11.1931C19.3254 12.6544 19.875 14.9625 19.875 17.4989C19.875 20.0354 19.3254 22.3434 18.4077 23.8049C17.9348 22.4699 17.6035 20.9554 17.4582 19.3439ZM23.625 29.1656C21.7867 29.1656 20.0968 27.5731 18.939 25.1051C20.2627 23.5868 21.1249 20.6942 21.1249 17.4989C21.1249 14.3037 20.2627 11.411 18.939 9.89279C20.0968 7.42474 21.7866 5.83224 23.625 5.83224C27 5.83224 29.875 11.1989 29.875 17.4989C29.875 23.7989 27 29.1656 23.625 29.1656Z" fill="inherit" stroke="transparent"/>
</svg>
