<svg width="24" height="26" viewBox="0 0 24 26" fill="none" xmlns="http://www.w3.org/2000/svg">
<path d="M21.6076 14.4842C20.9812 19.565 17.286 19.8861 16.6053 20.1056C16.3154 20.1988 13.6205 20.8733 10.2334 20.6499L6.56143 24.6477L6.55756 20.0409L6.5285 20.0332C1.59534 18.6552 1.76196 13.4888 1.81749 10.7764C1.87303 8.06475 2.37933 5.84286 3.88465 4.34871C6.58727 1.88636 12.1559 2.25435 12.1559 2.25435C16.8585 2.27528 19.1129 3.69902 19.6354 4.17613C21.3699 5.67093 22.254 9.24612 21.6076 14.4842ZM20.9185 2.90784C20.3012 2.33619 17.8046 0.514016 12.245 0.489272C12.245 0.489272 5.68962 0.0914643 2.49363 3.04044C0.714492 4.83026 0.0887254 7.44805 0.0222095 10.6952C-0.0430149 13.943 -0.12955 20.0263 5.70189 21.6771L5.70706 21.6784L5.70383 24.196C5.70383 24.196 5.66702 25.2155 6.33347 25.423C7.1407 25.6749 7.61407 24.9002 8.38513 24.0653C8.80877 23.6072 9.39191 22.934 9.83169 22.4195C13.8201 22.7551 16.8875 21.9849 17.2356 21.8713C18.0416 21.608 22.5982 21.0217 23.3389 14.9379C24.1042 8.66432 22.9689 4.69766 20.9185 2.90784Z" fill="white"/>
<path d="M17.362 15.2422C17.3594 15.2397 16.6142 14.6154 16.2499 14.3457C15.9064 14.092 15.3588 13.7513 15.0526 13.5774C14.5037 13.2697 13.9425 13.4632 13.7107 13.7652L13.2296 14.3737C12.9829 14.682 12.6032 14.63 12.5031 14.6103C11.7921 14.4352 11.0359 13.9981 10.2622 13.2621C9.47952 12.5191 9.00552 11.7432 8.83697 10.9368L8.8247 10.8835C8.77885 10.5523 8.83568 10.3988 8.97323 10.1729L8.99906 10.1519C9.32453 9.85502 9.92641 9.49337 10.0071 9.1495C10.2441 8.55183 9.21604 7.30511 9.0688 7.08559C9.0688 7.08559 8.32098 6.11296 8.05557 5.92769C7.76819 5.69294 7.32389 5.55907 6.87507 5.82999L6.85247 5.84648C5.56413 6.70301 5.09723 7.19535 5.22445 7.93006L5.29096 8.22572C5.9445 10.2497 7.20636 12.4068 9.08753 14.328C10.9487 16.225 12.9622 17.3613 14.9461 18.1487C15.4614 18.3168 15.9961 18.1722 16.5444 17.7116L16.5535 17.7046C16.9739 17.3188 17.3064 16.9058 17.5551 16.4636L17.5576 16.4547C17.7992 15.9865 17.7172 15.5436 17.362 15.2422Z" fill="white"/>
<path d="M14.2726 10.8105C14.1945 10.8105 14.1286 10.7484 14.1247 10.6691C14.0989 10.1444 13.9549 9.74275 13.6966 9.47437C13.4402 9.2079 13.0553 9.05943 12.5542 9.03215C12.4728 9.02771 12.4095 8.95728 12.414 8.8748C12.4186 8.79232 12.4877 8.72951 12.5703 8.73332C13.149 8.76504 13.5991 8.94396 13.9097 9.2669C14.219 9.58857 14.3908 10.0549 14.4205 10.6538C14.4244 10.7363 14.3611 10.8055 14.2797 10.8099H14.2726" fill="white"/>
<path d="M15.7411 11.306H15.7372C15.6558 11.3035 15.5912 11.2356 15.5925 11.1531C15.6151 10.1462 15.3161 9.2948 14.7026 8.62163C14.3972 8.286 14.0265 8.02017 13.599 7.83236C13.1708 7.64456 12.6723 7.52846 12.1182 7.48722C12.0368 7.48087 11.9748 7.40918 11.9813 7.32797C11.9871 7.24549 12.0581 7.18331 12.1395 7.18965C13.3226 7.27721 14.259 7.69088 14.9222 8.42051C15.5887 9.15141 15.9141 10.0739 15.8902 11.1601C15.887 11.2413 15.8205 11.306 15.7411 11.306Z" fill="white"/>
<path d="M17.2445 11.8974C17.1631 11.8974 17.0966 11.8314 17.0959 11.7495C17.0888 10.8594 16.9526 10.0542 16.6891 9.3557C16.4269 8.66223 16.0317 8.05251 15.5144 7.54367C14.9959 7.03547 14.4063 6.64845 13.7624 6.39149C13.1166 6.1339 12.3972 6.00129 11.6236 5.99558C11.5422 5.99495 11.4757 5.9277 11.4763 5.84522C11.477 5.76274 11.5435 5.69739 11.6249 5.69739H11.6255C13.2497 5.70944 14.6271 6.25825 15.7217 7.33049C16.2706 7.86915 16.6898 8.51504 16.9668 9.25038C17.2425 9.98128 17.3859 10.8219 17.393 11.7476C17.3937 11.8301 17.3278 11.8974 17.2458 11.898H17.2445V11.8974Z" fill="white"/>
</svg>
