<svg width="16" height="16" viewBox="0 0 16 16" fill="none" xmlns="http://www.w3.org/2000/svg">
<path d="M11.4659 0.788131C9.99407 0.997033 8.8546 2.36914 8.82611 4.04036C10.8629 4.41543 12.4012 5.78279 12.4012 8.22315C12.4012 10.578 10.4451 12.4819 8 12.4819C5.56914 12.4866 3.59881 10.3501 3.59881 7.5822C3.59881 3.76498 6.98872 0.59822 11.276 0.697923C10.2742 0.251632 9.16795 0 8 0C3.58457 0 0 3.57982 0 8C0 12.4202 3.58457 16 8 16C12.4154 16 16 12.4202 16 8C16 4.82374 14.1484 2.07953 11.4659 0.788131Z" fill="#F91600"/>
</svg>
